<svg preserveAspectRatio="none" width="100%" height="100%" overflow="visible" style="display: block;" viewBox="0 0 40 26" fill="none" xmlns="http://www.w3.org/2000/svg">
<g id="Group 1707479499">
<path id="Vector" d="M29 24C35.0751 24 40 19.0751 40 13C40 6.92487 35.0751 2 29 2C22.9249 2 18 6.92487 18 13C18 19.0751 22.9249 24 29 24Z" fill="var(--fill-0, #B70101)"/>
<path id="Vector_2" d="M29 19C29 19 18.4889 12.7519 23.2272 8.07638C24.6755 6.64121 27.0266 6.64121 28.475 8.07638L29 8.59705L29.5276 8.07638C30.976 6.64121 33.3245 6.64121 34.7728 8.07638C39.5111 12.7493 29 19 29 19Z" fill="var(--fill-0, white)"/>
<path id="Vector_3" d="M13 25C19.6274 25 25 19.6274 25 13C25 6.37259 19.6274 1 13 1C6.37258 1 1 6.37259 1 13C1 19.6274 6.37258 25 13 25Z" fill="var(--fill-0, #0F75FF)" stroke="var(--stroke-0, white)" stroke-width="2"/>
<path id="Vector_4" d="M9.32545 10.6094H7.47982C7.21424 10.6094 7 10.8236 7 11.0892V17.6348C7 17.9004 7.21424 18.1146 7.47982 18.1146H9.32545C9.59102 18.1146 9.80526 17.9004 9.80526 17.6348V11.0892C9.80526 10.8236 9.58879 10.6094 9.32545 10.6094Z" fill="var(--fill-0, white)"/>
<path id="Vector_5" d="M18.0003 11.5929C18.0003 10.997 17.5182 10.515 16.9223 10.515H13.9385C14.2577 9.65128 14.2197 8.55551 14.2175 8.50864C14.2398 7.2388 13.8269 7 13.3561 7C12.8829 7 12.4991 7.31468 12.4991 7.70076V8.50864L10.7003 11.0283C10.7003 11.0283 10.5977 11.1465 10.5977 11.2514V11.5929V13.2332C10.5977 13.2354 10.5977 13.2377 10.5977 13.2399C10.5977 13.2421 10.5977 13.2444 10.5977 13.2466V14.869C10.5977 14.8735 10.5977 14.8757 10.5977 14.8802C10.5977 14.8847 10.5977 14.8869 10.5977 14.8914V16.5473C10.5977 16.5562 10.5977 16.5629 10.5977 16.5718C10.5977 16.5919 10.5977 16.612 10.5999 16.6321C10.5977 16.6455 10.5977 16.6611 10.5977 16.6745V17.0249C10.5977 17.2904 10.8119 17.5047 11.0775 17.5047H11.5305H11.5662H16.6523C17.1678 17.5047 17.5852 17.0874 17.5852 16.5718C17.5852 16.217 17.3865 15.9068 17.0919 15.7506C17.3865 15.5743 17.5852 15.2507 17.5852 14.8824C17.5852 14.5878 17.4602 14.3245 17.2593 14.1393C17.5628 13.9585 17.7659 13.626 17.7659 13.2466C17.7659 12.9654 17.6543 12.711 17.4736 12.5235C17.7882 12.3293 18.0003 11.9857 18.0003 11.5929Z" fill="var(--fill-0, white)"/>
</g>
</svg>
