<svg preserveAspectRatio="none" width="100%" height="100%" overflow="visible" style="display: block;" viewBox="0 0 16 16" fill="none" xmlns="http://www.w3.org/2000/svg">
<g id="SVG">
<path id="Vector" d="M6.69047 1.49122C7.11502 0.843917 8.06391 0.843917 8.48846 1.49122C8.78821 1.94823 9.38311 2.10763 9.8712 1.86173C10.5625 1.51342 11.3843 1.98786 11.4283 2.76072C11.4594 3.30637 11.8949 3.74187 12.4406 3.77295C13.2134 3.81697 13.6879 4.63873 13.3395 5.33006C13.0936 5.81815 13.253 6.41305 13.7101 6.71279C14.3574 7.13735 14.3574 8.08624 13.7101 8.51079C13.253 8.81053 13.0936 9.40543 13.3395 9.89352C13.6879 10.5848 13.2134 11.4066 12.4406 11.4506C11.8949 11.4817 11.4594 11.9173 11.4283 12.4629C11.3843 13.2358 10.5625 13.7102 9.8712 13.3618C9.38311 13.1159 8.78821 13.2753 8.48847 13.7323C8.06391 14.3797 7.11502 14.3797 6.69047 13.7323C6.39073 13.2753 5.79582 13.1159 5.30774 13.3618C4.61641 13.7102 3.79465 13.2358 3.75063 12.4629C3.71955 11.9173 3.28405 11.4817 2.7384 11.4506C1.96554 11.4066 1.4911 10.5848 1.83941 9.89352C2.08531 9.40543 1.92591 8.81053 1.4689 8.51079C0.821595 8.08624 0.821595 7.13735 1.4689 6.71279C1.92591 6.41305 2.08531 5.81815 1.83941 5.33006C1.4911 4.63873 1.96554 3.81697 2.7384 3.77295C3.28405 3.74187 3.71955 3.30637 3.75063 2.76072C3.79465 1.98786 4.61641 1.51342 5.30774 1.86173C5.79582 2.10763 6.39073 1.94823 6.69047 1.49122Z" fill="var(--fill-0, #0F75FF)"/>
<path id="Vector_2" d="M5.34668 7.61333L6.3635 8.63015C6.67347 8.94013 6.82846 9.09511 7.01706 9.08655C7.20565 9.07801 7.34597 8.90962 7.62661 8.57286L9.82601 5.93359" stroke="var(--stroke-0, white)" stroke-width="0.856157" stroke-linecap="round"/>
</g>
</svg>
