<svg width="117" height="26" viewBox="0 0 117 26" fill="none" xmlns="http://www.w3.org/2000/svg">
<path d="M21.5918 14.6379L21.0371 14.2727L5.4707 4.02954C5.26888 3.9093 5.07158 3.84506 4.89551 3.84497C4.32889 3.84497 3.86825 4.30571 3.86816 4.87231V20.1604C3.86817 20.7271 4.32884 21.1877 4.89551 21.1877H5.99414V24.7229H4.89551C2.38071 24.7229 0.356445 22.6986 0.356445 20.1838V4.89673C0.356445 2.38193 2.38071 0.357666 4.89551 0.357666C5.66581 0.35773 6.43787 0.556082 7.1084 0.937744L7.38965 1.11255L21.4355 10.6682L21.5918 10.7747V14.6379Z" fill="#3C7DFF" stroke="#3C7DFF" stroke-width="0.716029"/>
<path d="M23.5029 0.357666C26.0177 0.357666 28.041 2.38193 28.041 4.89673V20.1838C28.041 22.6986 26.0177 24.7229 23.5029 24.7229C22.7326 24.7229 21.9606 24.5245 21.29 24.1428L21.0088 23.968L6.96289 14.4133L6.80566 14.3059V10.4436L7.36035 10.8079L22.9268 21.0256C23.1291 21.1464 23.3264 21.2121 23.5029 21.2122C24.0696 21.2122 24.5303 20.7505 24.5303 20.1838V4.89673C24.5303 4.33006 24.0696 3.86938 23.5029 3.86938H22.4043V0.357666H23.5029Z" fill="#3C7DFF" stroke="#3C7DFF" stroke-width="0.716029"/>
<path fill-rule="evenodd" clip-rule="evenodd" d="M102.712 7.28511V24.3646H109.749V7.28511H116.935V0.453318L106.788 0.452759L102.712 7.28511ZM102.712 7.28511L106.788 0.452759H102.122L97.6953 7.16157L102.712 7.28511Z" fill="black"/>
<path fill-rule="evenodd" clip-rule="evenodd" d="M76.9531 24.2758L85.1171 12.0127L77.7388 0.364502L85.7321 0.365061L93.6569 11.5345L84.2447 24.2763L76.9531 24.2758ZM89.7508 18.2043L94.0798 24.2763L101.282 24.2758L94.0798 12.604L89.7508 18.2043ZM94.0798 10.6538L90.2896 5.36109L93.6569 0.365061L101.138 0.364502L94.0798 10.6538Z" fill="black"/>
<path d="M62.2109 24.3629V0.45166H76.4211L80.636 7.28345H69.2477V9.33299H76.4211V15.4816H69.2477V17.5311H80.2608L75.6591 24.3635L62.2109 24.3629Z" fill="black"/>
<path d="M39.6836 24.3634V0.452148H47.7109L54.2353 11.8954V0.452148H61.0671V24.3634H53.9279L46.5154 11.6563V24.3634H39.6836Z" fill="black"/>
</svg>
