<svg preserveAspectRatio="none" width="100%" height="100%" overflow="visible" style="display: block;" viewBox="0 0 26 24" fill="none" xmlns="http://www.w3.org/2000/svg">
<path id="Vector" fill-rule="evenodd" clip-rule="evenodd" d="M12.1381 0C5.45503 0 0 5.39298 0 12C0 18.607 5.45503 24 12.1381 24C18.8211 24 24.2761 18.607 24.2761 12C24.2761 10.6692 24.0444 9.39128 23.6361 8.19308C22.6646 9.15362 21.75 10.0576 20.7539 11.0424C20.7867 11.3567 20.8081 11.6761 20.8081 12C20.8081 16.7541 16.9469 20.5714 12.1381 20.5714C7.32933 20.5714 3.46802 16.7541 3.46802 12C3.46802 7.24589 7.32933 3.42857 12.1381 3.42857C13.9885 3.42857 15.6926 4.00257 17.0963 4.96875C17.9451 4.12937 18.74 3.34381 19.5618 2.53125C17.5057 0.950522 14.9329 0 12.1381 0ZM23.5514 1.01451C20.0904 4.43643 15.5923 8.88277 12.1313 12.3047C10.9776 11.164 9.82371 10.0235 8.67005 8.88281L6.22483 11.3036C8.19416 13.2507 10.162 15.1957 12.1313 17.1429C16.4079 12.9145 21.7234 7.6603 26 3.43192L23.5514 1.01451Z" fill="var(--fill-0, #D4D1CD)"/>
</svg>
