<svg preserveAspectRatio="none" width="100%" height="100%" overflow="visible" style="display: block;" viewBox="0 0 118.91 22.5792" fill="none" xmlns="http://www.w3.org/2000/svg">
<g id="Group 470111">
<path id="Star 1" d="M10.2648 2.29911C10.6601 1.41216 11.9191 1.41216 12.3144 2.29911L14.145 6.40576C14.308 6.77158 14.6537 7.02274 15.052 7.06478L19.5233 7.5367C20.4891 7.63863 20.8781 8.83595 20.1567 9.48604L16.8167 12.496C16.5192 12.7641 16.3872 13.1705 16.4703 13.5623L17.4032 17.9606C17.6046 18.9106 16.5861 19.6506 15.7449 19.1654L11.8502 16.919C11.5032 16.7189 11.0759 16.7189 10.729 16.919L6.83422 19.1654C5.99303 19.6506 4.97453 18.9106 5.17601 17.9606L6.1089 13.5623C6.192 13.1705 6.05996 12.7641 5.76244 12.496L2.42245 9.48605C1.70108 8.83595 2.09011 7.63863 3.05583 7.5367L7.52715 7.06478C7.92545 7.02274 8.27115 6.77158 8.43421 6.40576L10.2648 2.29911Z" fill="var(--fill-0, #FFB800)"/>
<path id="Star 2" d="M34.3474 2.29911C34.7427 1.41216 36.0017 1.41216 36.397 2.29911L38.2276 6.40576C38.3906 6.77158 38.7363 7.02274 39.1346 7.06478L43.606 7.5367C44.5717 7.63863 44.9607 8.83595 44.2393 9.48604L40.8994 12.496C40.6018 12.7641 40.4698 13.1705 40.5529 13.5623L41.4858 17.9606C41.6873 18.9106 40.6688 19.6506 39.8276 19.1654L35.9328 16.919C35.5859 16.7189 35.1586 16.7189 34.8116 16.919L30.9168 19.1654C30.0757 19.6506 29.0572 18.9106 29.2586 17.9606L30.1915 13.5623C30.2746 13.1705 30.1426 12.7641 29.8451 12.496L26.5051 9.48605C25.7837 8.83595 26.1727 7.63863 27.1385 7.5367L31.6098 7.06478C32.0081 7.02274 32.3538 6.77158 32.5168 6.40576L34.3474 2.29911Z" fill="var(--fill-0, #FFB800)"/>
<path id="Star 3" d="M58.43 2.29911C58.8254 1.41216 60.0843 1.41216 60.4797 2.29911L62.3102 6.40576C62.4733 6.77158 62.819 7.02274 63.2173 7.06478L67.6886 7.5367C68.6543 7.63863 69.0433 8.83595 68.322 9.48604L64.982 12.496C64.6845 12.7641 64.5524 13.1705 64.6355 13.5623L65.5684 17.9606C65.7699 18.9106 64.7514 19.6506 63.9102 19.1654L60.0154 16.919C59.6685 16.7189 59.2412 16.7189 58.8942 16.919L54.9995 19.1654C54.1583 19.6506 53.1398 18.9106 53.3413 17.9606L54.2742 13.5623C54.3573 13.1705 54.2252 12.7641 53.9277 12.496L50.5877 9.48605C49.8663 8.83595 50.2554 7.63863 51.2211 7.5367L55.6924 7.06478C56.0907 7.02274 56.4364 6.77158 56.5995 6.40576L58.43 2.29911Z" fill="var(--fill-0, #D4D1CD)"/>
<path id="Star 4" d="M82.5126 2.29911C82.908 1.41216 84.1669 1.41216 84.5623 2.29911L86.3928 6.40576C86.5559 6.77158 86.9016 7.02274 87.2999 7.06478L91.7712 7.5367C92.7369 7.63863 93.126 8.83595 92.4046 9.48604L89.0646 12.496C88.7671 12.7641 88.635 13.1705 88.7181 13.5623L89.651 17.9606C89.8525 18.9106 88.834 19.6506 87.9928 19.1654L84.0981 16.919C83.7511 16.7189 83.3238 16.7189 82.9769 16.919L79.0821 19.1654C78.2409 19.6506 77.2224 18.9106 77.4239 17.9606L78.3568 13.5623C78.4399 13.1705 78.3078 12.7641 78.0103 12.496L74.6703 9.48605C73.949 8.83595 74.338 7.63863 75.3037 7.5367L79.775 7.06478C80.1733 7.02274 80.519 6.77158 80.6821 6.40576L82.5126 2.29911Z" fill="var(--fill-0, #D4D1CD)"/>
<path id="Star 5" d="M106.595 2.29911C106.991 1.41216 108.25 1.41216 108.645 2.29911L110.475 6.40576C110.639 6.77158 110.984 7.02274 111.383 7.06478L115.854 7.5367C116.82 7.63863 117.209 8.83595 116.487 9.48604L113.147 12.496C112.85 12.7641 112.718 13.1705 112.801 13.5623L113.734 17.9606C113.935 18.9106 112.917 19.6506 112.075 19.1654L108.181 16.919C107.834 16.7189 107.406 16.7189 107.059 16.919L103.165 19.1654C102.324 19.6506 101.305 18.9106 101.507 17.9606L102.439 13.5623C102.523 13.1705 102.39 12.7641 102.093 12.496L98.753 9.48605C98.0316 8.83595 98.4206 7.63863 99.3863 7.5367L103.858 7.06478C104.256 7.02274 104.602 6.77158 104.765 6.40576L106.595 2.29911Z" fill="var(--fill-0, #D4D1CD)"/>
</g>
</svg>
