<svg preserveAspectRatio="none" width="100%" height="100%" overflow="visible" style="display: block;" viewBox="0 0 85 17" fill="none" xmlns="http://www.w3.org/2000/svg">
<g id="Frame 1000003441">
<path id="Star" d="M7.41835 2.25152C7.85415 1.34437 9.14585 1.34437 9.58165 2.25151L10.6779 4.53331C10.8528 4.89744 11.1992 5.14911 11.5996 5.20296L14.1084 5.5404C15.1058 5.67455 15.505 6.90303 14.7769 7.59783L12.9455 9.34549C12.6533 9.62438 12.521 10.0316 12.5935 10.429L13.0478 12.9193C13.2285 13.9094 12.1835 14.6686 11.2977 14.1909L9.06964 12.9892C8.71409 12.7975 8.28591 12.7975 7.93036 12.9892L5.70231 14.1909C4.81653 14.6686 3.77152 13.9094 3.95216 12.9194L4.40652 10.429C4.47902 10.0316 4.34671 9.62438 4.05446 9.34549L2.22309 7.59783C1.49501 6.90303 1.89417 5.67455 2.89159 5.5404L5.40045 5.20296C5.80081 5.14911 6.14721 4.89744 6.32214 4.53331L7.41835 2.25152Z" fill="var(--fill-0, #FFB800)"/>
<path id="Star_2" d="M24.4183 2.25152C24.8542 1.34437 26.1458 1.34437 26.5817 2.25151L27.6779 4.53331C27.8528 4.89744 28.1992 5.14911 28.5996 5.20296L31.1084 5.5404C32.1058 5.67455 32.505 6.90303 31.7769 7.59783L29.9455 9.34549C29.6533 9.62438 29.521 10.0316 29.5935 10.429L30.0478 12.9193C30.2285 13.9094 29.1835 14.6686 28.2977 14.1909L26.0696 12.9892C25.7141 12.7975 25.2859 12.7975 24.9304 12.9892L22.7023 14.1909C21.8165 14.6686 20.7715 13.9094 20.9522 12.9194L21.4065 10.429C21.479 10.0316 21.3467 9.62438 21.0545 9.34549L19.2231 7.59783C18.495 6.90303 18.8942 5.67455 19.8916 5.5404L22.4004 5.20296C22.8008 5.14911 23.1472 4.89744 23.3221 4.53331L24.4183 2.25152Z" fill="var(--fill-0, #FFB800)"/>
<path id="Star_3" d="M41.4183 2.25152C41.8542 1.34437 43.1458 1.34437 43.5817 2.25151L44.6779 4.53331C44.8528 4.89744 45.1992 5.14911 45.5996 5.20296L48.1084 5.5404C49.1058 5.67455 49.505 6.90303 48.7769 7.59783L46.9455 9.34549C46.6533 9.62438 46.521 10.0316 46.5935 10.429L47.0478 12.9193C47.2285 13.9094 46.1835 14.6686 45.2977 14.1909L43.0696 12.9892C42.7141 12.7975 42.2859 12.7975 41.9304 12.9892L39.7023 14.1909C38.8165 14.6686 37.7715 13.9094 37.9522 12.9194L38.4065 10.429C38.479 10.0316 38.3467 9.62438 38.0545 9.34549L36.2231 7.59783C35.495 6.90303 35.8942 5.67455 36.8916 5.5404L39.4004 5.20296C39.8008 5.14911 40.1472 4.89744 40.3221 4.53331L41.4183 2.25152Z" fill="var(--fill-0, #FFB800)"/>
<path id="Star_4" d="M58.4183 2.25152C58.8542 1.34437 60.1458 1.34437 60.5817 2.25151L61.6779 4.53331C61.8528 4.89744 62.1992 5.14911 62.5996 5.20296L65.1084 5.5404C66.1058 5.67455 66.505 6.90303 65.7769 7.59783L63.9455 9.34549C63.6533 9.62438 63.521 10.0316 63.5935 10.429L64.0478 12.9193C64.2285 13.9094 63.1835 14.6686 62.2977 14.1909L60.0696 12.9892C59.7141 12.7975 59.2859 12.7975 58.9304 12.9892L56.7023 14.1909C55.8165 14.6686 54.7715 13.9094 54.9522 12.9194L55.4065 10.429C55.479 10.0316 55.3467 9.62438 55.0545 9.34549L53.2231 7.59783C52.495 6.90303 52.8942 5.67455 53.8916 5.5404L56.4004 5.20296C56.8008 5.14911 57.1472 4.89744 57.3221 4.53331L58.4183 2.25152Z" fill="var(--fill-0, #FFB800)"/>
<g id="Group 1000003441">
<path id="Star_5" d="M75.4183 2.25152C75.8542 1.34437 77.1458 1.34437 77.5817 2.25151L78.6779 4.53331C78.8528 4.89744 79.1992 5.14911 79.5996 5.20296L82.1084 5.5404C83.1058 5.67455 83.505 6.90303 82.7769 7.59783L80.9455 9.34549C80.6533 9.62438 80.521 10.0316 80.5935 10.429L81.0478 12.9193C81.2285 13.9094 80.1835 14.6686 79.2977 14.1909L77.0696 12.9892C76.7141 12.7975 76.2859 12.7975 75.9304 12.9892L73.7023 14.1909C72.8165 14.6686 71.7715 13.9094 71.9522 12.9194L72.4065 10.429C72.479 10.0316 72.3467 9.62438 72.0545 9.34549L70.2231 7.59783C69.495 6.90303 69.8942 5.67455 70.8916 5.5404L73.4004 5.20296C73.8008 5.14911 74.1472 4.89744 74.3221 4.53331L75.4183 2.25152Z" fill="var(--fill-0, #D4D1CD)"/>
<g id="Group 1000003442">
<mask id="mask0_0_5" style="mask-type:alpha" maskUnits="userSpaceOnUse" x="69" y="1" width="15" height="14">
<path id="Star_6" d="M75.4183 2.25152C75.8542 1.34437 77.1458 1.34437 77.5817 2.25151L78.6779 4.53331C78.8528 4.89744 79.1992 5.14911 79.5996 5.20296L82.1084 5.5404C83.1058 5.67455 83.505 6.90303 82.7769 7.59783L80.9455 9.34549C80.6533 9.62438 80.521 10.0316 80.5935 10.429L81.0478 12.9193C81.2285 13.9094 80.1835 14.6686 79.2977 14.1909L77.0696 12.9892C76.7141 12.7975 76.2859 12.7975 75.9304 12.9892L73.7023 14.1909C72.8165 14.6686 71.7715 13.9094 71.9522 12.9194L72.4065 10.429C72.479 10.0316 72.3467 9.62438 72.0545 9.34549L70.2231 7.59783C69.495 6.90303 69.8942 5.67455 70.8916 5.5404L73.4004 5.20296C73.8008 5.14911 74.1472 4.89744 74.3221 4.53331L75.4183 2.25152Z" fill="var(--fill-0, #DADBE4)"/>
</mask>
<g mask="url(#mask0_0_5)">
<rect id="Rectangle 742" x="68" width="8.5" height="15.3408" rx="1.2" fill="var(--fill-0, #FFB800)"/>
</g>
</g>
</g>
</g>
</svg>
