<?xml version="1.0" encoding="UTF-8"?>
<svg id="Layer_1" data-name="Layer 1" xmlns="http://www.w3.org/2000/svg" viewBox="0 0 480 270">
  <defs>
    <style>
      .cls-1 {
        fill: #939393;
      }

      .cls-2 {
        fill: #ededed;
      }
    </style>
  </defs>
  <rect class="cls-2" width="480" height="270"/>
  <g id="Group-6">
    <path id="Path-3-Copy-12" class="cls-1" d="M215.71,104.12c2.12,0,4.24.62,5.99,1.81l36.68,24.95v7.86l-40.67-26.76c-.62-.37-1.31-.62-2-.62-2,0-3.62,1.62-3.62,3.62v39.92c0,2,1.62,3.62,3.62,3.62h1.93v7.36h-1.93c-6.05,0-10.92-4.87-10.92-10.92v-39.92c0-6.05,4.87-10.92,10.92-10.92Z"/>
    <path id="Path-3-Copy-13" class="cls-1" d="M264.29,165.88c-2.12,0-4.24-.62-5.99-1.81l-36.68-24.95v-7.86l40.67,26.7c.62.37,1.31.62,2,.62,2,0,3.62-1.62,3.62-3.62v-39.92c0-2-1.62-3.62-3.62-3.62h-1.93v-7.3h1.93c6.05,0,10.92,4.87,10.92,10.92v39.92c0,6.05-4.87,10.92-10.92,10.92h0Z"/>
  </g>
</svg>