<svg preserveAspectRatio="none" width="100%" height="100%" overflow="visible" style="display: block;" viewBox="0 0 48 49.2" fill="none" xmlns="http://www.w3.org/2000/svg">
<g id="5d93dff5-ce25-4327-8441-b769bc145d9b">
<path id="Vector" d="M19.9935 28.8848L18.3641 30.7242C17.1056 31.9829 15.5019 32.8402 13.756 33.1874C12.0101 33.5347 10.2006 33.3565 8.55599 32.6754C6.91141 31.9943 5.50577 30.8407 4.51681 29.3606C3.52786 27.8806 3 26.1404 3 24.3605C3 22.5804 3.52786 20.8403 4.51681 19.3602C5.50577 17.8801 6.91141 16.7267 8.55599 16.0454C10.2006 15.3643 12.0101 15.1861 13.756 15.5334C15.5019 15.8807 17.1056 16.738 18.3641 17.9966L29.6367 30.7242C30.8954 31.9829 32.4989 32.8402 34.2448 33.1874C35.9907 33.5347 37.8003 33.3565 39.4449 32.6754C41.0894 31.9943 42.4951 30.8407 43.484 29.3606C44.473 27.8806 45.0009 26.1404 45.0009 24.3605C45.0009 22.5804 44.473 20.8403 43.484 19.3602C42.4951 17.8801 41.0894 16.7267 39.4449 16.0454C37.8003 15.3643 35.9907 15.1861 34.2448 15.5334C32.4989 15.8807 30.8954 16.738 29.6367 17.9966L28.0073 19.836" stroke="var(--stroke-0, #0F75FF)" stroke-width="3" stroke-linecap="round" stroke-linejoin="round"/>
</g>
</svg>
