<svg preserveAspectRatio="none" width="100%" height="100%" overflow="visible" style="display: block;" viewBox="0 0 48 49" fill="none" xmlns="http://www.w3.org/2000/svg">
<g id="57facb9a-5916-42c6-964c-2d2c36b02875">
<path id="Vector" d="M9 39.3H3C2.60218 39.3 2.22064 39.142 1.93934 38.8607C1.65804 38.5794 1.5 38.1979 1.5 37.8V30.3C1.5 29.9022 1.65804 29.5207 1.93934 29.2394C2.22064 28.9581 2.60218 28.8 3 28.8H9" stroke="var(--stroke-0, #0F75FF)" stroke-width="2.5" stroke-linecap="round" stroke-linejoin="round"/>
<path id="Vector_2" d="M21 30.3001H27L39.5625 27.4107C40.0244 27.2841 40.5092 27.2658 40.9793 27.3571C41.4494 27.4483 41.8921 27.6468 42.2731 27.937C42.654 28.2273 42.9629 28.6014 43.1757 29.0305C43.3885 29.4595 43.4994 29.9318 43.5 30.4107C43.5002 30.9889 43.3393 31.5558 43.0353 32.0476C42.7312 32.5394 42.2961 32.9368 41.7788 33.1951L34.5 36.3001L22.5 39.3001H9V28.8001L13.6875 24.1126C14.1065 23.695 14.6036 23.3642 15.1506 23.139C15.6975 22.9138 16.2835 22.7986 16.875 22.8001H26.25C27.2446 22.8001 28.1984 23.1952 28.9017 23.8984C29.6049 24.6017 30 25.5555 30 26.5501C30 27.5446 29.6049 28.4985 28.9017 29.2017C28.1984 29.905 27.2446 30.3001 26.25 30.3001H21Z" stroke="var(--stroke-0, #0F75FF)" stroke-width="2.5" stroke-linecap="round" stroke-linejoin="round"/>
<path id="Vector_3" d="M18.1369 22.8001C16.3125 20.4976 15 18.0301 15 15.3001C15 11.2332 18.3131 7.80007 22.3987 7.80007C23.859 7.78293 25.291 8.20205 26.5116 9.00374C27.7322 9.80543 28.6857 10.9532 29.25 12.3001C29.8143 10.9532 30.7678 9.80543 31.9884 9.00374C33.209 8.20205 34.641 7.78293 36.1012 7.80007C40.1869 7.80007 43.5 11.2332 43.5 15.3001C43.5 20.7807 38.2162 25.6257 34.0837 28.6726" stroke="var(--stroke-0, #0F75FF)" stroke-width="2.5" stroke-linecap="round" stroke-linejoin="round"/>
</g>
</svg>
