<svg preserveAspectRatio="none" width="100%" height="100%" overflow="visible" style="display: block;" viewBox="0 0 48 49.2" fill="none" xmlns="http://www.w3.org/2000/svg">
<g id="5bb97b4b-64c0-4ea5-81a1-66ad15ca0681">
<path id="Vector" d="M40.5 15.3599H7.5C6.67157 15.3599 6 16.0315 6 16.8599V22.8599C6 23.6883 6.67157 24.3599 7.5 24.3599H40.5C41.3285 24.3599 42 23.6883 42 22.8599V16.8599C42 16.0315 41.3285 15.3599 40.5 15.3599Z" stroke="var(--stroke-0, #0F75FF)" stroke-width="3" stroke-linecap="round" stroke-linejoin="round"/>
<path id="Vector_2" d="M39 24.3599V37.8599C39 38.2578 38.842 38.6393 38.5607 38.9205C38.2794 39.2019 37.8978 39.3599 37.5 39.3599H10.5C10.1022 39.3599 9.72065 39.2019 9.43934 38.9205C9.15804 38.6393 9 38.2578 9 37.8599V24.3599" stroke="var(--stroke-0, #0F75FF)" stroke-width="2.4" stroke-linecap="round" stroke-linejoin="round"/>
<path id="Vector_3" d="M24 15.3599V39.3599" stroke="var(--stroke-0, #0F75FF)" stroke-width="2.4" stroke-linecap="round" stroke-linejoin="round"/>
<path id="Vector_4" d="M33.1481 6.21225C34.8994 7.96349 35.0024 10.911 33.1481 12.5535C29.9774 15.3604 24 15.3604 24 15.3604C24 15.3604 24 9.38288 26.8124 6.21225C28.4494 4.35788 31.3969 4.46099 33.1481 6.21225Z" stroke="var(--stroke-0, #0F75FF)" stroke-width="2.4" stroke-linecap="round" stroke-linejoin="round"/>
<path id="Vector_5" d="M14.8518 6.21225C13.1005 7.96349 12.9974 10.911 14.8518 12.5535C18.0224 15.3604 23.9999 15.3604 23.9999 15.3604C23.9999 15.3604 23.9999 9.38288 21.1874 6.21225C19.5505 4.35788 16.6031 4.46099 14.8518 6.21225Z" stroke="var(--stroke-0, #0F75FF)" stroke-width="2.4" stroke-linecap="round" stroke-linejoin="round"/>
</g>
</svg>
