<svg preserveAspectRatio="none" width="100%" height="100%" overflow="visible" style="display: block;" viewBox="0 0 48 49.2" fill="none" xmlns="http://www.w3.org/2000/svg">
<g id="5bfacfcb-d1ba-47e4-9950-9be63611659d">
<path id="Vector" d="M15.8007 32.5592L5.47126 28.753C5.18644 28.6478 4.9407 28.458 4.76712 28.2089C4.59354 27.9598 4.50049 27.6635 4.50049 27.3599C4.50049 27.0563 4.59354 26.76 4.76712 26.5109C4.9407 26.2618 5.18644 26.0719 5.47126 25.9668L15.8007 22.1605L19.6069 11.8311C19.7121 11.5463 19.9019 11.3006 20.151 11.127C20.4001 10.9534 20.6964 10.8604 21 10.8604C21.3036 10.8604 21.5999 10.9534 21.849 11.127C22.0981 11.3006 22.288 11.5463 22.3931 11.8311L26.1994 22.1605L36.5287 25.9668C36.8136 26.0719 37.0594 26.2618 37.2329 26.5109C37.4065 26.76 37.4995 27.0563 37.4995 27.3599C37.4995 27.6635 37.4065 27.9598 37.2329 28.2089C37.0594 28.458 36.8136 28.6478 36.5287 28.753L26.1994 32.5592L22.3931 42.8886C22.288 43.1735 22.0981 43.4192 21.849 43.5928C21.5999 43.7664 21.3036 43.8594 21 43.8594C20.6964 43.8594 20.4001 43.7664 20.151 43.5928C19.9019 43.4192 19.7121 43.1735 19.6069 42.8886L15.8007 32.5592Z" stroke="var(--stroke-0, #0F75FF)" stroke-width="3" stroke-linecap="round" stroke-linejoin="round"/>
<path id="Vector_2" d="M33 3.35986V12.3599" stroke="var(--stroke-0, #0F75FF)" stroke-width="2.4" stroke-linecap="round" stroke-linejoin="round"/>
<path id="Vector_3" d="M42 13.8599V19.8599" stroke="var(--stroke-0, #0F75FF)" stroke-width="2.4" stroke-linecap="round" stroke-linejoin="round"/>
<path id="Vector_4" d="M28.5 7.85986H37.5" stroke="var(--stroke-0, #0F75FF)" stroke-width="2.4" stroke-linecap="round" stroke-linejoin="round"/>
<path id="Vector_5" d="M39 16.8599H45" stroke="var(--stroke-0, #0F75FF)" stroke-width="2.4" stroke-linecap="round" stroke-linejoin="round"/>
</g>
</svg>
