<svg preserveAspectRatio="none" width="100%" height="100%" overflow="visible" style="display: block;" viewBox="0 0 30.4001 27.4225" fill="none" xmlns="http://www.w3.org/2000/svg">
<g id="Group">
<path id="Vector" d="M4.88641 10.7217V23.4864H25.5136V10.7217H4.88641ZM18.4 17.9825L12.4288 22.0944C12.2944 22.1872 12.112 22.1744 11.9904 22.0592C11.8688 21.9472 11.8432 21.768 11.9296 21.624L14.2048 17.8128L12.1344 17.0896C11.9328 17.0192 11.7888 16.8432 11.76 16.632C11.7344 16.4208 11.824 16.2128 12 16.0944L17.9712 11.9825C18.1056 11.8896 18.2912 11.9025 18.4096 12.0144C18.5312 12.1296 18.5568 12.3088 18.4704 12.4528L16.1952 16.264L18.2656 16.9872C18.4672 17.0576 18.6112 17.2336 18.64 17.4448C18.6656 17.656 18.576 17.864 18.4 17.9825Z" fill="var(--fill-0, #0F75FF)"/>
<path id="Vector_2" d="M27.8884 2.76669H24.3635V0.958481C24.3635 0.429067 23.9344 0 23.405 0H19.3575C18.8281 0 18.399 0.429067 18.399 0.958481V2.76669H12.0016V0.958481C12.0016 0.429067 11.5725 0 11.0431 0H6.99562C6.46621 0 6.03714 0.429067 6.03714 0.958481V2.76669H2.51217C1.25463 2.76669 0.213101 3.69057 0.0287205 4.89621C0.00993658 5.02127 5.02586e-05 5.14881 5.02586e-05 5.27881V5.72271V6.84382C5.02586e-05 7.37323 0.429117 7.8023 0.958531 7.8023H29.4416C29.971 7.8023 30.4 7.37323 30.4 6.84382V5.72271V5.27881C30.4005 3.89126 29.276 2.76669 27.8884 2.76669Z" fill="var(--fill-0, #0F75FF)"/>
<path id="Vector_3" d="M30.4 10.7217V25.2304C30.4 26.44 29.4144 27.4225 28.2048 27.4225H2.19516C0.985625 27.4225 0 26.44 0 25.2304V10.7217H2.41281V25.0096H27.9872V10.7217H30.4Z" fill="var(--fill-0, #0F75FF)"/>
</g>
</svg>
