<svg preserveAspectRatio="none" width="100%" height="100%" overflow="visible" style="display: block;" viewBox="0 0 29.5276 30.0032" fill="none" xmlns="http://www.w3.org/2000/svg">
<g id="Group">
<path id="Vector" d="M29.0131 1.64301C28.8931 1.573 17.7431 -4.35699 7.25309 6.753C6.65311 7.72297 6.24314 8.943 5.81309 9.99299C5.75309 9.07301 4.49314 8.67298 3.97312 9.47297C3.80314 9.72297 -0.11691 15.493 1.96311 20.803C1.37308 22.033 -0.15689 25.613 0.0130996 29.053C0.0231096 29.573 0.49314 30.013 1.0131 30.003C1.24314 30.003 1.47312 29.923 1.65311 29.773L4.24314 27.613C4.92313 26.623 5.0131 25.413 5.78312 24.173C8.2631 24.153 10.6631 23.383 10.7731 23.343C11.1931 23.213 11.4631 22.803 11.4531 22.363C11.4431 22.083 11.3231 21.833 11.1331 21.663C12.6231 21.783 13.7231 21.303 14.1831 20.943C16.0331 19.653 19.2031 16.473 19.3431 16.343C19.8631 15.843 19.6331 14.883 18.9331 14.683C18.9131 14.673 18.8831 14.663 18.8531 14.653C20.1631 14.433 21.0831 13.853 21.1731 13.793C27.4731 9.09297 29.4031 3.063 29.4831 2.813C29.6231 2.36299 29.4231 1.86299 29.0131 1.64301ZM4.3231 22.653C3.60313 23.953 3.0731 25.153 2.72312 26.263L2.15311 26.743C2.57309 24.073 3.77311 21.653 3.93314 21.343C4.36313 20.663 10.7431 10.893 16.5231 8.44301C13.8931 10.773 7.6331 16.663 4.3231 22.653Z" fill="var(--fill-0, #0F75FF)"/>
</g>
</svg>
