<svg preserveAspectRatio="none" width="100%" height="100%" overflow="visible" style="display: block;" viewBox="0 0 32 32" fill="none" xmlns="http://www.w3.org/2000/svg">
<g id="Icon">
<path id="Vector" d="M15.9998 14.2581L19.6087 10.6492C19.8369 10.4211 20.1272 10.307 20.4798 10.307C20.8324 10.307 21.1228 10.4211 21.351 10.6492C21.5791 10.8774 21.6932 11.1677 21.6932 11.5203C21.6932 11.8729 21.5791 12.1633 21.351 12.3914L17.7421 16.0003L21.351 19.6092C21.5791 19.8374 21.6932 20.1277 21.6932 20.4803C21.6932 20.8329 21.5791 21.1233 21.351 21.3514C21.1228 21.5796 20.8324 21.6936 20.4798 21.6936C20.1272 21.6936 19.8369 21.5796 19.6087 21.3514L15.9998 17.7425L12.391 21.3514C12.1628 21.5796 11.8724 21.6936 11.5198 21.6936C11.1672 21.6936 10.8769 21.5796 10.6487 21.3514C10.4206 21.1233 10.3065 20.8329 10.3065 20.4803C10.3065 20.1277 10.4206 19.8374 10.6487 19.6092L14.2576 16.0003L10.6487 12.3914C10.4206 12.1633 10.3065 11.8729 10.3065 11.5203C10.3065 11.1677 10.4206 10.8774 10.6487 10.6492C10.8769 10.4211 11.1672 10.307 11.5198 10.307C11.8724 10.307 12.1628 10.4211 12.391 10.6492L15.9998 14.2581ZM15.9998 3.55587C14.2784 3.55587 12.6606 3.88254 11.1465 4.53587C9.63243 5.1892 8.3154 6.07587 7.1954 7.19587C6.0754 8.31587 5.18873 9.63291 4.5354 11.147C3.88206 12.6611 3.5554 14.2788 3.5554 16.0003C3.5554 17.7218 3.88206 19.3396 4.5354 20.8536C5.18873 22.3677 6.0754 23.6848 7.1954 24.8048C8.3154 25.9248 9.63243 26.8114 11.1465 27.4648C12.6606 28.1181 14.2784 28.4448 15.9998 28.4448C17.7213 28.4448 19.3391 28.1181 20.8532 27.4648C22.3672 26.8114 23.6843 25.9248 24.8043 24.8048C25.9243 23.6848 26.811 22.3677 27.4643 20.8536C28.1176 19.3396 28.4443 17.7218 28.4443 16.0003C28.4443 14.2788 28.1176 12.6611 27.4643 11.147C26.811 9.63291 25.9243 8.31587 24.8043 7.19587C23.6843 6.07587 22.3672 5.1892 20.8532 4.53587C19.3391 3.88254 17.7213 3.55587 15.9998 3.55587Z" fill="var(--fill-0, #B70101)"/>
</g>
</svg>
