<svg preserveAspectRatio="none" width="100%" height="100%" overflow="visible" style="display: block;" viewBox="0 0 48 48" fill="none" xmlns="http://www.w3.org/2000/svg">
<path id="Vector" d="M24 0C10.7664 0 0 10.7664 0 24C0 37.2336 10.7664 48 24 48C37.2338 48 48 37.2336 48 24C48 10.7664 37.2338 0 24 0ZM11.7818 19.3455C11.7818 18.5804 12.0931 17.8297 12.634 17.2885C13.1753 16.7476 13.9244 16.4364 14.6909 16.4364C15.456 16.4364 16.2066 16.7476 16.7477 17.2885C17.2901 17.8297 17.6 18.5804 17.6 19.3455C17.6 20.1105 17.2901 20.8611 16.7477 21.4021C16.2066 21.9432 15.456 22.2546 14.6909 22.2546C13.9258 22.2546 13.1753 21.9432 12.634 21.4021C12.0931 20.8611 11.7818 20.1105 11.7818 19.3455ZM32.9481 32.9481C32.0961 33.8 30.7146 33.8 29.8626 32.9481C28.2964 31.3821 26.2146 30.5199 24 30.5199C21.7851 30.5199 19.7034 31.3823 18.1373 32.9481C17.7113 33.3741 17.1528 33.5873 16.5946 33.5873C16.0363 33.5873 15.4778 33.3741 15.0518 32.9481C14.1997 32.0961 14.1997 30.7146 15.0516 29.8626C17.4417 27.4725 20.6197 26.1561 23.9998 26.1561C27.3799 26.1561 30.558 27.4725 32.9481 29.8626C33.8 30.7144 33.8 32.096 32.9481 32.9481ZM35.3658 21.4021C34.8247 21.9432 34.0742 22.2546 33.3092 22.2546C32.544 22.2546 31.7934 21.9432 31.2522 21.4021C30.7098 20.8611 30.4001 20.1105 30.4001 19.3455C30.4001 18.5804 30.7098 17.8297 31.2522 17.2885C31.7934 16.7476 32.5425 16.4364 33.3092 16.4364C34.0742 16.4364 34.8247 16.7476 35.3658 17.2885C35.9083 17.8297 36.2183 18.5804 36.2183 19.3455C36.2183 20.1105 35.9082 20.8611 35.3658 21.4021Z" fill="var(--fill-0, #878787)"/>
</svg>
