<svg preserveAspectRatio="none" width="100%" height="100%" overflow="visible" style="display: block;" viewBox="0 0 48 48" fill="none" xmlns="http://www.w3.org/2000/svg">
<path id="Vector" d="M24 0C10.7664 0 0 10.7664 0 24C0 37.2336 10.7664 48 24 48C37.2338 48 48 37.2336 48 24C48 10.7664 37.2338 0 24 0ZM11.7818 19.3455C11.7818 18.5804 12.0931 17.8297 12.634 17.2885C13.1753 16.7476 13.9244 16.4364 14.6909 16.4364C15.456 16.4364 16.2066 16.7476 16.7477 17.2885C17.2901 17.8297 17.6 18.5804 17.6 19.3455C17.6 20.1105 17.2901 20.8611 16.7477 21.4021C16.2066 21.9432 15.456 22.2546 14.6909 22.2546C13.9258 22.2546 13.1753 21.9432 12.634 21.4021C12.0931 20.8611 11.7818 20.1105 11.7818 19.3455ZM15.0516 29.7952C15.9036 28.9434 17.2851 28.9434 18.1371 29.7952C19.7033 31.3613 21.7851 32.2234 23.9997 32.2234C26.2146 32.2234 28.2963 31.3611 29.8624 29.7952C30.2884 29.3692 30.8469 29.1561 31.4051 29.1561C31.9634 29.1561 32.522 29.3692 32.948 29.7952C33.8 30.6472 33.8 32.0288 32.9481 32.8808C30.558 35.2709 27.38 36.5873 23.9999 36.5872C20.6198 36.5872 17.4417 35.2709 15.0516 32.8808C14.1997 32.0289 14.1997 30.6474 15.0516 29.7952ZM35.3658 21.4021C34.8247 21.9432 34.0742 22.2546 33.3092 22.2546C32.544 22.2546 31.7934 21.9432 31.2522 21.4021C30.7098 20.8611 30.4001 20.1105 30.4001 19.3455C30.4001 18.5804 30.7098 17.8297 31.2522 17.2885C31.7934 16.7476 32.5425 16.4364 33.3092 16.4364C34.0742 16.4364 34.8247 16.7476 35.3658 17.2885C35.9083 17.8297 36.2183 18.5804 36.2183 19.3455C36.2183 20.1105 35.9082 20.8611 35.3658 21.4021Z" fill="var(--fill-0, white)"/>
</svg>
