<?xml version="1.0" encoding="UTF-8"?>
<svg id="Layer_1" data-name="Layer 1" xmlns="http://www.w3.org/2000/svg" viewBox="0 0 480 480">
  <defs>
    <style>
      .cls-1 {
        fill: #939393;
      }

      .cls-2 {
        fill: #ededed;
      }
    </style>
  </defs>
  <rect class="cls-2" x="0" width="480" height="480"/>
  <g id="Group-6">
    <path id="Path-3-Copy-12" class="cls-1" d="M167.06,147.19c6.38,0,12.75,1.88,18,5.44l110.25,75v23.62l-122.25-80.44c-1.88-1.12-3.94-1.88-6-1.88-6,0-10.88,4.87-10.88,10.88v120c0,6,4.87,10.88,10.88,10.88h5.81v22.13h-5.81c-18.19,0-32.81-14.63-32.81-32.81v-120c0-18.19,14.63-32.81,32.81-32.81Z"/>
    <path id="Path-3-Copy-13" class="cls-1" d="M313.12,332.81c-6.37,0-12.75-1.88-18-5.44l-110.25-75v-23.62l122.25,80.25c1.88,1.13,3.94,1.88,6,1.88,6,0,10.88-4.88,10.88-10.88v-120c0-6-4.88-10.88-10.88-10.88h-5.81v-21.94h5.81c18.19,0,32.81,14.63,32.81,32.81v120c0,18.19-14.63,32.81-32.81,32.81h0Z"/>
  </g>
</svg>