<svg width="900" height="600" viewBox="0 0 900 600" fill="none" xmlns="http://www.w3.org/2000/svg">
<rect width="900" height="600" fill="#F9F9F9"/>
<path fill-rule="evenodd" clip-rule="evenodd" d="M420 249C406.745 249 396 259.745 396 273V327C396 340.255 406.745 351 420 351H480C493.255 351 504 340.255 504 327V273C504 259.745 493.255 249 480 249H420ZM483.748 281.838C483.748 289.294 477.704 295.338 470.248 295.338C462.792 295.338 456.748 289.294 456.748 281.838C456.748 274.383 462.792 268.338 470.248 268.338C477.704 268.338 483.748 274.383 483.748 281.838ZM429.953 295.851C432.315 292.177 437.685 292.177 440.047 295.851L456.057 320.755C458.624 324.749 455.757 330 451.01 330H418.99C414.243 330 411.376 324.749 413.943 320.755L429.953 295.851Z" fill="black"/>
</svg>
