<?xml version="1.0" encoding="UTF-8"?>
<svg id="Layer_1" data-name="Layer 1" xmlns="http://www.w3.org/2000/svg" viewBox="0 0 480 360">
  <defs>
    <style>
      .cls-1 {
        fill: #939393;
      }

      .cls-2 {
        fill: #ededed;
      }
    </style>
  </defs>
  <rect class="cls-2" width="480" height="360"/>
  <g id="Group-6">
    <path id="Path-3-Copy-12" class="cls-1" d="M204.59,135c3.09,0,6.18.91,8.73,2.64l53.45,36.36v11.45l-59.27-39c-.91-.55-1.91-.91-2.91-.91-2.91,0-5.27,2.36-5.27,5.27v58.18c0,2.91,2.36,5.27,5.27,5.27h2.82v10.73h-2.82c-8.82,0-15.91-7.09-15.91-15.91v-58.18c0-8.82,7.09-15.91,15.91-15.91Z"/>
    <path id="Path-3-Copy-13" class="cls-1" d="M275.41,225c-3.09,0-6.18-.91-8.73-2.64l-53.45-36.36v-11.45l59.27,38.91c.91.55,1.91.91,2.91.91,2.91,0,5.27-2.36,5.27-5.27v-58.18c0-2.91-2.36-5.27-5.27-5.27h-2.82v-10.64h2.82c8.82,0,15.91,7.09,15.91,15.91v58.18c0,8.82-7.09,15.91-15.91,15.91h0Z"/>
  </g>
</svg>