<?xml version="1.0" encoding="UTF-8"?>
<svg id="Layer_1" xmlns="http://www.w3.org/2000/svg" version="1.1" viewBox="0 0 256 256">
  <!-- Generator: Adobe Illustrator 29.5.1, SVG Export Plug-In . SVG Version: 2.1.0 Build 141)  -->
  <defs>
    <style>
      .st0 {
        fill: #cecece;
      }
    </style>
  </defs>
  <g id="Group-6">
    <path id="Path-3-Copy-12" class="st0" d="M89.1,78.5c3.4,0,6.8,1,9.6,2.9l58.8,40v12.6l-65.2-42.9c-1-.6-2.1-1-3.2-1-3.2,0-5.8,2.6-5.8,5.8v64c0,3.2,2.6,5.8,5.8,5.8h3.1v11.8h-3.1c-9.7,0-17.5-7.8-17.5-17.5v-64c0-9.7,7.8-17.5,17.5-17.5Z"/>
    <path id="Path-3-Copy-13" class="st0" d="M167,177.5c-3.4,0-6.8-1-9.6-2.9l-58.8-40v-12.6l65.2,42.8c1,.6,2.1,1,3.2,1,3.2,0,5.8-2.6,5.8-5.8v-64c0-3.2-2.6-5.8-5.8-5.8h-3.1v-11.7h3.1c9.7,0,17.5,7.8,17.5,17.5v64c0,9.7-7.8,17.5-17.5,17.5Z"/>
  </g>
</svg>