<svg preserveAspectRatio="none" width="100%" height="100%" overflow="visible" style="display: block;" viewBox="0 0 50.0002 50.0001" fill="none" xmlns="http://www.w3.org/2000/svg">
<g id="Group">
<path id="Vector" d="M22.0702 50.0001C34.1859 50.0001 44.0428 40.0994 44.0428 27.9298C44.0428 15.7862 34.2154 5.95728 22.0702 5.95728C9.90065 5.95728 0 15.8142 0 27.9298C0 40.0763 9.92496 50.0001 22.0702 50.0001ZM22.0702 8.88695C32.5705 8.88695 41.1131 17.4296 41.1131 27.9298C41.1131 38.484 32.5705 47.0704 22.0702 47.0704C11.5161 47.0704 2.92968 38.484 2.92968 27.9298C2.92968 17.4296 11.5161 8.88695 22.0702 8.88695Z" fill="var(--fill-0, #0F75FF)"/>
<path id="Vector_2" d="M22.0703 41.1132C29.3298 41.1132 35.2538 35.2091 35.2538 27.9297C35.2538 27.1207 34.5979 26.4648 33.789 26.4648H10.3516C9.54258 26.4648 8.88672 27.1207 8.88672 27.9297C8.88672 35.2125 14.8137 41.1132 22.0703 41.1132ZM17.3091 37.009C18.6216 35.8803 20.2903 35.2539 22.0703 35.2539C23.8502 35.2539 25.5189 35.8803 26.8314 37.009C25.4077 37.7586 23.7878 38.1835 22.0703 38.1835C20.3527 38.1835 18.7328 37.7586 17.3091 37.009ZM32.2198 29.3945C31.8927 31.672 30.8139 33.7097 29.2443 35.2485C27.3403 33.3745 24.7986 32.3242 22.0704 32.3242C19.3421 32.3242 16.8004 33.3745 14.8965 35.2485C13.3268 33.7096 12.248 31.6719 11.9209 29.3945H32.2198Z" fill="var(--fill-0, #0F75FF)"/>
<path id="Vector_3" d="M37.481 5.81974L38.1637 1.7048C38.2962 0.906654 37.7565 0.152357 36.9584 0.0199354C36.1603 -0.112291 35.406 0.427162 35.2735 1.22531L34.5908 5.34025C34.4584 6.13839 34.998 6.89269 35.7962 7.02511C36.5958 7.15753 37.3488 6.61662 37.481 5.81974Z" fill="var(--fill-0, #0F75FF)"/>
<path id="Vector_4" d="M42.9751 14.2038C43.1072 15.0002 43.8599 15.5417 44.6599 15.4092L48.7749 14.7265C49.5729 14.5941 50.1127 13.8398 49.9802 13.0416C49.8478 12.2436 49.0935 11.7039 48.2954 11.8362L44.1804 12.519C43.3823 12.6514 42.8426 13.4057 42.9751 14.2038Z" fill="var(--fill-0, #0F75FF)"/>
<path id="Vector_5" d="M43.8113 4.1172L39.6698 8.2587C39.0977 8.83068 39.0977 9.75821 39.6698 10.3303C40.2418 10.9024 41.1692 10.9025 41.7414 10.3303L45.8829 6.18878C46.4549 5.61681 46.4549 4.68927 45.8829 4.1172C45.3108 3.54513 44.3833 3.54503 43.8113 4.1172Z" fill="var(--fill-0, #0F75FF)"/>
<path id="Vector_6" d="M11.8164 22.0704C12.6254 22.0704 13.2812 21.4146 13.2812 20.6056C13.2812 19.7979 13.9384 19.1407 14.7461 19.1407C15.5538 19.1407 16.2109 19.7979 16.2109 20.6056C16.2109 21.4146 16.8668 22.0704 17.6758 22.0704C18.4848 22.0704 19.1406 21.4146 19.1406 20.6056C19.1406 18.1824 17.1692 16.2111 14.7461 16.2111C12.3229 16.2111 10.3516 18.1824 10.3516 20.6056C10.3516 21.4146 11.0074 22.0704 11.8164 22.0704Z" fill="var(--fill-0, #0F75FF)"/>
<path id="Vector_7" d="M26.4648 22.0704C27.2738 22.0704 27.9297 21.4146 27.9297 20.6056C27.9297 19.7979 28.5868 19.1407 29.3945 19.1407C30.2022 19.1407 30.8594 19.7979 30.8594 20.6056C30.8594 21.4146 31.5152 22.0704 32.3242 22.0704C33.1332 22.0704 33.7891 21.4146 33.7891 20.6056C33.7891 18.1824 31.8177 16.2111 29.3945 16.2111C26.9714 16.2111 25 18.1824 25 20.6056C25 21.4146 25.6559 22.0704 26.4648 22.0704Z" fill="var(--fill-0, #0F75FF)"/>
</g>
</svg>
