<svg preserveAspectRatio="none" width="100%" height="100%" overflow="visible" style="display: block;" viewBox="0 0 41.0156 50" fill="none" xmlns="http://www.w3.org/2000/svg">
<g id="Group">
<path id="Vector" d="M41.0156 25.0977C41.0156 22.7043 39.8615 20.5757 38.0808 19.2383C39.8615 17.9009 41.0156 15.7723 41.0156 13.3789C41.0156 9.34033 37.73 6.05469 33.6914 6.05469H27.832C27.0243 6.05469 26.3672 5.39756 26.3672 4.58984V1.46484C26.3672 0.655859 25.7113 0 24.9023 0H19.043C18.234 0 17.5781 0.655859 17.5781 1.46484V4.58984C17.5781 7.45645 18.761 10.0515 20.6637 11.9141H16.1133C12.0747 11.9141 8.78901 15.1997 8.78901 19.2383C8.78901 21.6316 9.94321 23.7603 11.7238 25.0977C9.94321 26.4351 8.78901 28.5637 8.78901 30.957C8.78901 34.9956 12.0747 38.2812 16.1133 38.2812H20.6637C18.761 40.1438 17.5781 42.7389 17.5781 45.6055V48.5352C17.5781 49.3441 18.234 50 19.043 50H24.9023C25.7113 50 26.3672 49.3441 26.3672 48.5352V45.6055C26.3672 44.7978 27.0243 44.1406 27.832 44.1406H33.6914C37.73 44.1406 41.0156 40.855 41.0156 36.8164C41.0156 34.423 39.8615 32.2944 38.0808 30.957C39.8615 29.6196 41.0156 27.491 41.0156 25.0977ZM33.6914 29.4922H16.1133C15.3043 29.4922 14.6484 30.148 14.6484 30.957C14.6484 31.766 15.3043 32.4219 16.1133 32.4219H33.6914C36.1145 32.4219 38.0859 34.3933 38.0859 36.8164C38.0859 39.2396 36.1145 41.2109 33.6914 41.2109H27.832C25.4089 41.2109 23.4375 43.1823 23.4375 45.6055V47.0703H20.5078V45.6055C20.5078 41.5669 23.7934 38.2812 27.832 38.2812H33.6914C34.5004 38.2812 35.1562 37.6254 35.1562 36.8164C35.1562 36.0074 34.5004 35.3516 33.6914 35.3516H16.1133C13.6901 35.3516 11.7187 33.3802 11.7187 30.957C11.7187 28.5339 13.6901 26.5625 16.1133 26.5625H33.6914C34.5004 26.5625 35.1562 25.9066 35.1562 25.0977C35.1562 24.2887 34.5004 23.6328 33.6914 23.6328H16.1133C13.6901 23.6328 11.7187 21.6614 11.7187 19.2383C11.7187 16.8151 13.6901 14.8438 16.1133 14.8438H33.6914C34.5004 14.8438 35.1562 14.1879 35.1562 13.3789C35.1562 12.5699 34.5004 11.9141 33.6914 11.9141H27.832C23.7934 11.9141 20.5078 8.62842 20.5078 4.58984V2.92969H23.4375V4.58984C23.4375 7.01299 25.4089 8.98438 27.832 8.98438H33.6914C36.1145 8.98438 38.0859 10.9558 38.0859 13.3789C38.0859 15.8021 36.1145 17.7734 33.6914 17.7734H16.1133C15.3043 17.7734 14.6484 18.4293 14.6484 19.2383C14.6484 20.0473 15.3043 20.7031 16.1133 20.7031H33.6914C36.1145 20.7031 38.0859 22.6745 38.0859 25.0977C38.0859 27.5208 36.1145 29.4922 33.6914 29.4922Z" fill="var(--fill-0, #0F75FF)"/>
<path id="Vector_2" d="M4.39453 17.7734H1.46484C0.65586 17.7734 0 18.4293 0 19.2383C0 20.0473 0.65586 20.7031 1.46484 20.7031H4.39453C5.20351 20.7031 5.85941 20.0473 5.85941 19.2383C5.85941 18.4293 5.20351 17.7734 4.39453 17.7734Z" fill="var(--fill-0, #0F75FF)"/>
<path id="Vector_3" d="M10.9863 10.3581C11.687 9.95362 11.9271 9.05772 11.5225 8.35713L10.0576 5.81993C9.65311 5.11924 8.75721 4.8793 8.05671 5.28379C7.35601 5.68829 7.11591 6.58418 7.52051 7.28477L8.98541 9.82198C9.38991 10.5228 10.2856 10.7627 10.9863 10.3581Z" fill="var(--fill-0, #0F75FF)"/>
<path id="Vector_4" d="M6.69691 12.1104L4.15967 10.6455C3.45889 10.2409 2.56309 10.481 2.15869 11.1817C1.7541 11.8823 1.99424 12.7782 2.69482 13.1826L5.23203 14.6475C5.93261 15.0521 6.82851 14.8119 7.23301 14.1114C7.63761 13.4107 7.39741 12.5148 6.69691 12.1104Z" fill="var(--fill-0, #0F75FF)"/>
</g>
</svg>
