<svg preserveAspectRatio="none" width="100%" height="100%" overflow="visible" style="display: block;" viewBox="0 0 42.4897 43.624" fill="none" xmlns="http://www.w3.org/2000/svg">
<g id="Group">
<path id="Vector" fill-rule="evenodd" clip-rule="evenodd" d="M17.4555 10.406H7.6665C6.5765 10.406 5.5725 10.997 5.0435 11.95L0.3765 20.356C-0.1255 21.262 -0.1255 22.363 0.3765 23.268L5.0435 31.674C5.5725 32.627 6.5765 33.218 7.6665 33.218H17.4555L22.3755 42.08C22.9045 43.033 23.9095 43.624 24.9985 43.624H34.8225C35.9125 43.624 36.9165 43.033 37.4455 42.08L42.1125 33.674C42.6155 32.769 42.6155 31.668 42.1125 30.762L37.1435 21.812L42.1125 12.862C42.6155 11.957 42.6155 10.856 42.1125 9.95L37.4455 1.544C36.9165 0.591 35.9125 0 34.8225 0H24.9985C23.9095 0 22.9045 0.591 22.3755 1.544L17.4555 10.406ZM35.4115 22.812H24.4105L19.1885 32.218L24.1245 41.11C24.3005 41.427 24.6355 41.624 24.9985 41.624H34.8225C35.1855 41.624 35.5205 41.427 35.6965 41.11L40.3635 32.704C40.5315 32.402 40.5315 32.035 40.3635 31.733L35.4115 22.812ZM17.4555 31.218L22.6775 21.812L17.4555 12.406H7.6665C7.3035 12.406 6.9685 12.603 6.7925 12.921L2.1255 21.327C1.9575 21.629 1.9575 21.996 2.1255 22.298L6.7925 30.704C6.9685 31.021 7.3035 31.218 7.6665 31.218H17.4555ZM35.4115 20.812L40.3635 11.891C40.5315 11.59 40.5315 11.223 40.3635 10.921L35.6965 2.515C35.5205 2.197 35.1855 2 34.8225 2H24.9985C24.6355 2 24.3005 2.197 24.1245 2.515L19.1885 11.406L24.4105 20.812H35.4115Z" fill="var(--fill-0, #0F75FF)"/>
</g>
</svg>
