<svg preserveAspectRatio="none" width="100%" height="100%" overflow="visible" style="display: block;" viewBox="0 0 48 48" fill="none" xmlns="http://www.w3.org/2000/svg">
<g id="icon-portable.svg">
<path id="Vector" d="M8.10619 39.498C8.17919 33.075 9.99719 26.787 13.3712 21.31L13.7492 20.754H18.5462L17.3832 16.994L17.7522 16.49C24.8242 6.74196 37.0272 3.74896 41.9452 2.91496C42.3722 2.84496 42.8092 2.87296 43.2232 2.99596C43.6372 3.11996 44.0182 3.33596 44.3362 3.62796C44.6542 3.92096 44.9022 4.28196 45.0602 4.68396C45.2182 5.08596 45.2832 5.51896 45.2492 5.94996C43.1232 35.744 13.5732 40.835 9.86719 41.352C7.00319 43.468 4.91219 44.774 4.66319 44.926C4.46519 45.053 4.23519 45.121 4.00019 45.123C3.72619 45.123 3.45919 45.034 3.24019 44.869C3.02119 44.704 2.86219 44.472 2.78719 44.208C2.71119 43.944 2.72419 43.663 2.82319 43.408C2.92219 43.152 3.10219 42.935 3.33519 42.791C3.39319 42.754 5.35019 41.529 8.10619 39.498ZM14.2302 37.931C23.1942 35.652 41.1332 28.291 42.7412 5.76596C42.7462 5.71196 42.7392 5.65696 42.7192 5.60596C42.6992 5.55596 42.6682 5.50996 42.6272 5.47396C42.5952 5.44196 42.5542 5.41796 42.5112 5.40496C42.4672 5.39196 42.4202 5.38896 42.3752 5.39796C37.8502 6.16396 26.7542 8.86696 20.1732 17.467L21.1522 20.655C21.2452 20.958 21.2652 21.278 21.2122 21.591C21.1592 21.903 21.0332 22.198 20.8442 22.453C20.6562 22.708 20.4112 22.915 20.1282 23.058C19.8452 23.201 19.5322 23.275 19.2152 23.275H15.1182C12.6122 27.64 11.1092 32.503 10.7112 37.511C16.1622 33.207 23.0532 26.802 25.5862 20.313C25.7102 20.006 25.9512 19.76 26.2552 19.629C26.5592 19.498 26.9032 19.492 27.2122 19.613C27.5212 19.733 27.7702 19.97 27.9052 20.273C28.0402 20.575 28.0502 20.919 27.9342 21.229C25.4842 27.51 19.5122 33.53 14.2302 37.931Z" fill="var(--fill-0, #0F75FF)"/>
</g>
</svg>
