<svg preserveAspectRatio="none" width="100%" height="100%" overflow="visible" style="display: block;" viewBox="0 0 48 48" fill="none" xmlns="http://www.w3.org/2000/svg">
<g id="icon-meditation.svg">
<path id="Vector" fill-rule="evenodd" clip-rule="evenodd" d="M20.5603 5.43506C18.1583 6.64106 16.5103 9.12606 16.5103 11.9961C16.5103 12.9281 16.8023 13.5071 17.1853 13.8661C17.3513 14.0211 17.5493 14.1431 17.7763 14.2301C17.8423 15.8421 18.3763 17.3031 19.2203 18.4531H17.1633V18.4551C16.1653 18.4261 14.6763 18.8151 13.6233 20.1791C12.9523 21.0491 12.4403 22.3391 12.4403 24.2341C12.4403 26.9861 12.1913 28.8921 11.3623 30.5051C10.6483 31.8941 9.51031 33.0541 7.80031 34.3691C7.38131 33.8881 6.73631 33.4451 5.78231 33.4451C4.83331 33.4451 4.12631 33.7231 3.61031 34.1321C2.81731 34.7591 2.44531 35.7301 2.44531 36.7381C2.44531 38.3281 3.99031 40.4341 6.28731 40.4341C6.34031 40.4341 6.39531 40.4331 6.45231 40.4311C6.10231 41.0401 5.90131 41.7451 5.90131 42.4961C5.90131 44.7871 7.76131 46.6471 10.0523 46.6471H20.5253C20.8373 46.6751 21.1633 46.6901 21.5053 46.6901C21.6063 46.6901 21.7043 46.6751 21.7963 46.6471H38.4963C40.7863 46.6471 42.6463 44.7871 42.6463 42.4961C42.6463 41.7381 42.4423 41.0271 42.0873 40.4151C44.1773 40.2041 45.5573 38.2411 45.5573 36.7381C45.5573 35.7301 45.1853 34.7591 44.3923 34.1321C43.8763 33.7231 43.1693 33.4451 42.2203 33.4451C41.2663 33.4451 40.6213 33.8881 40.2023 34.3691C38.4923 33.0541 37.3543 31.8941 36.6403 30.5051C35.8113 28.8921 35.5623 26.9861 35.5623 24.2341C35.5623 22.3391 35.0503 21.0491 34.3793 20.1791C33.3223 18.8101 31.8273 18.4231 30.8283 18.4551H30.8193C30.7983 18.4541 30.7763 18.4531 30.7553 18.4531H28.6453C29.5313 17.1701 30.1133 15.4191 30.2163 13.2331C30.4213 13.1241 30.6463 12.9531 30.8983 12.6971C31.4343 12.1521 31.6743 11.0781 31.2993 9.81806C30.8533 8.31806 29.5673 6.48206 27.4443 5.45406C27.4073 3.87206 26.9273 2.55006 25.9233 1.86006C25.4293 1.52006 24.8013 1.31006 24.0023 1.31006C23.2023 1.31006 22.5753 1.52006 22.0813 1.86006C21.0813 2.54806 20.6013 3.86206 20.5603 5.43506ZM14.3503 40.3461H10.0523C8.86531 40.3461 7.90131 41.3091 7.90131 42.4961C7.90131 43.6831 8.86531 44.6471 10.0523 44.6471H16.0673C14.8593 43.3601 14.4103 41.6941 14.3503 40.3461ZM16.3483 40.3461C16.3993 41.3121 16.7273 42.4921 17.6223 43.3771C18.2853 44.0331 19.2563 44.5061 20.6263 44.6471H38.4963C39.6833 44.6471 40.6463 43.6831 40.6463 42.4961C40.6463 41.3091 39.6833 40.3461 38.4963 40.3461H16.3483ZM16.1633 20.6551V29.7451C14.6183 36.4881 8.64431 38.4341 6.28731 38.4341C5.20931 38.4341 4.44531 37.4851 4.44531 36.7381C4.44531 36.3451 4.54131 35.9451 4.85131 35.7001C5.07031 35.5271 5.38031 35.4451 5.78231 35.4451C6.39431 35.4451 6.54831 36.0951 6.54831 36.0951C6.63531 36.4111 6.87231 36.6641 7.18131 36.7731C7.49031 36.8821 7.83331 36.8321 8.09931 36.6401C10.6273 34.8091 12.1903 33.2701 13.1413 31.4201C14.0923 29.5691 14.4403 27.3921 14.4403 24.2341C14.4403 22.0801 15.3103 21.0501 16.1633 20.6551ZM31.7553 20.6181C32.6343 20.9841 33.5623 22.0091 33.5623 24.2341C33.5623 27.3921 33.9103 29.5691 34.8613 31.4201C35.8123 33.2701 37.3753 34.8091 39.9033 36.6401C40.1693 36.8321 40.5123 36.8821 40.8213 36.7731C41.1303 36.6641 41.3673 36.4111 41.4543 36.0951C41.4543 36.0951 41.6083 35.4451 42.2203 35.4451C42.6223 35.4451 42.9323 35.5271 43.1513 35.7001C43.4613 35.9451 43.5573 36.3451 43.5573 36.7381C43.5573 37.4851 42.7933 38.4341 41.7153 38.4341C39.3133 38.4341 33.1533 36.4131 31.7553 29.3531V29.3221V20.6181ZM31.7553 34.6551V38.3461H35.4773C34.1243 37.4661 32.8093 36.2631 31.7553 34.6551ZM18.2473 20.4531V29.4471C18.2473 29.5101 18.2413 29.5731 18.2303 29.6341C18.2083 29.7451 18.1863 29.8551 18.1633 29.9641V38.3461H29.7553V29.4751C29.7553 29.4651 29.7553 29.4561 29.7553 29.4471V20.4531H28.6053V25.4391C28.6053 28.0041 26.5253 30.0841 23.9593 30.0841C21.3933 30.0841 19.3143 28.0041 19.3143 25.4391V20.4531H18.2473ZM16.1633 34.7811C15.1233 36.3271 13.8423 37.4901 12.5253 38.3461H16.1633V34.7811ZM21.3143 25.4391C21.3153 25.7491 21.3673 26.0571 21.4743 26.3481C21.6703 26.8841 22.0423 27.3481 22.5203 27.6591C22.7363 27.7991 22.9723 27.9071 23.2193 27.9791C23.4973 28.0601 23.7893 28.0941 24.0783 28.0821C24.3803 28.0681 24.6793 28.0031 24.9593 27.8891C25.2643 27.7641 25.5463 27.5811 25.7843 27.3541C26.0343 27.1151 26.2373 26.8281 26.3773 26.5131C26.5283 26.1751 26.6033 25.8081 26.6053 25.4391V20.3381C25.8043 20.7811 24.9193 21.0081 24.0013 21.0081C23.0443 21.0081 22.1313 20.7581 21.3143 20.3101V25.4391ZM28.2293 12.8131C27.8393 12.5811 27.2163 12.3271 26.0313 12.3271C25.0893 12.3271 24.0283 12.6831 22.9983 13.0691C21.8273 13.5091 20.6943 14.0001 19.7793 14.2341C19.9223 16.8661 21.7153 19.0081 24.0013 19.0081C26.3923 19.0081 28.1473 16.6851 28.2293 12.8131ZM29.4733 11.2291C29.2583 11.0881 28.9543 10.9071 28.6383 10.7741C28.0723 10.5371 27.2653 10.3271 26.0313 10.3271C24.8733 10.3271 23.5603 10.7221 22.2953 11.1971C21.1873 11.6131 20.1203 12.0881 19.2593 12.3031C19.0733 12.3491 18.9003 12.3821 18.7423 12.3931C18.6873 12.3961 18.6093 12.3901 18.5613 12.3851C18.5443 12.3081 18.5103 12.1371 18.5103 11.9961C18.5103 9.04906 20.8993 6.65906 23.8473 6.65906C25.2253 6.65906 26.3583 7.05106 27.2403 7.63706C28.4383 8.43106 29.1763 9.57006 29.4163 10.5131C29.4693 10.7181 29.4963 10.9101 29.4923 11.0821C29.4913 11.1261 29.4823 11.1821 29.4733 11.2291ZM25.3993 4.79406C25.2883 3.95006 24.9443 3.31006 24.0023 3.31006C23.0713 3.31006 22.7243 3.93406 22.6093 4.76306C23.0113 4.69506 23.4253 4.65906 23.8473 4.65906C24.3943 4.65906 24.9113 4.70606 25.3993 4.79406Z" fill="var(--fill-0, #0F75FF)"/>
</g>
</svg>
