<svg preserveAspectRatio="none" width="100%" height="100%" overflow="visible" style="display: block;" viewBox="0 0 48 49" fill="none" xmlns="http://www.w3.org/2000/svg">
<g id="icon-hepa-filtration.svg">
<path id="Vector" fill-rule="evenodd" clip-rule="evenodd" d="M4.12178 13.98L4.12478 13.983C4.25778 14.128 4.43078 14.233 4.62078 14.281C4.70078 14.301 4.78278 14.311 4.86478 14.311H12.4688L11.2198 15.559C10.8298 15.949 10.8288 16.582 11.2188 16.973C11.6098 17.363 12.2428 17.363 12.6338 16.973L15.4348 14.174C15.7308 14.001 15.9298 13.679 15.9298 13.311C15.9298 12.943 15.7308 12.622 15.4348 12.448L12.6338 9.64805C12.2428 9.25805 11.6098 9.25805 11.2188 9.64905C10.8288 10.039 10.8298 10.673 11.2198 11.063L12.4688 12.311H5.80078V6.30005H42.2008V42.7001H5.80078V36.7891H12.4688L11.2198 38.037C10.8298 38.427 10.8288 39.061 11.2188 39.451C11.6098 39.842 12.2428 39.842 12.6338 39.452L15.4358 36.6521C15.7308 36.4781 15.9298 36.1561 15.9298 35.7891C15.9298 35.4211 15.7308 35.099 15.4338 34.925L12.6338 32.127C12.2428 31.737 11.6098 31.737 11.2188 32.127C10.8288 32.518 10.8298 33.151 11.2198 33.541L12.4678 34.7891H5.06878C4.98378 34.7651 4.89378 34.752 4.80078 34.753C4.24878 34.753 3.80078 35.201 3.80078 35.753V43.7001C3.80078 44.2521 4.24878 44.7001 4.80078 44.7001H43.2008C43.7528 44.7001 44.2008 44.2521 44.2008 43.7001V5.30005C44.2008 4.74805 43.7528 4.30005 43.2008 4.30005H4.80078C4.24878 4.30005 3.80078 4.74805 3.80078 5.30005V13.246C3.80078 13.536 3.92478 13.797 4.12178 13.98ZM27.3788 10.356V38.744C27.3788 39.296 27.8268 39.744 28.3788 39.744C28.9308 39.744 29.3788 39.296 29.3788 38.744V10.356C29.3788 9.80405 28.9308 9.35605 28.3788 9.35605C27.8268 9.35605 27.3788 9.80405 27.3788 10.356ZM34.7378 10.356V38.744C34.7378 39.296 35.1858 39.744 35.7378 39.744C36.2898 39.744 36.7378 39.296 36.7378 38.744V10.356C36.7378 9.80405 36.2898 9.35605 35.7378 9.35605C35.1858 9.35605 34.7378 9.80405 34.7378 10.356ZM20.0198 10.356V38.744C20.0198 39.296 20.4678 39.744 21.0198 39.744C21.5718 39.744 22.0198 39.296 22.0198 38.744V10.356C22.0198 9.80405 21.5718 9.35605 21.0198 9.35605C20.4678 9.35605 20.0198 9.80405 20.0198 10.356ZM12.5188 23.55H4.86478C4.31278 23.55 3.86478 23.998 3.86478 24.55C3.86478 25.102 4.31278 25.55 4.86478 25.55H12.4178L11.2198 26.748C10.8298 27.138 10.8288 27.771 11.2188 28.162C11.6098 28.552 12.2428 28.552 12.6338 28.162L15.3318 25.466C15.6838 25.311 15.9298 24.959 15.9298 24.55C15.9298 24.278 15.8208 24.032 15.6448 23.851C15.6278 23.831 15.6098 23.811 15.5908 23.793L12.6338 20.837C12.2428 20.447 11.6098 20.448 11.2188 20.838C10.8288 21.228 10.8298 21.862 11.2198 22.252L12.5188 23.55Z" fill="var(--fill-0, #0F75FF)"/>
</g>
</svg>
