<svg preserveAspectRatio="none" width="100%" height="100%" overflow="visible" style="display: block;" viewBox="0 0 47.4306 50.0001" fill="none" xmlns="http://www.w3.org/2000/svg">
<g id="Group">
<path id="Vector" d="M5.28159 14.4449C5.47943 15.0688 6.05607 15.4673 6.67742 15.4672C6.8241 15.4672 6.97341 15.4449 7.12066 15.3982C7.89182 15.1537 8.31865 14.3303 8.07404 13.5592L6.64198 9.04384C6.51405 8.64064 6.21817 8.31243 5.83039 8.14359C5.44262 7.97485 5.00074 7.98178 4.61854 8.16292L3.38031 8.74961L2.89186 6.64913C2.70857 5.86118 1.9211 5.37087 1.13335 5.55416C0.345403 5.73735 -0.144817 6.52472 0.0383827 7.31267L0.938533 11.1833C1.03892 11.6149 1.32924 11.9779 1.72824 12.1705C2.12725 12.3633 2.59197 12.365 2.99244 12.1752L4.35673 11.5288L5.28159 14.4449Z" fill="var(--fill-0, #0F75FF)"/>
<path id="Vector_2" d="M47.3489 15.6358C47.203 15.2174 46.8756 14.8875 46.4583 14.7386L45.0365 14.231L46.4444 11.5151C46.8168 10.7969 46.5363 9.91286 45.8182 9.54052C45.0999 9.16817 44.2159 9.44863 43.8436 10.1668L41.6634 14.3722C41.4687 14.7478 41.4458 15.1891 41.6007 15.5826C41.7555 15.9763 42.0729 16.2837 42.4713 16.4259L43.7616 16.8866L42.6217 18.7173C42.1941 19.404 42.4042 20.3074 43.091 20.735C43.3319 20.885 43.5994 20.9566 43.8638 20.9566C44.3529 20.9566 44.831 20.7117 45.1086 20.2658L47.209 16.8924C47.4434 16.5162 47.4948 16.0542 47.3489 15.6358Z" fill="var(--fill-0, #0F75FF)"/>
<path id="Vector_3" d="M20.356 24.5744C20.74 24.5744 21.1234 24.4243 21.4108 24.1261C21.9722 23.5436 21.9551 22.6163 21.3726 22.055C20.2968 21.0183 19.7618 19.9576 19.7822 18.9023C19.8156 17.1739 21.2819 15.8313 21.3234 15.7937C21.9285 15.2618 21.9905 14.3405 21.4609 13.7321C20.9299 13.1219 20.0046 13.0578 19.3944 13.589C19.2939 13.6765 16.9311 15.7674 16.854 18.8092C16.8054 20.7263 17.6417 22.5281 19.3397 24.1643C19.6239 24.4383 19.9902 24.5744 20.356 24.5744Z" fill="var(--fill-0, #0F75FF)"/>
<path id="Vector_4" d="M26.7911 22.055C26.2086 22.6164 26.1914 23.5437 26.7528 24.1261C27.0403 24.4244 27.4237 24.5744 27.8076 24.5744C28.1735 24.5744 28.5397 24.4382 28.8239 24.1644C30.5219 22.528 31.3582 20.7263 31.3096 18.8093C31.2325 15.7674 28.8698 13.6765 28.7692 13.589C28.1589 13.0579 27.2337 13.1218 26.7027 13.7321C26.1716 14.3424 26.2357 15.2675 26.8459 15.7986C26.8607 15.8116 28.337 17.1442 28.3811 18.8835C28.4079 19.9452 27.873 21.0123 26.7911 22.055Z" fill="var(--fill-0, #0F75FF)"/>
<path id="Vector_5" d="M44.202 32.5196L44.1961 32.447C44.0145 30.235 43.2782 28.0829 42.0666 26.2233C41.7548 25.7447 41.1996 25.4993 40.6494 25.5714C38.1515 17.9881 37.2918 9.77796 38.1633 1.77433L38.1794 1.62883C38.2261 1.2144 38.094 0.79967 37.8161 0.488747C37.5383 0.177824 37.1409 0 36.724 0H11.4889C11.0753 0 10.681 0.174894 10.4033 0.481423C10.1257 0.787951 9.99043 1.1976 10.0313 1.6092C10.0317 1.61418 10.0817 2.12041 10.1532 2.96129C10.8052 10.6373 9.90753 18.248 7.48609 25.5933C6.90077 25.4643 6.28791 25.7051 5.95062 26.2135C4.75448 28.0173 3.99905 30.1081 3.76595 32.2598L3.74193 32.4816C3.67221 33.1266 4.03499 33.7407 4.63369 33.9908L5.36178 34.2949C4.99187 39.1259 6.33585 43.767 9.64143 49.1574C9.82153 49.5375 10.1595 49.8272 10.5716 49.9418C10.5988 49.9497 10.6263 49.9567 10.654 49.963C10.6616 49.9646 10.6691 49.9665 10.6768 49.9681C10.7759 49.9889 10.877 50.0001 10.9788 50.0001C11.0118 50.0001 11.0448 49.9989 11.0778 49.9967L37.2347 49.9999C37.7422 49.9999 38.2137 49.7372 38.4807 49.3055C41.8758 43.815 43.2339 39.1041 42.8097 34.2L43.3103 33.9891C43.8941 33.7433 44.2537 33.1506 44.202 32.5196ZM13.0903 2.92955H35.1096C34.4464 10.8706 35.3909 18.96 37.8609 26.468L29.9858 29.0813C26.1101 30.3959 21.8415 30.3948 17.9586 29.0754L10.2682 26.5114C12.7916 18.8574 13.741 10.9289 13.0903 2.92955ZM22.5826 47.0685L11.8025 47.0672C9.30853 42.854 8.1719 39.1869 8.2384 35.4962L22.5826 41.4869V47.0685ZM36.4092 47.0702L25.5122 47.0688V41.4837L39.953 35.4028C40.0465 38.2186 39.4352 41.9473 36.4092 47.0702ZM24.0451 38.9228L6.80634 31.7232C7.00233 30.7015 7.34831 29.7088 7.82944 28.7863L17.024 31.8519C21.5062 33.3749 26.4436 33.3763 30.9175 31.8587L40.17 28.7884C40.6389 29.7107 40.9703 30.7008 41.1511 31.7197L24.0451 38.9228Z" fill="var(--fill-0, #0F75FF)"/>
<path id="Vector_6" d="M24.1068 20.4055C24.9158 20.4055 25.5716 19.7497 25.5716 18.9407C25.5716 18.1318 24.9158 17.476 24.1068 17.476C23.2979 17.476 22.6421 18.1318 22.6421 18.9407C22.6421 19.7497 23.2979 20.4055 24.1068 20.4055Z" fill="var(--fill-0, #0F75FF)"/>
</g>
</svg>
