<svg preserveAspectRatio="none" width="100%" height="100%" overflow="visible" style="display: block;" viewBox="0 0 21.3333 18.669" fill="none" xmlns="http://www.w3.org/2000/svg">
<g id="Group">
<path id="Vector" d="M6.66665 0C7.37395 0 8.05215 0.28095 8.55225 0.78105C9.05235 1.28114 9.33335 1.95942 9.33335 2.66666V10.6667C9.33335 14.84 7.13335 17.5906 2.99067 18.6266C2.82035 18.6706 2.64302 18.6805 2.46889 18.6556C2.29476 18.6308 2.12728 18.5717 1.97608 18.4818C1.82488 18.3919 1.69297 18.2729 1.58793 18.1318C1.48289 17.9907 1.40681 17.8303 1.36407 17.6597C1.32132 17.4891 1.31276 17.3116 1.33888 17.1376C1.36499 16.9637 1.42527 16.7967 1.51623 16.6462C1.60719 16.4956 1.72705 16.3646 1.86889 16.2605C2.01072 16.1565 2.17174 16.0815 2.34267 16.0399C5.31205 15.2973 6.66665 13.604 6.66665 10.6667V9.33335H2.66667C1.9939 9.33355 1.34591 9.07945 0.8526 8.62205C0.3593 8.16455 0.05713 7.53755 0.00667 6.86665L0 6.66665V2.66666C0 1.95942 0.28095 1.28114 0.78105 0.78105C1.28115 0.28095 1.95942 0 2.66667 0H6.66665Z" fill="var(--fill-0, #0F75FF)"/>
<path id="Vector_2" d="M18.6667 0C19.374 0 20.0521 0.28095 20.5522 0.78105C21.0523 1.28114 21.3333 1.95942 21.3333 2.66666V10.6667C21.3333 14.84 19.1334 17.5906 14.9907 18.6266C14.8204 18.6706 14.643 18.6805 14.4688 18.6556C14.2947 18.6308 14.1272 18.5717 13.976 18.4818C13.8248 18.3919 13.6929 18.2729 13.5879 18.1318C13.4828 17.9907 13.4068 17.8303 13.364 17.6597C13.3213 17.4891 13.3128 17.3116 13.3389 17.1376C13.365 16.9637 13.4253 16.7967 13.5163 16.6462C13.6072 16.4956 13.7271 16.3646 13.8689 16.2605C14.0108 16.1565 14.1717 16.0815 14.3426 16.0399C17.312 15.2973 18.6667 13.604 18.6667 10.6667V9.33335H14.6667C13.994 9.33355 13.3459 9.07945 12.8526 8.62205C12.3592 8.16455 12.0571 7.53755 12.0066 6.86665L12 6.66665V2.66666C12 1.95942 12.2809 1.28114 12.781 0.78105C13.2811 0.28095 13.9595 0 14.6667 0H18.6667Z" fill="var(--fill-0, #0F75FF)"/>
</g>
</svg>
