<?xml version="1.0" encoding="UTF-8"?>
<svg id="Layer_1" data-name="Layer 1" xmlns="http://www.w3.org/2000/svg" viewBox="0 0 480 640">
  <defs>
    <style>
      .cls-1 {
        fill: #939393;
      }

      .cls-2 {
        fill: #ededed;
      }
    </style>
  </defs>
  <rect class="cls-2" width="480" height="640"/>
  <g id="Group-6">
    <path id="Path-3-Copy-12" class="cls-1" d="M198.29,267c3.64,0,7.28,1.07,10.28,3.11l62.96,42.83v13.49l-69.81-45.94c-1.07-.64-2.25-1.07-3.43-1.07-3.43,0-6.21,2.78-6.21,6.21v68.53c0,3.43,2.78,6.21,6.21,6.21h3.32v12.63h-3.32c-10.39,0-18.74-8.35-18.74-18.74v-68.53c0-10.39,8.35-18.74,18.74-18.74Z"/>
    <path id="Path-3-Copy-13" class="cls-1" d="M281.71,373c-3.64,0-7.28-1.07-10.28-3.11l-62.96-42.83v-13.49l69.81,45.83c1.07.64,2.25,1.07,3.43,1.07,3.43,0,6.21-2.78,6.21-6.21v-68.53c0-3.43-2.78-6.21-6.21-6.21h-3.32v-12.53h3.32c10.39,0,18.74,8.35,18.74,18.74v68.53c0,10.39-8.35,18.74-18.74,18.74h0Z"/>
  </g>
</svg>