<svg preserveAspectRatio="none" width="100%" height="100%" overflow="visible" style="display: block;" viewBox="0 0 34 20" fill="none" xmlns="http://www.w3.org/2000/svg">
<g id="Group 469509">
<path id="Rectangle 37" d="M0 2C0 0.895431 0.895431 0 2 0H32C33.1046 0 34 0.895431 34 2C34 3.10457 33.1046 4 32 4H2C0.89543 4 0 3.10457 0 2Z" fill="var(--fill-0, #020B1E)"/>
<path id="Rectangle 38" d="M0 10C0 8.89543 0.895431 8 2 8H32C33.1046 8 34 8.89543 34 10C34 11.1046 33.1046 12 32 12H2C0.89543 12 0 11.1046 0 10Z" fill="var(--fill-0, #020B1E)"/>
<path id="Rectangle 39" d="M0 18C0 16.8954 0.895431 16 2 16H32C33.1046 16 34 16.8954 34 18C34 19.1046 33.1046 20 32 20H2C0.89543 20 0 19.1046 0 18Z" fill="var(--fill-0, #020B1E)"/>
</g>
</svg>
