<svg preserveAspectRatio="none" width="100%" height="100%" overflow="visible" style="display: block;" viewBox="0 0 95.362 19.8059" fill="none" xmlns="http://www.w3.org/2000/svg">
<path id="Vector" d="M80.4566 3.07758V16.7777H86.9543C88.7689 16.7777 89.8204 16.4798 90.5846 15.785C91.5397 14.8914 92.0177 13.303 92.0177 9.92763C92.0177 6.55232 91.5397 4.96393 90.5846 4.07041C89.8204 3.37542 88.7689 3.07758 86.9543 3.07758H80.4566ZM89.3424 9.92763C89.3424 12.9059 89.1515 13.6009 88.5781 13.9979C88.1954 14.2958 87.7185 14.3951 86.7624 14.3951H83.132V5.36097H86.7624C87.7185 5.36097 88.1954 5.36097 88.5781 5.75801C89.1515 6.25448 89.3424 6.94936 89.3424 9.92763ZM95.362 19.8059H76.2988V0H95.362V19.8059ZM60.7245 5.36097V3.07758H71.9996V7.44572H69.6103V5.36097H65.0238V8.63696H68.6553V10.8211H65.0238V14.4944H69.7068V12.1117H72.0949V16.7777H60.7257V14.4944H62.5403V5.36097H60.7245ZM50.5011 13.2037C50.5011 14.6929 50.5954 15.785 50.7862 16.6784H53.3673C53.2708 15.9835 53.1765 14.6929 53.1765 13.0052C53.08 11.0197 52.5065 10.7218 51.1689 10.4241C52.6973 10.1261 53.3673 9.43127 53.3673 6.94936C53.3673 4.96393 53.0799 4.16962 52.5065 3.67326C52.1238 3.2761 51.4561 3.07758 50.4046 3.07758H42.3773V16.7777H45.0538V11.4167H48.7808C49.545 11.4167 49.8311 11.516 50.1184 11.7147C50.4057 11.9132 50.5011 12.211 50.5011 13.2037ZM45.0538 9.23275V5.46017H49.3542C49.9277 5.46017 50.1185 5.55949 50.2127 5.65881C50.4046 5.85733 50.5953 6.15516 50.5953 7.3464C50.5953 8.53775 50.4046 8.93491 50.2127 9.13343C50.1185 9.23275 49.9277 9.33195 49.3542 9.33195L45.0538 9.23275ZM57.1896 19.8059H38.0793V0H57.1413V19.8059H57.1896ZM33.11 14.4944V16.7777H24.0313V14.4944H27.2801V5.36097H24.0313V3.07758H33.1089V5.36097H29.8601V14.4944H33.11ZM17.7738 3.07758H15.2891L13.4734 13.8986L11.3715 3.87178C11.2761 3.17679 10.9888 3.07758 10.4154 3.07758H9.07764C8.50419 3.07758 8.21801 3.2761 8.12262 3.87178L6.02071 13.8986L4.20498 3.07758H1.52956L4.10956 16.0828C4.20495 16.6784 4.39574 16.7777 5.06459 16.7777H6.88032C7.45378 16.7777 7.64457 16.6784 7.83535 16.0828L9.84301 6.65152L11.8495 16.0828C11.9449 16.6784 12.1357 16.7777 12.8045 16.7777H14.5249C15.0984 16.7777 15.3846 16.6784 15.4799 16.0828L17.7738 3.07758ZM19.1114 19.8059H0V0H19.0632V19.8059H19.1114Z" fill="var(--fill-0, #D4D1CD)"/>
</svg>
