<svg preserveAspectRatio="none" width="100%" height="100%" overflow="visible" style="display: block;" viewBox="0 0 46.7617 19.6389" fill="none" xmlns="http://www.w3.org/2000/svg">
<g id="Group 1000002301">
<path id="Vector" d="M0 0V19.6389H5.97807V13.3006H11.413V7.92693H5.97807V5.35659H12.6429L12.2805 0H0Z" fill="var(--fill-0, #D4D1CD)"/>
<path id="Vector_2" d="M22.233 0C16.7622 0 12.3574 4.37947 12.3574 9.81944C12.3574 15.2594 16.7622 19.6389 22.233 19.6389C27.7038 19.6389 32.1085 15.2594 32.1085 9.81944C32.1085 4.37947 27.7038 0 22.233 0ZM22.233 4.04449C23.1566 4.04449 23.9006 4.78381 23.9006 5.70235V13.9364C23.9006 14.855 23.1566 15.5944 22.233 15.5944C21.3094 15.5944 20.5654 14.855 20.5654 13.9364V5.70235C20.5654 4.78381 21.3094 4.04449 22.233 4.04449Z" fill="var(--fill-0, #D4D1CD)"/>
<path id="Vector_3" d="M29.1484 0L34.7517 9.81944L29.1484 19.6389H35.5541L37.9545 15.4326L40.355 19.6389H46.7617L41.1585 9.81944L46.7617 0H40.355L37.9545 4.2062L35.5552 0H29.1484Z" fill="var(--fill-0, #D4D1CD)"/>
</g>
</svg>
