<svg preserveAspectRatio="none" width="100%" height="100%" overflow="visible" style="display: block;" viewBox="0 0 118.768 20.5697" fill="none" xmlns="http://www.w3.org/2000/svg">
<g id="Group">
<path id="Vector" d="M0 0.0720958V5.57547H3.68428V20.0873H9.91034V0.0720958M20.4234 7.67841H17.5089V5.56594H18.9757V0.0720958H11.2929V20.0873H17.5089V12.5188H20.4234V20.0873H26.6584V0.0720958H20.4234M28.0219 20.0873H39.5561V14.5742H33.9697V12.2441H37.5238V7.67841H33.9697V5.57547H39.5561V0.0720958H28.0219M88.5938 6.84471C88.5938 2.52539 85.4674 0.0720958 81.0323 0.0720958H74.1004V20.0777H80.3264V14.9532L83.8895 20.0777H90.9146L85.8658 12.4051C87.6849 11.3915 88.5938 9.54444 88.5938 6.84471ZM80.3085 9.06132V5.33868C81.1715 5.33868 82.2286 5.60398 82.5439 6.5701C82.572 6.65539 82.5911 6.7501 82.6192 6.84471C82.6192 6.85425 82.6192 6.87321 82.6281 6.88275C82.6371 6.97747 82.6561 7.09103 82.6561 7.20472C82.6561 8.69188 81.3286 9.06132 80.3085 9.06132ZM51.8871 12.263H51.8321L51.3866 10.6148L49.9939 5.58501H52.4437L54.0586 0.0720958H41.6255L48.7516 20.0777H55.1348L55.9047 17.937C55.9047 17.937 59.3195 8.4836 61.1847 3.33047V20.0777H72.7178V14.5648H67.1325V12.2346H70.6764V7.67841H67.1325V5.57547H72.7178V0.0625568H55.4872L51.8871 12.263ZM118.768 5.58501V0.0815224H107.235V20.0873H118.768V14.5742H113.174V12.2441H116.727V7.69737H113.174V5.58501" fill="var(--fill-0, #D4D1CD)"/>
<path id="Vector_2" d="M106.043 15.8904V7.73462H97.2456V12.2814H100.52V13.9011C100.271 14.1285 99.7324 14.2516 99.1758 14.2516C96.8932 14.2516 95.2043 12.4139 95.2043 10.1689C95.2043 7.92405 96.8461 5.9348 99.1287 5.9348C100.511 5.9348 103.787 5.94422 103.787 5.94422V0.0145111H102.292C99.5091 0.0145111 96.735 -0.212851 94.1831 1.13236C92.1698 2.19319 90.574 3.99301 89.729 6.13376C89.2375 7.39357 88.9883 8.75763 88.9883 10.1122C88.9883 15.7861 93.3481 20.5697 98.9985 20.5697C101.802 20.5697 104.539 19.4993 106.033 18.1637C106.042 16.7807 106.043 16.5723 106.043 15.8904Z" fill="var(--fill-0, #D4D1CD)"/>
</g>
</svg>
