<svg preserveAspectRatio="none" width="100%" height="100%" overflow="visible" style="display: block;" viewBox="0 0 124.502 19.8068" fill="none" xmlns="http://www.w3.org/2000/svg">
<g id="Group 1000002302">
<path id="Vector" d="M10.2771 7.67476H7.31736V14.4418C7.31736 15.5971 7.97498 15.8447 9.0439 15.8447C9.45497 15.8447 9.86604 15.7622 10.2771 15.7622V19.3106C9.37271 19.3106 8.46831 19.4757 7.64617 19.4757C3.53533 19.4757 2.4665 18.2378 2.4665 14.1942V7.67476H0V4.45634H2.4665V0H7.31736V4.45634H10.2771V7.67476ZM14.5523 13.1214C14.6346 15.1845 15.7856 16.5049 17.841 16.5049C18.9921 16.5049 20.1432 15.9271 20.6365 14.8543H25.1584C24.3362 18.3204 21.1297 19.8059 17.841 19.8059C12.9902 19.8059 9.70152 16.9175 9.70152 11.8834C9.70152 7.34461 13.3191 4.04359 17.6766 4.04359C23.0207 4.04359 25.6517 8.0873 25.405 13.1214H14.5523ZM20.5542 10.3979C20.4721 8.74761 19.321 7.34461 17.6766 7.34461C15.9501 7.34461 14.7991 8.58253 14.5523 10.3979H20.5542ZM36.0933 9.90294C36.0933 8.66501 34.9422 7.75725 33.709 7.75725C30.9958 7.75725 30.5847 10.068 30.5847 12.1311C30.5847 14.0291 31.4069 16.0096 33.4623 16.0096C35.1889 16.0096 36.011 15.0194 36.2577 13.4515H40.9441C40.5329 17.4951 37.4909 19.8059 33.5445 19.8059C29.1047 19.8059 25.7339 16.7524 25.7339 12.2136C25.7339 7.50969 28.6937 4.12619 33.5445 4.12619C37.2442 4.12619 40.5329 6.1068 40.8618 9.98542H36.0933V9.90294ZM41.1085 0H45.9593V6.51944H46.0414C46.7814 5.03395 48.7546 4.04359 50.5634 4.04359C55.4965 4.04359 55.9075 7.67476 55.9075 9.82034V19.3932H51.0566V12.2136C51.0566 10.1505 51.3034 8.08729 48.5902 8.08729C46.7814 8.08729 45.9593 9.65526 45.9593 11.3058V19.3932H41.1085V0ZM56.3186 4.45634H61.005V7.09705H61.0872C61.8271 5.19903 63.4715 4.20867 65.5269 4.20867C65.938 4.20867 66.2668 4.20867 66.6779 4.29127V8.74761C66.0202 8.58253 65.4447 8.49993 64.7869 8.49993C62.4027 8.49993 61.1694 10.1505 61.1694 12.0485V19.3932H56.3186V4.45634ZM66.6779 9.07766C66.7601 7.09705 67.6645 5.85912 68.98 5.11644C70.2955 4.37375 72.022 4.04359 73.6664 4.04359C77.2017 4.04359 80.5727 4.78628 80.5727 8.99517V15.5146C80.5727 16.7524 80.5727 18.1553 81.1481 19.3106H76.2973C76.1329 18.8155 76.0507 18.4029 76.0507 17.9079C74.7352 19.3106 72.9264 19.8059 71.1176 19.8059C68.3223 19.8059 66.0203 18.4029 66.0203 15.267C66.0203 10.3979 71.2821 10.8107 74.6529 10.068C75.4751 9.90294 75.9684 9.57278 75.9684 8.66501C75.9684 7.50969 74.6529 7.09705 73.5841 7.09705C72.2687 7.09705 71.3643 7.67476 71.1176 8.99517H66.6779V9.07766ZM72.9264 16.835C75.2285 16.835 76.0507 15.5146 75.8863 12.4612C75.2285 12.8738 73.913 12.9563 72.9264 13.2864C71.8576 13.534 70.9532 14.0291 70.9532 15.1845C70.9532 16.3398 71.8576 16.835 72.9264 16.835ZM96.2757 19.3932H91.6718V17.6602H91.5895C91.1556 18.3326 90.558 18.8826 89.8529 19.2581C89.1477 19.6336 88.3593 19.8221 87.5607 19.8059C82.8747 19.8059 80.9015 15.7622 80.9015 11.6359C80.9015 7.75725 82.9568 4.12619 87.1501 4.12619C88.9588 4.12619 90.356 4.78628 91.3426 6.18928H91.4249V0H96.2757V19.3932ZM85.7523 11.801C85.7523 13.864 86.4918 16.0922 88.7119 16.0922C91.0966 16.0922 91.5895 13.864 91.5895 11.966C91.5895 9.82034 90.8498 7.83984 88.7119 7.83984C86.4918 7.75725 85.7523 9.90294 85.7523 11.801ZM97.0164 9.07766C97.0986 7.09705 98.003 5.85912 99.3178 5.11644C100.634 4.37375 102.36 4.04359 104.004 4.04359C107.54 4.04359 110.91 4.78628 110.91 8.99517V15.5146C110.91 16.7524 110.91 18.1553 111.487 19.3106H106.635C106.472 18.8155 106.388 18.4029 106.388 17.9079C105.073 19.3106 103.182 19.8059 101.456 19.8059C98.6604 19.8059 96.358 18.4029 96.358 15.267C96.358 10.3979 101.62 10.8107 104.99 10.068C105.814 9.90294 106.307 9.57278 106.307 8.66501C106.307 7.50969 104.99 7.09705 103.922 7.09705C102.607 7.09705 101.703 7.67476 101.456 8.99517H97.0164V9.07766ZM103.264 16.835C105.567 16.835 106.388 15.5146 106.225 12.4612C105.567 12.8738 104.251 12.9563 103.264 13.2864C102.195 13.534 101.291 14.0291 101.291 15.1845C101.209 16.3398 102.195 16.835 103.264 16.835ZM111.651 4.45634H116.337V7.09705H116.42C117.16 5.19903 118.804 4.20867 120.858 4.20867C121.27 4.20867 122.093 4.20867 122.502 4.29127V8.74761C121.846 8.58253 120.858 8.49993 120.202 8.49993C117.817 8.49993 116.583 10.1505 116.583 12.0485V19.3932H111.733V4.45634H111.651Z" fill="var(--fill-0, #D4D1CD)"/>
<path id="Vector_2" d="M119.65 14.5242H124.502V19.3932H119.65V14.5242Z" fill="var(--fill-0, #D4D1CD)"/>
</g>
</svg>
