<?xml version="1.0" encoding="UTF-8"?>
<svg id="Layer_1" data-name="Layer 1" xmlns="http://www.w3.org/2000/svg" viewBox="0 0 480 480">
  <defs>
    <style>
      .cls-1 {
        fill: #939393;
      }

      .cls-2 {
        fill: #ededed;
      }
    </style>
  </defs>
  <rect class="cls-2" x="0" y="0" width="480" height="480"/>
  <g id="Group-6">
    <path id="Path-3-Copy-12" class="cls-1" d="M201.9,191.58c3.33,0,6.65.98,9.39,2.84l57.52,39.13v12.33l-63.78-41.96c-.98-.59-2.05-.98-3.13-.98-3.13,0-5.67,2.54-5.67,5.67v62.6c0,3.13,2.54,5.67,5.67,5.67h3.03v11.54h-3.03c-9.49,0-17.12-7.63-17.12-17.12v-62.6c0-9.49,7.63-17.12,17.12-17.12Z"/>
    <path id="Path-3-Copy-13" class="cls-1" d="M278.1,288.42c-3.33,0-6.65-.98-9.39-2.84l-57.52-39.13v-12.33l63.78,41.87c.98.59,2.05.98,3.13.98,3.13,0,5.67-2.54,5.67-5.67v-62.6c0-3.13-2.54-5.67-5.67-5.67h-3.03v-11.44h3.03c9.49,0,17.12,7.63,17.12,17.12v62.6c0,9.49-7.63,17.12-17.12,17.12h0Z"/>
  </g>
</svg>