<svg width="373" height="41" viewBox="0 0 373 41" fill="none" xmlns="http://www.w3.org/2000/svg">
<path d="M315.802 15.0768H311.202C310.888 15.0768 310.62 15.3213 310.571 15.654L308.71 28.2743C308.678 28.4982 308.821 28.7078 309.03 28.743C309.05 28.7462 309.069 28.748 309.09 28.748H311.286C311.601 28.748 311.868 28.5028 311.917 28.1701L312.419 24.766C312.468 24.4337 312.736 24.1884 313.05 24.1881H314.506C317.536 24.1881 319.285 22.6194 319.742 19.5104C319.948 18.1502 319.75 17.0815 319.155 16.333C318.501 15.5113 317.342 15.0764 315.803 15.0764L315.802 15.0768ZM316.332 19.6862C316.081 21.4521 314.82 21.4521 313.6 21.4521H312.906L313.393 18.1541C313.423 17.9548 313.583 17.8078 313.772 17.8078H314.09C314.92 17.8078 315.704 17.8078 316.109 18.3146C316.35 18.6167 316.424 19.0659 316.332 19.6862H316.332ZM329.551 19.6292H327.349C327.16 19.6292 327 19.7762 326.97 19.9755L326.873 20.6346L326.719 20.3958C326.242 19.6552 325.179 19.4079 324.117 19.4079C321.683 19.4079 319.604 21.3805 319.199 24.1475C318.989 25.5276 319.288 26.8476 320.02 27.7679C320.691 28.6142 321.652 28.9669 322.794 28.9669C324.755 28.9669 325.843 27.6177 325.843 27.6177L325.745 28.2726C325.711 28.4964 325.854 28.7067 326.063 28.7423C326.083 28.7459 326.103 28.7473 326.122 28.7473H328.107C328.421 28.7473 328.689 28.5021 328.738 28.1694L329.929 20.1029C329.962 19.8801 329.82 19.6702 329.612 19.6346C329.592 19.631 329.572 19.6292 329.551 19.6292ZM326.481 24.2162C326.268 25.5625 325.27 26.4665 323.996 26.4665C323.356 26.4665 322.845 26.2469 322.517 25.8308C322.191 25.4177 322.067 24.8297 322.171 24.1749C322.37 22.84 323.385 21.9065 324.639 21.9065C325.265 21.9065 325.773 22.129 326.108 22.5485C326.444 22.9724 326.577 23.5639 326.481 24.2158L326.481 24.2162ZM341.283 19.6292H339.069C338.857 19.6296 338.659 19.742 338.54 19.9292L335.487 24.7408L334.193 20.1171C334.111 19.8275 333.862 19.6292 333.58 19.6292H331.404C331.192 19.6285 331.021 19.8118 331.02 20.0385C331.02 20.084 331.027 20.1289 331.04 20.1719L333.479 27.8273L331.186 31.2894C331.064 31.4741 331.104 31.7303 331.277 31.8613C331.342 31.9108 331.42 31.9371 331.499 31.9371H333.71C333.92 31.9371 334.116 31.8278 334.235 31.6435L341.597 20.273C341.718 20.0869 341.675 19.8314 341.501 19.7022C341.437 19.6545 341.36 19.6289 341.282 19.6289L341.283 19.6292Z" fill="#253B80"/>
<path d="M348.611 15.0766H344.011C343.696 15.0766 343.429 15.3215 343.38 15.6539L341.52 28.2742C341.487 28.4977 341.629 28.7073 341.837 28.7426C341.857 28.7458 341.877 28.7475 341.897 28.7475H344.258C344.478 28.7475 344.665 28.5756 344.7 28.3433L345.227 24.7659C345.276 24.4335 345.544 24.1883 345.858 24.188H347.314C350.345 24.188 352.093 22.6192 352.55 19.5102C352.756 18.15 352.558 17.0813 351.963 16.3329C351.31 15.5112 350.151 15.0763 348.611 15.0763L348.611 15.0766ZM349.142 19.686C348.891 21.4519 347.63 21.4519 346.41 21.4519H345.716L346.204 18.154C346.233 17.9547 346.393 17.8077 346.582 17.8077H346.9C347.729 17.8077 348.514 17.8077 348.918 18.3145C349.16 18.6166 349.233 19.0657 349.141 19.686H349.142ZM362.36 19.6291H360.159C359.97 19.6284 359.809 19.7757 359.781 19.9754L359.683 20.6345L359.529 20.3957C359.052 19.6551 357.989 19.4077 356.928 19.4077C354.494 19.4077 352.416 21.3804 352.01 24.1474C351.801 25.5275 352.099 26.8475 352.83 27.7678C353.503 28.6141 354.462 28.9668 355.605 28.9668C357.566 28.9668 358.653 27.6176 358.653 27.6176L358.555 28.2724C358.522 28.4963 358.664 28.7066 358.873 28.7422C358.893 28.7458 358.914 28.7475 358.934 28.7472H360.918C361.232 28.7472 361.5 28.502 361.549 28.1692L362.74 20.1028C362.772 19.8786 362.628 19.6686 362.419 19.6341C362.399 19.6309 362.38 19.6291 362.36 19.6295V19.6291ZM359.29 24.2161C359.078 25.5624 358.078 26.4663 356.804 26.4663C356.166 26.4663 355.654 26.2467 355.325 25.8307C355 25.4175 354.877 24.8296 354.98 24.1748C355.18 22.8399 356.194 21.9064 357.448 21.9064C358.074 21.9064 358.582 22.1288 358.917 22.5484C359.254 22.9723 359.387 23.5637 359.289 24.2157L359.29 24.2161ZM364.957 15.4229L363.069 28.2742C363.036 28.4977 363.178 28.7073 363.387 28.7426C363.407 28.7458 363.427 28.7475 363.447 28.7475H365.344C365.66 28.7475 365.928 28.5027 365.976 28.1696L367.838 15.55C367.871 15.3261 367.728 15.1161 367.519 15.0809C367.499 15.0777 367.48 15.0759 367.46 15.0759H365.334C365.146 15.0766 364.986 15.2236 364.956 15.4229H364.957Z" fill="#179BD7"/>
<path d="M289.608 31.2004L289.96 28.8096L289.176 28.79H285.435L288.035 11.1499C288.051 11.0385 288.141 10.9563 288.246 10.957H294.555C296.649 10.957 298.095 11.4232 298.849 12.3439C299.203 12.7756 299.428 13.2269 299.538 13.7233C299.652 14.2443 299.654 14.8668 299.542 15.6262L299.534 15.6817V16.1682L299.888 16.3828C300.158 16.5291 300.401 16.7273 300.605 16.9672C300.907 17.3362 301.103 17.8057 301.186 18.3619C301.271 18.9342 301.243 19.615 301.103 20.3854C300.942 21.272 300.68 22.0442 300.328 22.6759C300.017 23.2421 299.599 23.7322 299.101 24.1151C298.633 24.4706 298.076 24.7404 297.448 24.9134C296.838 25.0831 296.144 25.1689 295.382 25.1689H294.891C294.539 25.1689 294.198 25.3041 293.931 25.5468C293.663 25.792 293.486 26.1305 293.43 26.5024L293.394 26.7177L292.772 30.9313L292.744 31.0861C292.737 31.1353 292.724 31.1595 292.705 31.1762C292.687 31.1922 292.664 31.2011 292.641 31.2014H289.609L289.608 31.2004Z" fill="#253B80"/>
<path d="M300.223 15.7375C300.204 15.8664 300.183 15.9981 300.158 16.1333C299.326 20.7039 296.48 22.2826 292.844 22.2826H290.993C290.549 22.2826 290.174 22.6282 290.105 23.0972L289.157 29.528L288.889 31.3509C288.848 31.6274 289.024 31.8868 289.283 31.9306C289.307 31.9349 289.332 31.9366 289.357 31.9366H292.64C293.028 31.9366 293.359 31.6345 293.42 31.2242L293.452 31.0459L294.07 26.8489L294.11 26.6187C294.17 26.2069 294.501 25.9048 294.89 25.9048H295.381C298.562 25.9048 301.052 24.5232 301.779 20.5249C302.083 18.8547 301.926 17.46 301.121 16.4792C300.866 16.1756 300.562 15.9247 300.223 15.7379V15.7375Z" fill="#179BD7"/>
<path d="M299.353 15.366C299.087 15.2838 298.817 15.2197 298.543 15.1738C298.004 15.0852 297.458 15.0425 296.912 15.0464H291.967C291.578 15.0464 291.247 15.3492 291.187 15.7603L290.135 22.889L290.105 23.0968C290.173 22.6278 290.55 22.2818 290.993 22.2822H292.844C296.48 22.2822 299.326 20.7024 300.158 16.1329C300.183 15.9977 300.204 15.866 300.222 15.7372C300.003 15.614 299.774 15.5108 299.538 15.4286C299.476 15.4065 299.414 15.3859 299.352 15.366H299.353Z" fill="#222D65"/>
<path d="M291.187 15.7604C291.246 15.349 291.577 15.0457 291.967 15.0472H296.912C297.497 15.0472 298.044 15.0881 298.543 15.1746C298.881 15.2315 299.214 15.3162 299.54 15.4287C299.785 15.5159 300.013 15.6187 300.224 15.7372C300.471 14.0482 300.222 12.8983 299.368 11.857C298.427 10.7107 296.728 10.22 294.555 10.22H288.246C287.802 10.22 287.424 10.5655 287.355 11.0353L284.727 28.8572C284.68 29.1736 284.882 29.4708 285.178 29.5209C285.206 29.5256 285.234 29.5281 285.262 29.5281H289.157L290.135 22.8894L291.187 15.7607V15.7604Z" fill="#253B80"/>
<path d="M182.316 24.7826H180.297C179.879 24.7826 179.531 24.5144 179.531 24.1791C179.531 23.7769 179.879 23.5757 180.297 23.5757H183.987L184.823 21.7669H180.297C178.417 21.7669 177.372 22.8382 177.372 24.2462C177.372 25.6542 178.417 26.5914 180.018 26.5914H182.037C182.456 26.5914 182.804 26.8596 182.804 27.1948C182.804 27.53 182.525 27.7982 182.037 27.7982H177.581V29.6071H182.037C183.917 29.6071 184.962 28.5357 184.962 27.0607C184.962 25.5857 183.987 24.7826 182.316 24.7826ZM174.17 24.7826H172.151C171.733 24.7826 171.385 24.5144 171.385 24.1791C171.385 23.7769 171.733 23.5757 172.151 23.5757H175.841L176.677 21.7669H172.151C170.271 21.7669 169.228 22.8382 169.228 24.2462C169.228 25.6542 170.271 26.5914 171.874 26.5914H173.893C174.311 26.5914 174.659 26.8596 174.659 27.1948C174.659 27.53 174.381 27.7982 173.893 27.7982H169.437V29.6071H173.893C175.773 29.6071 176.816 28.5357 176.816 27.0607C176.886 25.5871 175.912 24.7826 174.17 24.7826ZM161.291 29.6727H168.254V27.8639H163.519V26.5914H168.184V24.7826H163.519V23.5101H168.254V21.7012H161.291V29.6741V29.6727ZM156.974 25.1178H154.676V23.5101H156.974C157.601 23.5101 157.949 23.9124 157.949 24.3146C157.949 24.784 157.601 25.1192 156.974 25.1192M160.176 24.2476C160.176 22.7069 159.061 21.7012 157.251 21.7012H152.447V29.6741H154.675V26.928H155.511L158.018 29.6741H160.664L157.948 26.7939C159.34 26.4587 160.176 25.5215 160.176 24.2476ZM148.271 25.2533H145.903V23.5115H148.271C148.898 23.5115 149.246 23.9138 149.246 24.3831C149.246 24.8524 148.967 25.2547 148.271 25.2547M148.549 21.704H143.745V29.6769H145.973V27.0635H148.549C150.429 27.0635 151.544 25.9251 151.544 24.3831C151.474 22.7754 150.361 21.7026 148.549 21.7026M143.328 21.7026H140.475L138.386 24.1149L136.227 21.7026H133.303L136.992 25.6555L133.233 29.6755H136.087L138.315 27.1292L140.543 29.6755H143.466L139.707 25.5885L143.327 21.7026H143.328ZM125.993 29.6755H132.954V27.8667H128.15V26.5942H132.815V24.7853H128.15V23.5129H132.954V21.704H125.993V29.6769V29.6755ZM181.48 16.3404L178.069 11.5172H175.284V19.4231H177.512V14.3974L180.992 19.4217H183.639V11.5172H181.48V16.3418V16.3404ZM168.669 16.0722L169.852 13.3917L171.035 16.0722H168.668H168.669ZM168.39 11.5158L164.77 19.4887H167.207L167.904 17.881H171.733L172.43 19.4887H174.937L171.247 11.5172H168.392L168.39 11.5158ZM161.15 15.5358V15.4017C161.15 14.1963 161.847 13.3917 163.239 13.3917H165.676V11.4502H163.03C160.314 11.4502 158.922 13.1249 158.922 15.3361V15.4702C158.922 17.9495 160.523 19.356 162.96 19.356H163.727L164.631 17.5472H163.309C161.986 17.6142 161.15 16.8767 161.15 15.5372M155.581 19.4231H157.809V11.5172H155.581V19.4231ZM151.264 14.8667H148.966V13.259H151.264C151.891 13.259 152.239 13.6613 152.239 14.0636C152.239 14.5329 151.891 14.8681 151.264 14.8681M154.466 14.0636C154.466 12.5229 153.351 11.5172 151.542 11.5172H146.738V19.4901H148.966V16.677H149.802L152.309 19.4245H155.025L152.241 16.5443C153.633 16.2761 154.469 15.2718 154.469 14.065M138.316 19.4245H145.278V17.6156H140.543V16.3432H145.138V14.5343H140.543V13.2618H145.278V11.5172H138.316V19.4231V19.4245ZM131.285 16.4758L129.404 11.5172H125.993V19.4231H128.151V13.7284L130.31 19.4231H132.259L134.417 13.7284V19.4231H136.646V11.5172H133.165L131.285 16.4744V16.4758ZM119.31 16.0736L120.493 13.3931L121.676 16.0736H119.309H119.31ZM119.03 11.5172L115.41 19.4231H117.847L118.544 17.8154H122.373L123.069 19.4231H125.576L121.885 11.5172H119.03Z" fill="#006FCF"/>
<path d="M203.542 15.8394H200.236V27.4212H203.542C205.285 27.4212 206.568 26.9998 207.671 26.0785C208.993 24.9771 209.775 23.333 209.775 21.6303C209.755 18.2234 207.209 15.8394 203.542 15.8394ZM206.188 24.5358C205.487 25.1771 204.565 25.4571 203.102 25.4571H202.501V17.8035H203.102C204.565 17.8035 205.447 18.0635 206.188 18.7448C206.969 19.4462 207.431 20.5075 207.431 21.6303C207.431 22.733 206.969 23.8344 206.188 24.5358Z" fill="#231F20"/>
<path d="M213.059 15.8394H210.795V27.4212H213.059V15.8394Z" fill="#231F20"/>
<path d="M218.57 20.2888C217.207 19.7874 216.827 19.4474 216.827 18.8261C216.827 18.1047 217.528 17.5433 218.51 17.5433C219.191 17.5433 219.732 17.8233 220.332 18.4847L221.515 16.9419C220.554 16.1006 219.391 15.6592 218.108 15.6592C216.064 15.6592 214.501 17.0819 214.501 18.966C214.501 20.5688 215.223 21.3701 217.347 22.1315C218.228 22.4515 218.69 22.6529 218.91 22.7929C219.371 23.0928 219.591 23.5142 219.591 23.9956C219.591 24.937 218.85 25.6183 217.848 25.6183C216.767 25.6183 215.904 25.0769 215.384 24.0756L213.922 25.4783C214.963 27.0011 216.206 27.6824 217.928 27.6824C220.272 27.6824 221.915 26.1197 221.915 23.8756C221.915 22.0529 221.154 21.2301 218.568 20.2888H218.57Z" fill="#231F20"/>
<path d="M222.618 21.6302C222.618 25.0371 225.283 27.6611 228.729 27.6611C229.69 27.6611 230.532 27.4612 231.554 26.9798V24.3143C230.653 25.2156 229.852 25.577 228.829 25.577C226.565 25.577 224.942 23.9343 224.942 21.5902C224.942 19.2462 226.605 17.6234 228.729 17.6234C229.81 17.6234 230.613 18.0048 231.554 18.9262V16.2607C230.573 15.7593 229.752 15.5593 228.769 15.5593C225.362 15.5793 222.618 18.2648 222.618 21.6302Z" fill="#231F20"/>
<path d="M249.447 23.6144L246.362 15.8394H243.897L248.826 27.7226H250.028L255.038 15.8394H252.594L249.447 23.6144Z" fill="#231F20"/>
<path d="M256.059 27.4212H262.452V25.4585H258.303V22.3317H262.292V20.369H258.303V17.8035H262.452V15.8394H256.059V27.4212Z" fill="#231F20"/>
<path d="M271.388 19.2662C271.388 17.1021 269.905 15.8394 267.3 15.8394H263.953V27.4212H266.217V22.773H266.517L269.642 27.4212H272.428L268.781 22.5516C270.444 22.1917 271.387 21.0289 271.387 19.2662H271.388ZM266.86 21.1703H266.198V17.6635H266.9C268.303 17.6635 269.064 18.2449 269.064 19.3862C269.064 20.5275 268.303 21.1689 266.86 21.1689V21.1703Z" fill="#231F20"/>
<path d="M238.446 27.8211C241.844 27.8211 244.597 25.0672 244.597 21.6702C244.597 18.2731 241.844 15.5193 238.446 15.5193C235.049 15.5193 232.296 18.2731 232.296 21.6702C232.296 25.0672 235.049 27.8211 238.446 27.8211Z" fill="url(#paint0_linear_108_1396)"/>
<path opacity="0.65" d="M238.446 27.8211C241.844 27.8211 244.597 25.0672 244.597 21.6702C244.597 18.2731 241.844 15.5193 238.446 15.5193C235.049 15.5193 232.296 18.2731 232.296 21.6702C232.296 25.0672 235.049 27.8211 238.446 27.8211Z" fill="url(#paint1_linear_108_1396)"/>
<path fill-rule="evenodd" clip-rule="evenodd" d="M16.8157 29.8914H12.2021L8.74248 16.7677C8.57827 16.164 8.22961 15.6303 7.71674 15.3788C6.43681 14.7467 5.02641 14.2436 3.48779 13.9899V13.4846H10.9199C11.9457 13.4846 12.715 14.2436 12.8432 15.1251L14.6383 24.5917L19.2496 13.4846H23.735L16.8157 29.8914ZM26.2993 29.8914H21.9421L25.53 13.4846H29.8872L26.2993 29.8914ZM35.5243 18.0298C35.6525 17.1461 36.4218 16.6409 37.3193 16.6409C38.7297 16.514 40.2661 16.7677 41.5483 17.3977L42.3176 13.8652C41.0354 13.3599 39.625 13.1062 38.3451 13.1062C34.1161 13.1062 31.0389 15.3788 31.0389 18.5329C31.0389 20.9323 33.2186 22.1922 34.7572 22.9512C36.4218 23.708 37.0629 24.2132 36.9347 24.97C36.9347 26.1052 35.6525 26.6105 34.3726 26.6105C32.834 26.6105 31.2953 26.2321 29.8872 25.6L29.1179 29.1346C30.6565 29.7646 32.3211 30.0183 33.8597 30.0183C38.6015 30.143 41.5483 27.8726 41.5483 24.4648C41.5483 20.1733 35.5243 19.9218 35.5243 18.0298ZM56.7972 29.8914L53.3376 13.4846H49.6215C48.8522 13.4846 48.0829 13.9899 47.8264 14.7467L41.42 29.8914H45.9054L46.8007 27.4942H52.3118L52.8247 29.8914H56.7972ZM50.2626 17.903L51.5425 24.0865H47.9547L50.2626 17.903Z" fill="#172B85"/>
<path fill-rule="evenodd" clip-rule="evenodd" d="M86.023 28.9095C84.2615 30.3943 81.9765 31.2907 79.4797 31.2907C73.9084 31.2907 69.392 26.828 69.392 21.3231C69.392 15.8181 73.9084 11.3555 79.4797 11.3555C81.9765 11.3555 84.2615 12.2518 86.023 13.7366C87.7845 12.2518 90.0695 11.3555 92.5664 11.3555C98.1377 11.3555 102.654 15.8181 102.654 21.3231C102.654 26.828 98.1377 31.2907 92.5664 31.2907C90.0695 31.2907 87.7845 30.3943 86.023 28.9095Z" fill="#ED0006"/>
<path fill-rule="evenodd" clip-rule="evenodd" d="M86.0229 28.9096C88.1919 27.0813 89.5672 24.3609 89.5672 21.3231C89.5672 18.2853 88.1919 15.5648 86.0229 13.7366C87.7844 12.2518 90.0694 11.3555 92.5662 11.3555C98.1375 11.3555 102.654 15.8181 102.654 21.3231C102.654 26.828 98.1375 31.2907 92.5662 31.2907C90.0694 31.2907 87.7844 30.3944 86.0229 28.9096Z" fill="#F9A000"/>
<path fill-rule="evenodd" clip-rule="evenodd" d="M86.023 28.9095C88.192 27.0812 89.5673 24.3608 89.5673 21.323C89.5673 18.2852 88.192 15.5648 86.023 13.7366C83.8541 15.5648 82.4788 18.2852 82.4788 21.323C82.4788 24.3608 83.8541 27.0812 86.023 28.9095Z" fill="#FF5E00"/>
<defs>
<linearGradient id="paint0_linear_108_1396" x1="241.599" y1="26.6069" x2="237.337" y2="19.9318" gradientUnits="userSpaceOnUse">
<stop stop-color="#F89F20"/>
<stop offset="0.25" stop-color="#F79A20"/>
<stop offset="0.53" stop-color="#F68D20"/>
<stop offset="0.62" stop-color="#F58720"/>
<stop offset="0.72" stop-color="#F48120"/>
<stop offset="1" stop-color="#F37521"/>
</linearGradient>
<linearGradient id="paint1_linear_108_1396" x1="240.926" y1="26.5155" x2="234.695" y2="14.338" gradientUnits="userSpaceOnUse">
<stop stop-color="#F58720"/>
<stop offset="0.36" stop-color="#E16F27"/>
<stop offset="0.7" stop-color="#D4602C"/>
<stop offset="0.98" stop-color="#D05B2E"/>
</linearGradient>
</defs>
</svg>
