<svg preserveAspectRatio="none" width="100%" height="100%" overflow="visible" style="display: block;" viewBox="0 0 130 26" fill="none" xmlns="http://www.w3.org/2000/svg">
<g id="Frame 1000003441">
<path id="Star" d="M11.3457 3.44349C12.0122 2.05609 13.9878 2.05609 14.6543 3.44349L16.3308 6.9333C16.5984 7.4902 17.1282 7.87512 17.7405 7.95747L21.5776 8.47355C23.103 8.67872 23.7135 10.5576 22.6 11.6202L19.7991 14.2931C19.3521 14.7196 19.1497 15.3424 19.2606 15.9502L19.9555 19.759C20.2318 21.2732 18.6335 22.4344 17.2788 21.7037L13.8712 19.8659C13.3274 19.5726 12.6726 19.5726 12.1288 19.8659L8.72118 21.7037C7.36645 22.4344 5.76821 21.2732 6.04447 19.759L6.73938 15.9502C6.85027 15.3424 6.64791 14.7196 6.20094 14.2931L3.40002 11.6202C2.28649 10.5576 2.89696 8.67872 4.42243 8.47355L8.25951 7.95747C8.87183 7.87512 9.40162 7.4902 9.66916 6.9333L11.3457 3.44349Z" fill="var(--fill-0, #FFB800)"/>
<path id="Star_2" d="M37.3457 3.44349C38.0122 2.05609 39.9878 2.05609 40.6543 3.44349L42.3308 6.9333C42.5984 7.4902 43.1282 7.87512 43.7405 7.95747L47.5776 8.47355C49.103 8.67872 49.7135 10.5576 48.6 11.6202L45.7991 14.2931C45.3521 14.7196 45.1497 15.3424 45.2606 15.9502L45.9555 19.759C46.2318 21.2732 44.6335 22.4344 43.2788 21.7037L39.8712 19.8659C39.3274 19.5726 38.6726 19.5726 38.1288 19.8659L34.7212 21.7037C33.3665 22.4344 31.7682 21.2732 32.0445 19.759L32.7394 15.9502C32.8503 15.3424 32.6479 14.7196 32.2009 14.2931L29.4 11.6202C28.2865 10.5576 28.897 8.67872 30.4224 8.47355L34.2595 7.95747C34.8718 7.87512 35.4016 7.4902 35.6692 6.9333L37.3457 3.44349Z" fill="var(--fill-0, #FFB800)"/>
<path id="Star_3" d="M63.3457 3.44349C64.0122 2.05609 65.9878 2.05609 66.6543 3.44349L68.3308 6.9333C68.5984 7.4902 69.1282 7.87512 69.7405 7.95747L73.5776 8.47355C75.103 8.67872 75.7135 10.5576 74.6 11.6202L71.7991 14.2931C71.3521 14.7196 71.1497 15.3424 71.2606 15.9502L71.9555 19.759C72.2318 21.2732 70.6335 22.4344 69.2788 21.7037L65.8712 19.8659C65.3274 19.5726 64.6726 19.5726 64.1288 19.8659L60.7212 21.7037C59.3665 22.4344 57.7682 21.2732 58.0445 19.759L58.7394 15.9502C58.8503 15.3424 58.6479 14.7196 58.2009 14.2931L55.4 11.6202C54.2865 10.5576 54.897 8.67872 56.4224 8.47355L60.2595 7.95747C60.8718 7.87512 61.4016 7.4902 61.6692 6.9333L63.3457 3.44349Z" fill="var(--fill-0, #FFB800)"/>
<path id="Star_4" d="M89.3457 3.44349C90.0122 2.05609 91.9878 2.05609 92.6543 3.44349L94.3308 6.9333C94.5984 7.4902 95.1282 7.87512 95.7405 7.95747L99.5776 8.47355C101.103 8.67872 101.714 10.5576 100.6 11.6202L97.7991 14.2931C97.3521 14.7196 97.1497 15.3424 97.2606 15.9502L97.9555 19.759C98.2318 21.2732 96.6335 22.4344 95.2788 21.7037L91.8712 19.8659C91.3274 19.5726 90.6726 19.5726 90.1288 19.8659L86.7212 21.7037C85.3665 22.4344 83.7682 21.2732 84.0445 19.759L84.7394 15.9502C84.8503 15.3424 84.6479 14.7196 84.2009 14.2931L81.4 11.6202C80.2865 10.5576 80.897 8.67872 82.4224 8.47355L86.2595 7.95747C86.8718 7.87512 87.4016 7.4902 87.6692 6.9333L89.3457 3.44349Z" fill="var(--fill-0, #FFB800)"/>
<g id="Group 1000003441">
<path id="Star_5" d="M115.346 3.44349C116.012 2.05609 117.988 2.05609 118.654 3.44349L120.331 6.9333C120.598 7.4902 121.128 7.87512 121.74 7.95747L125.578 8.47355C127.103 8.67872 127.714 10.5576 126.6 11.6202L123.799 14.2931C123.352 14.7196 123.15 15.3424 123.261 15.9502L123.956 19.759C124.232 21.2732 122.634 22.4344 121.279 21.7037L117.871 19.8659C117.327 19.5726 116.673 19.5726 116.129 19.8659L112.721 21.7037C111.366 22.4344 109.768 21.2732 110.044 19.759L110.739 15.9502C110.85 15.3424 110.648 14.7196 110.201 14.2931L107.4 11.6202C106.286 10.5576 106.897 8.67872 108.422 8.47355L112.26 7.95747C112.872 7.87512 113.402 7.4902 113.669 6.9333L115.346 3.44349Z" fill="var(--fill-0, #D4D1CD)"/>
<g id="Group 1000003442">
<mask id="mask0_0_23" style="mask-type:alpha" maskUnits="userSpaceOnUse" x="106" y="2" width="22" height="20">
<path id="Star_6" d="M115.346 3.44349C116.012 2.05609 117.988 2.05609 118.654 3.44349L120.331 6.9333C120.598 7.4902 121.128 7.87512 121.74 7.95747L125.578 8.47355C127.103 8.67872 127.714 10.5576 126.6 11.6202L123.799 14.2931C123.352 14.7196 123.15 15.3424 123.261 15.9502L123.956 19.759C124.232 21.2732 122.634 22.4344 121.279 21.7037L117.871 19.8659C117.327 19.5726 116.673 19.5726 116.129 19.8659L112.721 21.7037C111.366 22.4344 109.768 21.2732 110.044 19.759L110.739 15.9502C110.85 15.3424 110.648 14.7196 110.201 14.2931L107.4 11.6202C106.286 10.5576 106.897 8.67872 108.422 8.47355L112.26 7.95747C112.872 7.87512 113.402 7.4902 113.669 6.9333L115.346 3.44349Z" fill="var(--fill-0, #DADBE4)"/>
</mask>
<g mask="url(#mask0_0_23)">
<rect id="Rectangle 742" x="104" width="13" height="23.4624" rx="1.83529" fill="var(--fill-0, #FFB800)"/>
</g>
</g>
</g>
</g>
</svg>
