<svg preserveAspectRatio="none" width="100%" height="100%" overflow="visible" style="display: block;" viewBox="0 0 32 32" fill="none" xmlns="http://www.w3.org/2000/svg">
<g id="fi_8861125">
<path id="Vector" fill-rule="evenodd" clip-rule="evenodd" d="M22.6667 8C22.6667 11.6819 19.6819 14.6667 16 14.6667C12.3181 14.6667 9.33333 11.6819 9.33333 8C9.33333 4.3181 12.3181 1.33333 16 1.33333C19.6819 1.33333 22.6667 4.3181 22.6667 8ZM13.3333 17.3333C8.17868 17.3333 4 21.512 4 26.6667C4 28.8759 5.79087 30.6667 8 30.6667H17.8791C18.4553 30.6667 18.7827 29.9628 18.4843 29.4697C17.7537 28.2628 17.3333 26.8472 17.3333 25.3333C17.3333 22.6212 18.6829 20.2243 20.7472 18.7775C21.2317 18.438 21.1904 17.6589 20.6116 17.5363C19.9843 17.4033 19.3336 17.3333 18.6667 17.3333H13.3333ZM25.3333 20C26.0697 20 26.6667 20.5969 26.6667 21.3333V24H29.3333C30.0697 24 30.6667 24.5969 30.6667 25.3333C30.6667 26.0697 30.0697 26.6667 29.3333 26.6667H26.6667V29.3333C26.6667 30.0696 26.0697 30.6667 25.3333 30.6667C24.5969 30.6667 24 30.0696 24 29.3333V26.6667H21.3333C20.5969 26.6667 20 26.0697 20 25.3333C20 24.5969 20.5969 24 21.3333 24H24V21.3333C24 20.5969 24.5969 20 25.3333 20Z" fill="var(--fill-0, #0F75FF)"/>
</g>
</svg>
