<svg preserveAspectRatio="none" width="100%" height="100%" overflow="visible" style="display: block;" viewBox="0 0 32 32" fill="none" xmlns="http://www.w3.org/2000/svg">
<g id="fi_2058658" clip-path="url(#clip0_0_39)">
<path id="Vector" d="M16.1419 23.2501H15.8581C14.0399 23.2501 12.5326 21.8283 12.4264 20.0133L11.4688 3.63819C11.4138 2.69725 11.7531 1.7645 12.3998 1.07887C13.0465 0.393187 13.9579 0 14.9004 0H17.0996C18.042 0 18.9534 0.393187 19.6001 1.07881C20.2469 1.76444 20.5862 2.69731 20.5312 3.63812L19.5737 20.0133C19.4674 21.8284 17.96 23.2501 16.1419 23.2501Z" fill="var(--fill-0, #0F75FF)"/>
<path id="Vector_2" d="M16 32C14.1046 32 12.5625 30.4579 12.5625 28.5626C12.5625 26.6671 14.1046 25.1251 16 25.1251C17.8954 25.1251 19.4375 26.6671 19.4375 28.5625C19.4375 30.4579 17.8954 32 16 32Z" fill="var(--fill-0, #0F75FF)"/>
<path id="Vector_3" d="M9.46338 25.1099C9.14075 25.1099 8.82688 24.9433 8.65263 24.6446C7.89856 23.3516 7.5 21.875 7.5 20.3746C7.5 18.8741 7.89856 17.3975 8.65263 16.1046C8.91344 15.6574 9.48737 15.506 9.93475 15.7671C10.382 16.0279 10.5331 16.6019 10.2723 17.0492C9.68525 18.0557 9.375 19.2056 9.375 20.3746C9.375 21.5434 9.68525 22.6934 10.2723 23.6999C10.5331 24.1472 10.382 24.7212 9.93475 24.9821C9.78625 25.0687 9.62369 25.1099 9.46338 25.1099Z" fill="var(--fill-0, #0F75FF)"/>
<path id="Vector_4" d="M6.22156 26.9931C5.89894 26.9931 5.58506 26.8265 5.41081 26.5278C4.32431 24.6645 3.75 22.5368 3.75 20.3746C3.75 18.2123 4.32431 16.0846 5.41087 14.2214C5.67162 13.7742 6.24569 13.623 6.693 13.8839C7.14031 14.1447 7.29144 14.7187 7.03056 15.1661C6.111 16.7428 5.625 18.5439 5.625 20.3746C5.625 22.2053 6.111 24.0063 7.03056 25.5831C7.29137 26.0304 7.14025 26.6044 6.693 26.8653C6.54444 26.9519 6.38194 26.9931 6.22156 26.9931Z" fill="var(--fill-0, #0F75FF)"/>
<path id="Vector_5" d="M2.97506 28.8791C2.65219 28.8791 2.33813 28.7122 2.16394 28.4131C0.748313 25.9814 0 23.2018 0 20.3746C0 17.5475 0.748313 14.7677 2.16394 12.3361C2.42444 11.8886 2.99837 11.7369 3.44581 11.9976C3.89325 12.2581 4.04481 12.832 3.78437 13.2794C2.53525 15.4251 1.875 17.8785 1.875 20.3746C1.875 22.8706 2.53525 25.3241 3.78437 27.4696C4.04487 27.9171 3.89331 28.491 3.44581 28.7515C3.2975 28.8379 3.13519 28.8791 2.97506 28.8791Z" fill="var(--fill-0, #0F75FF)"/>
<path id="Vector_6" d="M22.5447 25.0964C22.3849 25.0964 22.2231 25.0556 22.0749 24.9696C21.6271 24.7098 21.4748 24.136 21.7347 23.6882C22.3171 22.6846 22.625 21.5388 22.625 20.3746C22.625 19.2103 22.3171 18.0645 21.7347 17.0609C21.4748 16.6131 21.6271 16.0393 22.0749 15.7794C22.5227 15.5196 23.0965 15.6718 23.3564 16.1197C24.1046 17.4089 24.5 18.8802 24.5 20.3746C24.5 21.8689 24.1046 23.3402 23.3564 24.6293C23.1824 24.929 22.8679 25.0964 22.5447 25.0964Z" fill="var(--fill-0, #0F75FF)"/>
<path id="Vector_7" d="M25.7864 26.9796C25.6264 26.9796 25.4644 26.9386 25.3162 26.8524C24.8686 26.5923 24.7166 26.0184 24.9768 25.5708C25.8915 23.9972 26.375 22.2004 26.375 20.3746C26.375 18.5488 25.8915 16.7519 24.9768 15.1783C24.7166 14.7307 24.8686 14.1569 25.3162 13.8967C25.7636 13.6364 26.3376 13.7883 26.5978 14.2361C27.6787 16.0955 28.25 18.2181 28.25 20.3746C28.25 22.531 27.6787 24.6536 26.5978 26.5131C26.4237 26.8124 26.1094 26.9796 25.7864 26.9796Z" fill="var(--fill-0, #0F75FF)"/>
<path id="Vector_8" d="M29.0329 28.8656C28.8731 28.8656 28.7111 28.8246 28.5629 28.7386C28.1152 28.4786 27.963 27.9047 28.2231 27.4571C29.4674 25.3147 30.125 22.8657 30.125 20.3746C30.125 17.8835 29.4674 15.4344 28.2231 13.2921C27.9631 12.8444 28.1152 12.2706 28.563 12.0106C29.0106 11.7505 29.5844 11.9026 29.8445 12.3505C31.2546 14.7784 32 17.5531 32 20.3746C32 23.196 31.2546 25.9708 29.8445 28.3987C29.6705 28.6983 29.3561 28.8656 29.0329 28.8656Z" fill="var(--fill-0, #0F75FF)"/>
</g>
<defs>
<clipPath id="clip0_0_39">
<rect width="32" height="32" fill="white"/>
</clipPath>
</defs>
</svg>
