<svg preserveAspectRatio="none" width="100%" height="100%" overflow="visible" style="display: block;" viewBox="0 0 50 50" fill="none" xmlns="http://www.w3.org/2000/svg">
<g id="Group 1000003449">
<circle id="Ellipse 10" cx="25" cy="25" r="24.5" stroke="var(--stroke-0, #0F75FF)"/>
<path id="Vector" fill-rule="evenodd" clip-rule="evenodd" d="M30.7524 38.8462C29.0853 39.8931 27.1124 40.5 25 40.5C19.0197 40.5 14.1646 35.6449 14.1646 29.6646C14.1646 27.5682 15.3969 24.4967 17.0441 21.3852C16.3298 20.5822 15.4592 19.9037 14.5356 19.4506C14.309 19.3393 14.1646 19.1087 14.1646 18.8556C14.1646 18.6025 14.309 18.3719 14.5356 18.2606C16.09 17.4987 17.4946 16.094 18.2566 14.5396C18.368 14.313 18.5985 14.1685 18.8516 14.1685C19.1047 14.1685 19.3353 14.3129 19.4466 14.5396C19.6732 15.0034 19.9581 15.4526 20.2854 15.8766C22.4971 12.4113 24.4688 9.76635 24.4688 9.76635C24.5934 9.59806 24.7909 9.5 25.0002 9.5C25.2096 9.5 25.4057 9.59938 25.5316 9.76635C25.5316 9.76635 30.5553 16.5086 33.5697 22.5765C34.9054 25.2652 35.8357 27.8346 35.8357 29.6634C35.8357 31.7756 35.2301 33.7474 34.1819 35.4157C34.5755 35.7669 35.0115 36.0664 35.4646 36.2877C35.6912 36.399 35.8357 36.6296 35.8357 36.8827C35.8357 37.1358 35.6913 37.3663 35.4646 37.4776C34.3568 38.0196 33.3577 39.0201 32.8144 40.1279C32.7031 40.3545 32.4725 40.4989 32.2194 40.4989C31.9663 40.4989 31.7357 40.3545 31.6244 40.1279C31.4018 39.6747 31.1036 39.2387 30.7525 38.8452L30.7524 38.8462ZM33.2582 34.3833C34.0559 32.9919 34.5104 31.3819 34.5104 29.6646C34.5104 27.9843 33.6093 25.6375 32.3823 23.1676C30.005 18.3813 26.3555 13.1694 24.9999 11.2876C24.2445 12.3372 22.775 14.4229 21.21 16.8928C21.8023 17.4493 22.4702 17.9197 23.1672 18.2617C23.3938 18.373 23.5382 18.6035 23.5382 18.8566C23.5382 19.1097 23.3938 19.3403 23.1672 19.4516C21.6128 20.2136 20.2082 21.6182 19.4461 23.1727C19.3348 23.3993 19.1043 23.5437 18.8512 23.5437C18.5981 23.5437 18.3675 23.3993 18.2562 23.1727C18.1555 22.9673 18.0428 22.7632 17.9209 22.5644C16.5335 25.2531 15.488 27.8449 15.488 29.6646C15.488 34.9135 19.7494 39.1749 24.9984 39.1749C26.7144 39.1749 28.3258 38.7191 29.7171 37.9227C29.4772 37.7531 29.2281 37.6047 28.9737 37.4788C28.7471 37.3675 28.6026 37.1369 28.6026 36.8838C28.6026 36.6307 28.7471 36.4001 28.9737 36.2888C30.0815 35.7468 31.0806 34.7464 31.624 33.6386C31.7353 33.412 31.9658 33.2675 32.2189 33.2675C32.472 33.2675 32.7026 33.412 32.8139 33.6386C32.9385 33.893 33.0882 34.1434 33.2578 34.382L33.2582 34.3833ZM31.3301 37.5437C31.6574 37.8578 31.9569 38.1997 32.2193 38.5627C32.6817 37.924 33.2595 37.3476 33.8982 36.8838C33.5351 36.6214 33.1932 36.3206 32.8792 35.9946C32.8566 35.9734 32.8354 35.9509 32.8156 35.9271C32.6009 35.6978 32.4021 35.4566 32.2206 35.2062C31.7581 35.8449 31.1804 36.4213 30.5417 36.8851C30.7921 37.0667 31.0346 37.2668 31.2625 37.4801C31.2864 37.5 31.3089 37.5212 31.3301 37.5437ZM19.8573 17.4086C19.4862 17.015 19.1483 16.5923 18.8515 16.151C18.1439 17.2045 17.1991 18.1506 16.1456 18.8569C16.9565 19.4016 17.7039 20.088 18.3281 20.8552C18.3466 20.8751 18.3638 20.8976 18.3797 20.9202C18.5467 21.1295 18.7044 21.3442 18.8515 21.5628C19.5591 20.5093 20.5039 19.5632 21.5574 18.8569C20.9704 18.4633 20.4178 17.9956 19.9195 17.4761C19.897 17.4549 19.8758 17.4324 19.8559 17.4099L19.8573 17.4086Z" fill="var(--fill-0, #0F75FF)"/>
</g>
</svg>
