<svg preserveAspectRatio="none" width="100%" height="100%" overflow="visible" style="display: block;" viewBox="0 0 50 50" fill="none" xmlns="http://www.w3.org/2000/svg">
<g id="Group 470082">
<circle id="Ellipse 7" cx="25" cy="25" r="24.5" stroke="var(--stroke-0, #0F75FF)"/>
<path id="Vector" d="M14.688 26.2291C15.0519 26.1009 15.4541 26.2834 15.5858 26.6346C15.7174 26.9858 15.5295 27.3739 15.1656 27.501L12.7632 28.3397L25.0006 32.6116L31.9111 30.1995L31.9159 30.1972L37.2379 28.3396L34.8354 27.501C34.4715 27.3727 34.2824 26.9857 34.4153 26.6345C34.5481 26.2833 34.9491 26.1008 35.313 26.229L39.5373 27.7043C39.7253 27.7701 39.8845 27.9134 39.9575 28.1098C40.0904 28.461 39.9012 28.8491 39.5373 28.9762L34.2105 30.8361L39.5373 32.696C39.7253 32.7619 39.8845 32.9051 39.9575 33.1015C40.0904 33.4527 39.9012 33.8409 39.5373 33.9679L25.2388 38.9597C25.0904 39.0117 24.9216 39.0152 24.7612 38.9597L10.4627 33.9679C10.2747 33.9009 10.1155 33.7588 10.0425 33.5625C9.90965 33.2113 10.0988 32.8231 10.4627 32.696L15.7895 30.8361L10.4627 28.9762C10.2747 28.9103 10.1155 28.7671 10.0425 28.5707C9.90965 28.2195 10.0988 27.8314 10.4627 27.7043L14.687 26.229L14.688 26.2291ZM24.4236 20.789C23.2864 20.789 22.2582 20.3443 21.5124 19.6245C20.7679 18.9048 20.3058 17.9125 20.3058 16.815C20.3058 15.6309 20.8852 14.5057 21.6513 13.517C22.3779 12.5801 23.2601 11.7772 23.9532 11.1742C24.2249 10.9385 24.6331 10.9443 24.8976 11.1776C25.5895 11.7807 26.4693 12.5824 27.1947 13.517C27.962 14.5059 28.5402 15.6299 28.5402 16.815C28.5402 17.9125 28.0781 18.9048 27.3336 19.6246C26.5878 20.3443 25.5596 20.789 24.4224 20.789L24.4236 20.789ZM22.5072 18.6657C22.998 19.1382 23.6755 19.4316 24.4236 19.4316C25.1729 19.4316 25.8505 19.1393 26.3401 18.6657C26.8297 18.1932 27.1337 17.5382 27.1337 16.8162C27.1337 15.9671 26.6776 15.1076 26.0731 14.329C25.5763 13.6878 24.9718 13.0952 24.4224 12.5984C23.873 13.0963 23.2685 13.6878 22.7717 14.329C22.1672 15.1076 21.7111 15.9671 21.7111 16.8162C21.7111 17.5394 22.014 18.1932 22.5048 18.6657H22.5072ZM32.1505 31.5557L25.24 33.9678C25.0916 34.0198 24.9228 34.0233 24.7624 33.9678L17.8518 31.5557L12.7634 33.3325L25.0008 37.6044L37.2382 33.3325L32.1505 31.5557ZM30.8948 19.2894C30.5094 19.3333 30.1599 19.0676 30.1156 18.6956C30.0701 18.3237 30.3454 17.9863 30.7308 17.9424L35.2459 17.4249C35.6314 17.381 35.9809 17.6467 36.0264 18.0187C36.0324 18.0706 36.0324 18.1226 36.0264 18.1735L35.696 22.4998C35.6685 22.8729 35.3333 23.1548 34.9455 23.1283C34.5589 23.1017 34.2668 22.7782 34.2943 22.4039L34.4715 20.0854L25.4949 28.8188C25.2196 29.0822 24.7767 29.0811 24.5026 28.8165L14.5086 19.093C14.2357 18.8284 14.2369 18.3998 14.511 18.1364C14.7851 17.873 15.2292 17.8742 15.5022 18.1387L24.9994 27.3794L33.6373 18.9751L30.8925 19.2893L30.8948 19.2894Z" fill="var(--fill-0, #0F75FF)"/>
</g>
</svg>
