<svg preserveAspectRatio="none" width="100%" height="100%" overflow="visible" style="display: block;" viewBox="0 0 50 50" fill="none" xmlns="http://www.w3.org/2000/svg">
<g id="Group 1000003447">
<circle id="Ellipse 9" cx="25" cy="25" r="24.5" stroke="var(--stroke-0, #0F75FF)"/>
<g id="Vector">
<mask id="path-2-outside-1_0_35" maskUnits="userSpaceOnUse" x="8" y="12" width="36" height="28" fill="black">
<rect fill="white" x="8" y="12" width="36" height="28"/>
<path d="M39.626 25.058C38.9037 25.293 38.1416 25.254 37.4193 25.058C36.6971 24.8619 36.3359 24.3127 36.3359 23.5661C36.3359 22.978 35.4132 22.978 35.4132 23.5661C35.3734 24.5867 35.854 25.254 36.5776 25.6851C37.5402 28.2754 38.3434 31.4147 36.7781 33.9259C36.016 35.1814 34.7321 36.0059 33.3673 36.5162C31.8417 37.1043 30.1569 37.2225 28.5914 36.7914C29.8355 35.4969 30.5578 33.8869 30.6786 32.0822C30.8392 30.1982 30.3971 28.1584 29.635 26.3914C29.5142 26.0772 29.3535 25.763 29.1942 25.4891C29.234 25.4112 29.234 25.332 29.1942 25.2138C28.4719 23.0559 28.7122 20.7396 30.0771 18.857C31.2004 17.2872 33.0472 16.1888 34.9723 15.9525C36.6571 15.7175 38.4228 16.1096 39.8276 17.0509C41.2721 18.0715 42.0343 19.7191 42.0343 21.4461C42.0343 22.9768 41.1513 24.5063 39.6271 25.0567L39.626 25.058ZM12.5397 18.5439H12.0577C11.7762 18.5439 11.5757 18.7789 11.5757 19.0152C11.5757 19.2905 11.7762 19.4865 12.0577 19.4865H12.5397C12.78 19.4865 12.9805 19.2905 12.9805 19.0152C12.9805 18.7802 12.78 18.5439 12.5397 18.5439ZM27.066 37.6547V37.6936C27.066 37.6936 27.0261 37.6936 26.9863 37.7326C26.8655 37.7715 26.665 37.8507 26.4645 37.8897C25.863 38.0078 25.2204 38.0468 24.619 38.0857C23.1744 38.1247 21.6901 38.0857 20.2045 38.0078C19.1211 37.9689 17.877 38.0857 16.9144 37.4586C16.232 37.0276 16.5533 36.3602 17.1547 36.007C17.9168 35.5357 18.9604 35.4578 19.8035 35.3786C20.4049 35.3397 20.4049 34.4373 19.8035 34.4763C19.603 34.4763 19.4025 34.4763 19.2021 34.5152C18.6405 33.731 18.44 32.7884 18.6006 31.8471C18.6006 31.8081 18.6405 31.7692 18.6405 31.7289C18.6803 31.4537 18.7613 31.2187 18.8808 30.9447C19.4424 29.6892 20.6864 28.8647 22.0912 28.8258C22.6926 28.8258 22.6926 27.8844 22.0912 27.9234C20.3253 27.9624 18.7599 28.9829 18.0376 30.5915C17.9978 30.6695 17.9579 30.7487 17.9168 30.8266C17.476 30.3955 17.1547 29.8852 16.8732 29.375C17.5556 29.1789 18.2381 28.9036 18.7599 28.4726C19.2007 28.0415 18.5196 27.4131 18.0774 27.8052C17.5955 28.1974 16.9542 28.3934 16.3514 28.5505C15.8296 28.6687 14.9866 28.7855 14.5458 28.3934C14.3851 28.2363 14.4249 28.1974 14.6254 28.0403C14.9069 27.8442 15.187 27.726 15.4685 27.5689C16.1908 27.1379 16.7524 26.4303 17.0339 25.685C17.2742 25.1358 16.3515 24.9008 16.1112 25.45C16.0315 25.646 15.9107 25.881 15.7899 26.0784C15.5496 25.0579 15.4287 24.0373 15.2283 23.0571C15.1486 22.7818 14.9468 22.7039 14.7463 22.7429C14.7065 22.7039 14.6666 22.7039 14.6255 22.7039C13.4212 22.7429 12.2582 22.3897 11.2147 21.8794C10.8535 21.6834 10.4924 21.4873 10.2109 21.251C9.88962 21.016 9.92946 20.5837 9.97061 20.1916C10.0914 17.9155 12.3379 16.542 14.3851 16.1498C14.5059 16.1498 14.5856 16.1108 14.6666 16.0316C14.8671 16.0316 15.1074 15.8745 15.1486 15.6005C15.2282 15.0124 15.2694 14.4619 15.43 13.9529C16.4736 13.8348 17.557 15.0124 18.1187 15.6797C19.4025 17.0924 20.2456 18.8971 20.6864 20.742C20.7263 20.8601 20.8073 20.938 20.8869 20.977C20.9267 21.0951 21.0476 21.1341 21.1684 21.173C22.8532 21.5262 24.4996 22.1143 25.9031 23.0959C27.1869 23.9983 28.1097 25.2538 28.7523 26.6664C29.4348 28.1972 29.7959 30.0019 29.7561 31.6897C29.7162 33.7308 28.7935 35.5354 27.1883 36.83C27.0675 36.908 27.0276 36.9872 27.0276 37.1053C26.948 37.2235 26.948 37.3806 27.0276 37.5364C27.0675 37.5753 27.1073 37.6143 27.0675 37.6545L27.066 37.6547ZM36.0146 14.9721C33.6075 14.8942 31.2799 16.0316 29.7147 17.7974C28.2702 19.445 27.7086 21.5653 27.9091 23.644C27.5081 23.2519 27.1071 22.8598 26.665 22.5053C25.1806 21.3666 23.4148 20.7395 21.5693 20.3072C20.9679 17.9922 19.7637 15.7163 17.8771 14.1075C17.2756 13.5583 16.5122 13.126 15.6704 13.0091C15.2695 12.9702 14.7875 13.0481 14.6269 13.4012C14.3866 13.9894 14.3056 14.6567 14.2259 15.2852H14.1462C11.5785 15.7565 9.25112 17.5223 9.00945 20.1905C8.96962 20.7397 9.04929 21.3292 9.37059 21.7603C9.65206 22.0745 10.053 22.3095 10.4142 22.5055C11.6184 23.1729 12.9819 23.604 14.3868 23.6442C14.5873 24.7037 14.7081 25.7632 14.9484 26.7837C14.7081 26.9408 14.4266 27.0979 14.1465 27.255C13.464 27.7263 13.2635 28.5105 13.946 29.1C14.4678 29.5713 15.2299 29.6103 15.9123 29.5311C16.3531 30.4334 16.9161 31.219 17.6383 31.8461C17.5175 32.8276 17.718 33.8079 18.1999 34.6713C17.718 34.7492 17.2374 34.9063 16.7952 35.1426C15.9933 35.5348 15.3507 36.4774 15.6308 37.3408C16.1526 38.7924 18.0791 38.8326 19.3628 38.8716C21.0079 38.9495 22.6529 39.0287 24.3392 38.9898C25.0615 38.9898 25.8236 38.9508 26.587 38.7937C27.069 38.7158 27.5907 38.5587 27.8709 38.1653C27.9917 37.9692 28.0315 37.7732 28.0315 37.5771C31.2817 38.7158 35.4959 37.42 37.4622 34.5948C39.228 32.1226 38.6664 28.8262 37.7436 26.0787C38.3862 26.1969 39.1085 26.1566 39.7498 26.0008C41.8768 25.4127 43 23.2535 43 21.2138C42.9203 17.4861 39.5892 15.0531 36.0176 14.974L36.0146 14.9721Z"/>
</mask>
<path d="M39.626 25.058C38.9037 25.293 38.1416 25.254 37.4193 25.058C36.6971 24.8619 36.3359 24.3127 36.3359 23.5661C36.3359 22.978 35.4132 22.978 35.4132 23.5661C35.3734 24.5867 35.854 25.254 36.5776 25.6851C37.5402 28.2754 38.3434 31.4147 36.7781 33.9259C36.016 35.1814 34.7321 36.0059 33.3673 36.5162C31.8417 37.1043 30.1569 37.2225 28.5914 36.7914C29.8355 35.4969 30.5578 33.8869 30.6786 32.0822C30.8392 30.1982 30.3971 28.1584 29.635 26.3914C29.5142 26.0772 29.3535 25.763 29.1942 25.4891C29.234 25.4112 29.234 25.332 29.1942 25.2138C28.4719 23.0559 28.7122 20.7396 30.0771 18.857C31.2004 17.2872 33.0472 16.1888 34.9723 15.9525C36.6571 15.7175 38.4228 16.1096 39.8276 17.0509C41.2721 18.0715 42.0343 19.7191 42.0343 21.4461C42.0343 22.9768 41.1513 24.5063 39.6271 25.0567L39.626 25.058ZM12.5397 18.5439H12.0577C11.7762 18.5439 11.5757 18.7789 11.5757 19.0152C11.5757 19.2905 11.7762 19.4865 12.0577 19.4865H12.5397C12.78 19.4865 12.9805 19.2905 12.9805 19.0152C12.9805 18.7802 12.78 18.5439 12.5397 18.5439ZM27.066 37.6547V37.6936C27.066 37.6936 27.0261 37.6936 26.9863 37.7326C26.8655 37.7715 26.665 37.8507 26.4645 37.8897C25.863 38.0078 25.2204 38.0468 24.619 38.0857C23.1744 38.1247 21.6901 38.0857 20.2045 38.0078C19.1211 37.9689 17.877 38.0857 16.9144 37.4586C16.232 37.0276 16.5533 36.3602 17.1547 36.007C17.9168 35.5357 18.9604 35.4578 19.8035 35.3786C20.4049 35.3397 20.4049 34.4373 19.8035 34.4763C19.603 34.4763 19.4025 34.4763 19.2021 34.5152C18.6405 33.731 18.44 32.7884 18.6006 31.8471C18.6006 31.8081 18.6405 31.7692 18.6405 31.7289C18.6803 31.4537 18.7613 31.2187 18.8808 30.9447C19.4424 29.6892 20.6864 28.8647 22.0912 28.8258C22.6926 28.8258 22.6926 27.8844 22.0912 27.9234C20.3253 27.9624 18.7599 28.9829 18.0376 30.5915C17.9978 30.6695 17.9579 30.7487 17.9168 30.8266C17.476 30.3955 17.1547 29.8852 16.8732 29.375C17.5556 29.1789 18.2381 28.9036 18.7599 28.4726C19.2007 28.0415 18.5196 27.4131 18.0774 27.8052C17.5955 28.1974 16.9542 28.3934 16.3514 28.5505C15.8296 28.6687 14.9866 28.7855 14.5458 28.3934C14.3851 28.2363 14.4249 28.1974 14.6254 28.0403C14.9069 27.8442 15.187 27.726 15.4685 27.5689C16.1908 27.1379 16.7524 26.4303 17.0339 25.685C17.2742 25.1358 16.3515 24.9008 16.1112 25.45C16.0315 25.646 15.9107 25.881 15.7899 26.0784C15.5496 25.0579 15.4287 24.0373 15.2283 23.0571C15.1486 22.7818 14.9468 22.7039 14.7463 22.7429C14.7065 22.7039 14.6666 22.7039 14.6255 22.7039C13.4212 22.7429 12.2582 22.3897 11.2147 21.8794C10.8535 21.6834 10.4924 21.4873 10.2109 21.251C9.88962 21.016 9.92946 20.5837 9.97061 20.1916C10.0914 17.9155 12.3379 16.542 14.3851 16.1498C14.5059 16.1498 14.5856 16.1108 14.6666 16.0316C14.8671 16.0316 15.1074 15.8745 15.1486 15.6005C15.2282 15.0124 15.2694 14.4619 15.43 13.9529C16.4736 13.8348 17.557 15.0124 18.1187 15.6797C19.4025 17.0924 20.2456 18.8971 20.6864 20.742C20.7263 20.8601 20.8073 20.938 20.8869 20.977C20.9267 21.0951 21.0476 21.1341 21.1684 21.173C22.8532 21.5262 24.4996 22.1143 25.9031 23.0959C27.1869 23.9983 28.1097 25.2538 28.7523 26.6664C29.4348 28.1972 29.7959 30.0019 29.7561 31.6897C29.7162 33.7308 28.7935 35.5354 27.1883 36.83C27.0675 36.908 27.0276 36.9872 27.0276 37.1053C26.948 37.2235 26.948 37.3806 27.0276 37.5364C27.0675 37.5753 27.1073 37.6143 27.0675 37.6545L27.066 37.6547ZM36.0146 14.9721C33.6075 14.8942 31.2799 16.0316 29.7147 17.7974C28.2702 19.445 27.7086 21.5653 27.9091 23.644C27.5081 23.2519 27.1071 22.8598 26.665 22.5053C25.1806 21.3666 23.4148 20.7395 21.5693 20.3072C20.9679 17.9922 19.7637 15.7163 17.8771 14.1075C17.2756 13.5583 16.5122 13.126 15.6704 13.0091C15.2695 12.9702 14.7875 13.0481 14.6269 13.4012C14.3866 13.9894 14.3056 14.6567 14.2259 15.2852H14.1462C11.5785 15.7565 9.25112 17.5223 9.00945 20.1905C8.96962 20.7397 9.04929 21.3292 9.37059 21.7603C9.65206 22.0745 10.053 22.3095 10.4142 22.5055C11.6184 23.1729 12.9819 23.604 14.3868 23.6442C14.5873 24.7037 14.7081 25.7632 14.9484 26.7837C14.7081 26.9408 14.4266 27.0979 14.1465 27.255C13.464 27.7263 13.2635 28.5105 13.946 29.1C14.4678 29.5713 15.2299 29.6103 15.9123 29.5311C16.3531 30.4334 16.9161 31.219 17.6383 31.8461C17.5175 32.8276 17.718 33.8079 18.1999 34.6713C17.718 34.7492 17.2374 34.9063 16.7952 35.1426C15.9933 35.5348 15.3507 36.4774 15.6308 37.3408C16.1526 38.7924 18.0791 38.8326 19.3628 38.8716C21.0079 38.9495 22.6529 39.0287 24.3392 38.9898C25.0615 38.9898 25.8236 38.9508 26.587 38.7937C27.069 38.7158 27.5907 38.5587 27.8709 38.1653C27.9917 37.9692 28.0315 37.7732 28.0315 37.5771C31.2817 38.7158 35.4959 37.42 37.4622 34.5948C39.228 32.1226 38.6664 28.8262 37.7436 26.0787C38.3862 26.1969 39.1085 26.1566 39.7498 26.0008C41.8768 25.4127 43 23.2535 43 21.2138C42.9203 17.4861 39.5892 15.0531 36.0176 14.974L36.0146 14.9721Z" fill="var(--fill-0, #0F75FF)"/>
<path d="M27.0675 37.6545V37.5295H26.9425V37.6545H27.0675ZM27.0675 37.6545V37.7795H27.1073V37.6545V37.5295H27.0675V37.6545ZM27.0675 37.6545H26.9425V37.6935H27.0675H27.1925V37.6545H27.0675ZM39.626 25.058L39.7033 25.2957L39.7635 25.2761L39.8071 25.2302L39.626 25.058ZM35.4132 23.5661L35.6632 23.5759V23.5661H35.4132ZM36.5776 25.6851L36.8119 25.598L36.7812 25.5154L36.7055 25.4703L36.5776 25.6851ZM36.7781 33.9259L36.5659 33.7936L36.5644 33.7962L36.7781 33.9259ZM33.3673 36.5162L33.2797 36.282L33.2773 36.2829L33.3673 36.5162ZM28.5914 36.7914L28.4112 36.6182L28.1202 36.921L28.5251 37.0324L28.5914 36.7914ZM30.6786 32.0822L30.4294 32.0609L30.4291 32.0655L30.6786 32.0822ZM29.635 26.3914L29.4015 26.4812L29.4054 26.4904L29.635 26.3914ZM29.1942 25.4891L28.9716 25.3753L28.9095 25.4968L28.9781 25.6148L29.1942 25.4891ZM29.1942 25.2138L28.9571 25.2932L28.9573 25.2937L29.1942 25.2138ZM30.0771 18.857L30.2795 19.0037L30.2804 19.0025L30.0771 18.857ZM34.9723 15.9525L35.0027 16.2007L35.0068 16.2001L34.9723 15.9525ZM39.8276 17.0509L39.9719 16.8467L39.9668 16.8433L39.8276 17.0509ZM39.6271 25.0567L39.5422 24.8216L39.4867 24.8417L39.446 24.8845L39.6271 25.0567ZM27.066 37.6547L27.0411 37.4059L26.816 37.4284V37.6547H27.066ZM27.066 37.6936L27.0659 37.9436L27.316 37.9436V37.6936H27.066ZM26.9863 37.7326L27.063 37.9705L27.119 37.9525L27.1611 37.9113L26.9863 37.7326ZM26.4645 37.8897L26.4168 37.6443L26.4163 37.6444L26.4645 37.8897ZM24.619 38.0857L24.6257 38.3358L24.6351 38.3352L24.619 38.0857ZM20.2045 38.0078L20.2176 37.7581L20.2134 37.758L20.2045 38.0078ZM16.9144 37.4586L17.0509 37.2491L17.0479 37.2473L16.9144 37.4586ZM17.1547 36.007L17.2813 36.2227L17.2862 36.2197L17.1547 36.007ZM19.8035 35.3786L19.7873 35.1291L19.7801 35.1297L19.8035 35.3786ZM19.8035 34.4763V34.7263H19.8116L19.8197 34.7258L19.8035 34.4763ZM19.2021 34.5152L18.9988 34.6608L19.0922 34.7913L19.2498 34.7606L19.2021 34.5152ZM18.6006 31.8471L18.8471 31.8891L18.8506 31.8683V31.8471H18.6006ZM18.6405 31.7289L18.393 31.6931L18.3905 31.7109V31.7289H18.6405ZM18.8808 30.9447L18.6526 30.8426L18.6516 30.8448L18.8808 30.9447ZM22.0912 28.8258V28.5757L22.0842 28.5759L22.0912 28.8258ZM22.0912 27.9234L22.0967 28.1736L22.1073 28.1729L22.0912 27.9234ZM18.0376 30.5915L18.2605 30.7055L18.2657 30.694L18.0376 30.5915ZM17.9168 30.8266L17.742 31.0053L17.9814 31.2394L18.1378 30.9433L17.9168 30.8266ZM16.8732 29.375L16.8042 29.1347L16.5029 29.2212L16.6543 29.4957L16.8732 29.375ZM18.7599 28.4726L18.9191 28.6653L18.9272 28.6587L18.9347 28.6513L18.7599 28.4726ZM18.0774 27.8052L18.2354 27.9993L18.2433 27.9923L18.0774 27.8052ZM16.3514 28.5505L16.4067 28.7945L16.4145 28.7924L16.3514 28.5505ZM14.5458 28.3934L14.3708 28.5724L14.3796 28.5802L14.5458 28.3934ZM14.6254 28.0403L14.4823 27.8348L14.4712 27.8435L14.6254 28.0403ZM15.4685 27.5689L15.5904 27.7873L15.5967 27.7836L15.4685 27.5689ZM17.0339 25.685L16.8046 25.5846L16.8 25.5966L17.0339 25.685ZM16.1112 25.45L15.8821 25.3497L15.8796 25.3559L16.1112 25.45ZM15.7899 26.0784L15.5465 26.1357L15.6858 26.7271L16.0031 26.2089L15.7899 26.0784ZM15.2283 23.0571L15.4732 23.007L15.4712 22.9972L15.4684 22.9876L15.2283 23.0571ZM14.7463 22.7429L14.5715 22.9216L14.6653 23.0133L14.794 22.9883L14.7463 22.7429ZM14.6255 22.7039V22.4538L14.6174 22.454L14.6255 22.7039ZM11.2147 21.8794L11.0953 22.0993L11.1048 22.104L11.2147 21.8794ZM10.2109 21.251L10.3717 21.0596L10.3653 21.0542L10.3585 21.0492L10.2109 21.251ZM9.97061 20.1916L10.2196 20.2177L10.2203 20.2048L9.97061 20.1916ZM14.3851 16.1498V15.8998H14.3614L14.3381 15.9042L14.3851 16.1498ZM14.6666 16.0316V15.7816H14.5647L14.4918 15.8529L14.6666 16.0316ZM15.1486 15.6005L15.3958 15.6377L15.3963 15.6341L15.1486 15.6005ZM15.43 13.9529L15.4019 13.7045L15.2405 13.7228L15.1916 13.8777L15.43 13.9529ZM18.1187 15.6797L17.9272 15.8408L17.9336 15.8479L18.1187 15.6797ZM20.6864 20.742L20.4433 20.8001L20.4459 20.8111L20.4495 20.8218L20.6864 20.742ZM20.8869 20.977L21.1238 20.8971L21.0905 20.7982L20.9967 20.7524L20.8869 20.977ZM21.1684 21.173L21.0917 21.411L21.1042 21.415L21.1171 21.4177L21.1684 21.173ZM25.9031 23.0959L26.0468 22.8914L26.0464 22.8911L25.9031 23.0959ZM28.7523 26.6664L28.9807 26.5646L28.9799 26.5629L28.7523 26.6664ZM29.7561 31.6897L29.5061 31.6838L29.5061 31.6848L29.7561 31.6897ZM27.1883 36.83L27.3237 37.0402L27.3349 37.033L27.3452 37.0246L27.1883 36.83ZM27.0276 37.1053L27.2349 37.2451L27.2776 37.1817V37.1053H27.0276ZM27.0276 37.5364L26.805 37.6502L26.8236 37.6866L26.8528 37.7151L27.0276 37.5364ZM27.0675 37.6545L27.0923 37.9033L27.1818 37.8944L27.2451 37.8304L27.0675 37.6545ZM36.0146 14.9721L36.1479 14.7606L36.0905 14.7244L36.0227 14.7222L36.0146 14.9721ZM29.7147 17.7974L29.5276 17.6315L29.5267 17.6326L29.7147 17.7974ZM27.9091 23.644L27.7343 23.8227L28.2236 24.3013L28.1579 23.62L27.9091 23.644ZM26.665 22.5053L26.8214 22.3102L26.8171 22.307L26.665 22.5053ZM21.5693 20.3072L21.3274 20.37L21.3653 20.5161L21.5123 20.5506L21.5693 20.3072ZM17.8771 14.1075L17.7084 14.2923L17.7149 14.2978L17.8771 14.1075ZM15.6704 13.0091L15.7048 12.7613L15.6946 12.7603L15.6704 13.0091ZM14.6269 13.4012L14.3991 13.2976L14.3954 13.3067L14.6269 13.4012ZM14.2259 15.2852V15.5352H14.4462L14.4739 15.3166L14.2259 15.2852ZM14.1462 15.2852V15.0352H14.1235L14.1011 15.0393L14.1462 15.2852ZM9.00945 20.1905L8.76043 20.1679L8.76011 20.1724L9.00945 20.1905ZM9.37059 21.7603L9.17014 21.9097L9.17687 21.9187L9.18438 21.9271L9.37059 21.7603ZM10.4142 22.5055L10.5353 22.2869L10.5334 22.2858L10.4142 22.5055ZM14.3868 23.6442L14.6325 23.5977L14.5951 23.4001L14.394 23.3943L14.3868 23.6442ZM14.9484 26.7837L15.0852 26.9929L15.2319 26.897L15.1918 26.7264L14.9484 26.7837ZM14.1465 27.255L14.0242 27.037L14.014 27.0427L14.0044 27.0493L14.1465 27.255ZM13.946 29.1L14.1136 28.9144L14.1094 28.9108L13.946 29.1ZM15.9123 29.5311L16.137 29.4213L16.0593 29.2623L15.8835 29.2827L15.9123 29.5311ZM17.6383 31.8461L17.8865 31.8766L17.9027 31.7445L17.8022 31.6573L17.6383 31.8461ZM18.1999 34.6713L18.2398 34.9181L18.5922 34.8612L18.4182 34.5495L18.1999 34.6713ZM16.7952 35.1426L16.9051 35.3674L16.9131 35.3631L16.7952 35.1426ZM15.6308 37.3408L15.3929 37.418L15.3956 37.4254L15.6308 37.3408ZM19.3628 38.8716L19.3747 38.6218L19.3704 38.6217L19.3628 38.8716ZM24.3392 38.9898V38.7397L24.3334 38.7398L24.3392 38.9898ZM26.587 38.7937L26.5471 38.5467L26.5366 38.5488L26.587 38.7937ZM27.8709 38.1653L28.0745 38.3103L28.0793 38.3035L28.0837 38.2965L27.8709 38.1653ZM28.0315 37.5771L28.1142 37.3412L27.7815 37.2247V37.5771H28.0315ZM37.4622 34.5948L37.2587 34.4494L37.257 34.4519L37.4622 34.5948ZM37.7436 26.0787L37.7888 25.8329L37.3716 25.7561L37.5066 26.1583L37.7436 26.0787ZM39.7498 26.0008L39.8088 26.2439L39.8164 26.2418L39.7498 26.0008ZM43 21.2138H43.2501L43.2499 21.2085L43 21.2138ZM36.0176 14.974L35.8843 15.1855L35.9428 15.2224L36.0121 15.2239L36.0176 14.974ZM39.626 25.058L39.5486 24.8202C38.8843 25.0364 38.1737 25.0037 37.4848 24.8167L37.4193 25.058L37.3538 25.2992C38.1095 25.5044 38.9231 25.5496 39.7033 25.2957L39.626 25.058ZM37.4193 25.058L37.4848 24.8167C37.1728 24.732 36.9539 24.5763 36.8108 24.3741C36.6663 24.1699 36.5859 23.8995 36.5859 23.5661H36.3359H36.0859C36.0859 23.9793 36.1861 24.3568 36.4027 24.6629C36.6207 24.971 36.9436 25.1879 37.3538 25.2992L37.4193 25.058ZM36.3359 23.5661H36.5859C36.5859 23.3472 36.4972 23.1668 36.3536 23.0448C36.2155 22.9274 36.0402 22.875 35.8746 22.875C35.7089 22.875 35.5336 22.9274 35.3955 23.0448C35.2519 23.1668 35.1632 23.3472 35.1632 23.5661H35.4132H35.6632C35.6632 23.491 35.6898 23.4509 35.7193 23.4258C35.7542 23.3961 35.8095 23.375 35.8746 23.375C35.9396 23.375 35.9949 23.3961 36.0298 23.4258C36.0593 23.4509 36.0859 23.491 36.0859 23.5661H36.3359ZM35.4132 23.5661L35.1634 23.5564C35.1194 24.682 35.6597 25.4293 36.4496 25.8999L36.5776 25.6851L36.7055 25.4703C36.0482 25.0787 35.6273 24.4913 35.663 23.5759L35.4132 23.5661ZM36.5776 25.6851L36.3432 25.7722C37.3078 28.3678 38.0605 31.3959 36.5659 33.7936L36.7781 33.9259L36.9902 34.0581C38.6263 31.4335 37.7725 28.1829 36.8119 25.598L36.5776 25.6851ZM36.7781 33.9259L36.5644 33.7962C35.8418 34.9865 34.6145 35.7829 33.2797 36.282L33.3673 36.5162L33.4548 36.7503C34.8497 36.2288 36.1901 35.3763 36.9918 34.0556L36.7781 33.9259ZM33.3673 36.5162L33.2773 36.2829C31.798 36.8532 30.1679 36.9662 28.6578 36.5504L28.5914 36.7914L28.5251 37.0324C30.1458 37.4787 31.8854 37.3554 33.4572 36.7494L33.3673 36.5162ZM28.5914 36.7914L28.7717 36.9646C30.056 35.6283 30.8032 33.9631 30.928 32.0989L30.6786 32.0822L30.4291 32.0655C30.3123 33.8108 29.615 35.3656 28.4112 36.6182L28.5914 36.7914ZM30.6786 32.0822L30.9277 32.1034C31.0926 30.1691 30.6388 28.0876 29.8646 26.2924L29.635 26.3914L29.4054 26.4904C30.1554 28.2292 30.5858 30.2274 30.4295 32.0609L30.6786 32.0822ZM29.635 26.3914L29.8683 26.3017C29.7414 25.9716 29.5741 25.6451 29.4103 25.3634L29.1942 25.4891L28.9781 25.6148C29.1329 25.881 29.287 26.1829 29.4017 26.4812L29.635 26.3914ZM29.1942 25.4891L29.4168 25.6029C29.4984 25.4433 29.4832 25.2885 29.4311 25.134L29.1942 25.2138L28.9573 25.2937C28.9723 25.3383 28.9741 25.3592 28.9741 25.3665C28.9741 25.3682 28.974 25.3692 28.9739 25.3695C28.9739 25.3699 28.9739 25.37 28.9739 25.3701C28.9738 25.3701 28.9738 25.3704 28.9735 25.3711C28.9732 25.3718 28.9727 25.3732 28.9716 25.3753L29.1942 25.4891ZM29.1942 25.2138L29.4313 25.1345C28.7318 23.0446 28.967 20.8141 30.2795 19.0037L30.0771 18.857L29.8747 18.7102C28.4574 20.6651 28.2121 23.0672 28.9571 25.2932L29.1942 25.2138ZM30.0771 18.857L30.2804 19.0025C31.3629 17.4896 33.1471 16.4284 35.0027 16.2006L34.9723 15.9525L34.9418 15.7044C32.9474 15.9492 31.0378 17.0848 29.8738 18.7115L30.0771 18.857ZM34.9723 15.9525L35.0068 16.2001C36.6324 15.9734 38.336 16.3524 39.6884 17.2586L39.8276 17.0509L39.9668 16.8433C38.5097 15.8668 36.6818 15.4616 34.9377 15.7049L34.9723 15.9525ZM39.8276 17.0509L39.6834 17.2551C41.0552 18.2243 41.7843 19.7922 41.7843 21.4461H42.0343H42.2843C42.2843 19.646 41.4891 17.9186 39.9719 16.8467L39.8276 17.0509ZM42.0343 21.4461H41.7843C41.7843 22.8895 40.9515 24.3127 39.5422 24.8216L39.6271 25.0567L39.7121 25.2919C41.3512 24.6999 42.2843 23.0642 42.2843 21.4461H42.0343ZM39.6271 25.0567L39.446 24.8845L39.4448 24.8857L39.626 25.058L39.8071 25.2302L39.8083 25.229L39.6271 25.0567ZM12.5397 18.5439V18.2939H12.0577V18.5439V18.7939H12.5397V18.5439ZM12.0577 18.5439V18.2939C11.6301 18.2939 11.3257 18.649 11.3257 19.0152H11.5757H11.8257C11.8257 18.9088 11.9223 18.7939 12.0577 18.7939V18.5439ZM11.5757 19.0152H11.3257C11.3257 19.4338 11.6434 19.7365 12.0577 19.7365V19.4865V19.2365C11.909 19.2365 11.8257 19.1472 11.8257 19.0152H11.5757ZM12.0577 19.4865V19.7365H12.5397V19.4865V19.2365H12.0577V19.4865ZM12.5397 19.4865V19.7365C12.9273 19.7365 13.2305 19.4191 13.2305 19.0152H12.9805H12.7305C12.7305 19.1619 12.6326 19.2365 12.5397 19.2365V19.4865ZM12.9805 19.0152H13.2305C13.2305 18.8288 13.1524 18.6527 13.0354 18.5236C12.9179 18.3939 12.7441 18.2939 12.5397 18.2939V18.5439V18.7939C12.5756 18.7939 12.6221 18.8121 12.6649 18.8593C12.7083 18.9071 12.7305 18.9666 12.7305 19.0152H12.9805ZM27.066 37.6547H26.816V37.6936H27.066H27.316V37.6547H27.066ZM27.066 37.6936C27.066 37.4436 27.0658 37.4436 27.0657 37.4436C27.0657 37.4436 27.0656 37.4436 27.0655 37.4436C27.0653 37.4436 27.0652 37.4436 27.065 37.4436C27.0647 37.4436 27.0643 37.4436 27.064 37.4436C27.0633 37.4436 27.0627 37.4436 27.062 37.4437C27.0606 37.4437 27.0591 37.4437 27.0576 37.4438C27.0546 37.4439 27.0514 37.444 27.0479 37.4442C27.041 37.4447 27.0332 37.4454 27.0245 37.4466C27.0073 37.449 26.9866 37.4533 26.9636 37.4608C26.9168 37.476 26.8622 37.5042 26.8115 37.5538L26.9863 37.7326L27.1611 37.9113C27.1502 37.922 27.1354 37.9307 27.1185 37.9362C27.1105 37.9388 27.1022 37.9406 27.0937 37.9418C27.0894 37.9424 27.085 37.9429 27.0804 37.9432C27.0781 37.9433 27.0758 37.9434 27.0734 37.9435C27.0722 37.9436 27.0709 37.9436 27.0697 37.9436C27.0691 37.9436 27.0685 37.9436 27.0678 37.9436C27.0675 37.9436 27.0672 37.9436 27.0669 37.9436C27.0667 37.9436 27.0666 37.9436 27.0664 37.9436C27.0663 37.9436 27.0662 37.9436 27.0662 37.9436C27.0661 37.9436 27.0659 37.9436 27.066 37.6936ZM26.9863 37.7326L26.9096 37.4946C26.7669 37.5406 26.5977 37.6091 26.4168 37.6443L26.4645 37.8897L26.5122 38.1351C26.7323 38.0923 26.964 38.0024 27.063 37.9705L26.9863 37.7326ZM26.4645 37.8897L26.4163 37.6444C25.8338 37.7588 25.2084 37.797 24.6028 37.8363L24.619 38.0857L24.6351 38.3352C25.2324 38.2965 25.8923 38.2569 26.5127 38.135L26.4645 37.8897ZM24.619 38.0857L24.6122 37.8358C23.1765 37.8745 21.6991 37.8359 20.2176 37.7582L20.2045 38.0078L20.1914 38.2575C21.681 38.3356 23.1724 38.3748 24.6257 38.3356L24.619 38.0857ZM20.2045 38.0078L20.2134 37.758C19.6457 37.7376 19.0972 37.7583 18.5379 37.7049C17.9906 37.6527 17.4844 37.5316 17.0509 37.2492L16.9144 37.4586L16.7779 37.6681C17.307 38.0128 17.9041 38.1468 18.4904 38.2027C19.0646 38.2574 19.6799 38.2391 20.1955 38.2577L20.2045 38.0078ZM16.9144 37.4586L17.0479 37.2473C16.9092 37.1596 16.8405 37.0722 16.8084 36.9992C16.7772 36.928 16.7725 36.8518 16.7948 36.7677C16.8422 36.5885 17.0142 36.3795 17.2813 36.2226L17.1547 36.007L17.0281 35.7915C16.6938 35.9878 16.4044 36.289 16.3115 36.6396C16.2635 36.8204 16.2689 37.0138 16.3505 37.2C16.4314 37.3844 16.5784 37.5421 16.7809 37.67L16.9144 37.4586ZM17.1547 36.007L17.2862 36.2197C17.9877 35.7858 18.9631 35.7087 19.8269 35.6275L19.8035 35.3786L19.7801 35.1297C18.9577 35.207 17.8459 35.2856 17.0232 35.7944L17.1547 36.007ZM19.8035 35.3786L19.8197 35.6281C20.2759 35.5986 20.5046 35.2302 20.5046 34.8982C20.5046 34.7325 20.4495 34.5573 20.3237 34.4239C20.1929 34.2852 20.0052 34.2127 19.7873 34.2268L19.8035 34.4763L19.8197 34.7258C19.9025 34.7204 19.9404 34.7461 19.9599 34.7669C19.9845 34.7929 20.0046 34.8384 20.0046 34.8982C20.0046 34.9576 19.9844 35.0145 19.9504 35.0549C19.9198 35.0914 19.8707 35.1238 19.7873 35.1292L19.8035 35.3786ZM19.8035 34.4763V34.2263C19.6068 34.2263 19.3823 34.2255 19.1544 34.2698L19.2021 34.5152L19.2498 34.7606C19.4228 34.727 19.5992 34.7263 19.8035 34.7263V34.4763ZM19.2021 34.5152L19.4053 34.3697C18.8842 33.6419 18.6972 32.7674 18.8471 31.8891L18.6006 31.8471L18.3542 31.805C18.1828 32.8094 18.3967 33.8201 18.9988 34.6608L19.2021 34.5152ZM18.6006 31.8471H18.8506C18.8506 31.8792 18.8426 31.9014 18.8403 31.9072C18.8386 31.9119 18.8371 31.9141 18.8435 31.9016C18.8475 31.8938 18.8589 31.8718 18.8682 31.847C18.878 31.821 18.8905 31.7797 18.8905 31.7289H18.6405H18.3905C18.3905 31.6983 18.3979 31.677 18.4003 31.6708C18.4021 31.6658 18.4036 31.6636 18.3976 31.6754C18.394 31.6825 18.3826 31.7043 18.3734 31.7285C18.3637 31.7538 18.3506 31.7955 18.3506 31.8471H18.6006ZM18.6405 31.7289L18.8879 31.7647C18.9233 31.5199 18.9952 31.3076 19.1099 31.0447L18.8808 30.9447L18.6516 30.8448C18.5273 31.1297 18.4373 31.3875 18.393 31.6931L18.6405 31.7289ZM18.8808 30.9447L19.109 31.0468C19.6306 29.8808 20.7874 29.112 22.0981 29.0757L22.0912 28.8258L22.0842 28.5759C20.5855 28.6174 19.2542 29.4976 18.6526 30.8426L18.8808 30.9447ZM22.0912 28.8258V29.0758C22.3131 29.0758 22.4956 28.9861 22.6192 28.8421C22.7383 28.7033 22.7922 28.5268 22.7922 28.36C22.7922 28.1935 22.7383 28.0161 22.6145 27.8799C22.4852 27.7375 22.2968 27.6596 22.075 27.6739L22.0912 27.9234L22.1073 28.1729C22.1863 28.1678 22.2234 28.1929 22.2444 28.216C22.271 28.2453 22.2922 28.296 22.2922 28.36C22.2922 28.4236 22.271 28.48 22.2397 28.5165C22.2129 28.5477 22.17 28.5758 22.0912 28.5758V28.8258ZM22.0912 27.9234L22.0856 27.6735C20.2251 27.7145 18.5721 28.7909 17.8095 30.4891L18.0376 30.5915L18.2657 30.694C18.9478 29.1749 20.4255 28.2102 22.0967 28.1733L22.0912 27.9234ZM18.0376 30.5915L17.815 30.4777C17.7742 30.5576 17.7358 30.6338 17.6957 30.7098L17.9168 30.8266L18.1378 30.9433C18.18 30.8635 18.2214 30.7813 18.2602 30.7054L18.0376 30.5915ZM17.9168 30.8266L18.0916 30.6478C17.677 30.2424 17.3697 29.7574 17.0921 29.2542L16.8732 29.375L16.6543 29.4957C16.9397 30.013 17.275 30.5486 17.742 31.0053L17.9168 30.8266ZM16.8732 29.375L16.9422 29.6152C17.6372 29.4156 18.3582 29.1287 18.9191 28.6653L18.7599 28.4726L18.6007 28.2799C18.1179 28.6786 17.4741 28.9422 16.8042 29.1347L16.8732 29.375ZM18.7599 28.4726L18.9347 28.6513C19.0937 28.4958 19.1656 28.3047 19.1506 28.112C19.1363 27.9267 19.0439 27.7649 18.922 27.649C18.6815 27.4205 18.2528 27.3156 17.9116 27.6182L18.0774 27.8052L18.2433 27.9923C18.3443 27.9028 18.4771 27.916 18.5775 28.0115C18.626 28.0575 18.6489 28.1091 18.6521 28.1506C18.6548 28.1847 18.6465 28.2338 18.5851 28.2939L18.7599 28.4726ZM18.0774 27.8052L17.9197 27.6113C17.4844 27.9654 16.8926 28.1511 16.2884 28.3086L16.3514 28.5505L16.4145 28.7924C17.0159 28.6357 17.7066 28.4293 18.2352 27.9992L18.0774 27.8052ZM16.3514 28.5505L16.2962 28.3067C16.0436 28.3639 15.7245 28.4179 15.422 28.4133C15.113 28.4086 14.8656 28.3434 14.7119 28.2066L14.5458 28.3934L14.3796 28.5802C14.6667 28.8356 15.0612 28.9079 15.4144 28.9133C15.7742 28.9188 16.1375 28.8553 16.4067 28.7943L16.3514 28.5505ZM14.5458 28.3934L14.7206 28.2147C14.7038 28.1982 14.6927 28.1864 14.6856 28.178C14.6783 28.1694 14.6781 28.1678 14.6806 28.1723C14.6833 28.1772 14.6909 28.1922 14.6945 28.2155C14.6984 28.2406 14.6964 28.2664 14.6893 28.2897C14.6828 28.3111 14.674 28.3238 14.6716 28.3272C14.6693 28.3303 14.6703 28.3282 14.6788 28.3201C14.6871 28.3122 14.699 28.3017 14.7166 28.2872C14.7341 28.2729 14.7546 28.2567 14.7796 28.237L14.6254 28.0403L14.4712 27.8435C14.4234 27.881 14.3729 27.9207 14.3328 27.9591C14.2955 27.9949 14.2378 28.0561 14.211 28.144C14.1789 28.2493 14.2041 28.3445 14.2439 28.4158C14.2781 28.4772 14.3278 28.5299 14.371 28.5722L14.5458 28.3934ZM14.6254 28.0403L14.7683 28.2454C15.038 28.0575 15.2775 27.9619 15.5904 27.7872L15.4685 27.5689L15.3467 27.3506C15.0966 27.4902 14.7758 27.6309 14.4825 27.8351L14.6254 28.0403ZM15.4685 27.5689L15.5967 27.7836C16.3703 27.3219 16.9675 26.5682 17.2678 25.7733L17.0339 25.685L16.8 25.5966C16.5373 26.2923 16.0113 26.9539 15.3404 27.3543L15.4685 27.5689ZM17.0339 25.685L17.2629 25.7852C17.3521 25.5815 17.3421 25.3758 17.2371 25.2072C17.1385 25.0488 16.9757 24.9544 16.8145 24.9133C16.4978 24.8327 16.0637 24.9347 15.8821 25.3498L16.1112 25.45L16.3402 25.5502C16.3989 25.416 16.5463 25.361 16.6911 25.3978C16.7605 25.4155 16.7984 25.4485 16.8127 25.4715C16.8206 25.4842 16.8359 25.5139 16.8049 25.5848L17.0339 25.685ZM16.1112 25.45L15.8796 25.3559C15.8057 25.5376 15.6914 25.7605 15.5767 25.9478L15.7899 26.0784L16.0031 26.2089C16.13 26.0016 16.2573 25.7544 16.3428 25.5441L16.1112 25.45ZM15.7899 26.0784L16.0332 26.0211C15.915 25.5192 15.8258 25.0156 15.7406 24.511C15.6558 24.0087 15.5745 23.5026 15.4732 23.007L15.2283 23.0571L14.9833 23.1072C15.0825 23.5919 15.1618 24.0861 15.2476 24.5943C15.333 25.1001 15.4244 25.6171 15.5465 26.1357L15.7899 26.0784ZM15.2283 23.0571L15.4684 22.9876C15.4141 22.7998 15.3088 22.6523 15.157 22.5653C15.0082 22.48 14.8437 22.4693 14.6986 22.4975L14.7463 22.7429L14.794 22.9883C14.8494 22.9775 14.886 22.9863 14.9082 22.999C14.9274 23.01 14.9628 23.0391 14.9881 23.1266L15.2283 23.0571ZM14.7463 22.7429L14.9211 22.5641C14.8033 22.4489 14.6686 22.4539 14.6255 22.4539V22.7039V22.9539C14.6371 22.9539 14.6397 22.954 14.6411 22.9541C14.6415 22.9541 14.636 22.9538 14.6275 22.9517C14.6183 22.9495 14.6073 22.9457 14.5961 22.9395C14.5849 22.9334 14.5767 22.9267 14.5715 22.9216L14.7463 22.7429ZM14.6255 22.7039L14.6174 22.454C13.4668 22.4913 12.345 22.1539 11.3245 21.6548L11.2147 21.8794L11.1048 22.104C12.1714 22.6256 13.3757 22.9945 14.6336 22.9538L14.6255 22.7039ZM11.2147 21.8794L11.3339 21.6597C10.9672 21.4606 10.6301 21.2765 10.3717 21.0596L10.2109 21.251L10.0502 21.4425C10.3547 21.6981 10.7399 21.9061 11.0954 22.0991L11.2147 21.8794ZM10.2109 21.251L10.3585 21.0492C10.2699 20.9844 10.2219 20.8903 10.2026 20.7469C10.1822 20.595 10.1981 20.4189 10.2192 20.2177L9.97061 20.1916L9.72198 20.1655C9.70194 20.3563 9.67736 20.5924 9.70708 20.8135C9.73792 21.043 9.83063 21.2826 10.0633 21.4528L10.2109 21.251ZM9.97061 20.1916L10.2203 20.2048C10.2761 19.1538 10.8211 18.3022 11.6132 17.6582C12.408 17.012 13.4412 16.5852 14.4322 16.3953L14.3851 16.1498L14.3381 15.9042C13.2819 16.1066 12.1682 16.5626 11.2978 17.2702C10.4246 17.9801 9.78599 18.9533 9.72097 20.1783L9.97061 20.1916ZM14.3851 16.1498V16.3998C14.4737 16.3998 14.5587 16.3852 14.6405 16.3496C14.7213 16.3145 14.7862 16.2643 14.8414 16.2104L14.6666 16.0316L14.4918 15.8529C14.466 15.8781 14.4505 15.887 14.4411 15.8911C14.4326 15.8948 14.4174 15.8998 14.3851 15.8998V16.1498ZM14.6666 16.0316V16.2816C14.9786 16.2816 15.3345 16.0457 15.3958 15.6377L15.1486 15.6005L14.9013 15.5634C14.8803 15.7033 14.7556 15.7816 14.6666 15.7816V16.0316ZM15.1486 15.6005L15.3963 15.6341C15.4788 15.0247 15.5163 14.5101 15.6684 14.0282L15.43 13.9529L15.1916 13.8777C15.0225 14.4136 14.9776 15.0001 14.9008 15.567L15.1486 15.6005ZM15.43 13.9529L15.4582 14.2013C15.8807 14.1535 16.3457 14.3681 16.8025 14.7198C17.2519 15.0659 17.6492 15.5101 17.9274 15.8407L18.1187 15.6797L18.3099 15.5188C18.0265 15.182 17.6012 14.7038 17.1076 14.3237C16.6214 13.9493 16.0229 13.6342 15.4019 13.7045L15.43 13.9529ZM18.1187 15.6797L17.9336 15.8479C19.1836 17.2232 20.0102 18.9874 20.4433 20.8001L20.6864 20.742L20.9296 20.6839C20.4811 18.8068 19.6214 16.9615 18.3037 15.5116L18.1187 15.6797ZM20.6864 20.742L20.4495 20.8218C20.5121 21.0073 20.6414 21.1352 20.7771 21.2016L20.8869 20.977L20.9967 20.7524C20.9731 20.7408 20.9405 20.7129 20.9233 20.6621L20.6864 20.742ZM20.8869 20.977L20.65 21.0568C20.6945 21.1888 20.7851 21.2703 20.8712 21.3206C20.9494 21.3662 21.0374 21.3935 21.0917 21.411L21.1684 21.173L21.2451 20.9351C21.2138 20.925 21.1897 20.9172 21.1677 20.9088C21.1461 20.9006 21.1323 20.894 21.1234 20.8888C21.1148 20.8838 21.1141 20.882 21.1164 20.8846C21.1195 20.888 21.1224 20.893 21.1238 20.8971L20.8869 20.977ZM21.1684 21.173L21.1171 21.4177C22.781 21.7665 24.3926 22.3446 25.7598 23.3008L25.9031 23.0959L26.0464 22.8911C24.6066 21.8841 22.9255 21.2859 21.2197 20.9283L21.1684 21.173ZM25.9031 23.0959L25.7593 23.3005C26.999 24.1717 27.8962 25.3882 28.5248 26.7699L28.7523 26.6664L28.9799 26.5629C28.3232 25.1194 27.3749 23.8248 26.0468 22.8914L25.9031 23.0959ZM28.7523 26.6664L28.524 26.7682C29.1912 28.265 29.5451 30.0328 29.5061 31.6838L29.7561 31.6897L30.006 31.6956C30.0467 29.9709 29.6783 28.1294 28.9807 26.5646L28.7523 26.6664ZM29.7561 31.6897L29.5061 31.6848C29.4678 33.6484 28.5819 35.3849 27.0313 36.6355L27.1883 36.83L27.3452 37.0246C29.0051 35.6859 29.9647 33.8131 30.006 31.6946L29.7561 31.6897ZM27.1883 36.83L27.0528 36.6199C26.9712 36.6725 26.8964 36.7387 26.845 36.8295C26.7927 36.922 26.7776 37.0173 26.7776 37.1053H27.0276H27.2776C27.2776 37.0752 27.2824 37.0718 27.2802 37.0757C27.279 37.0779 27.2845 37.0655 27.3237 37.0402L27.1883 36.83ZM27.0276 37.1053L26.8203 36.9655C26.6774 37.1775 26.6951 37.4352 26.805 37.6502L27.0276 37.5364L27.2502 37.4226C27.2008 37.3259 27.2185 37.2694 27.2349 37.2451L27.0276 37.1053ZM27.0276 37.5364L26.8528 37.7151C26.8641 37.7261 26.8677 37.7298 26.8698 37.7321C26.8722 37.7349 26.8636 37.7261 26.8544 37.708C26.8445 37.6884 26.8288 37.6475 26.8356 37.5934C26.8426 37.5372 26.87 37.4987 26.8898 37.4787L27.0675 37.6545L27.2451 37.8304C27.2849 37.7903 27.3221 37.7318 27.3317 37.6557C27.341 37.5818 27.3203 37.5212 27.3004 37.4819C27.2677 37.4174 27.212 37.367 27.2024 37.3576L27.0276 37.5364ZM27.0675 37.6545L27.0426 37.4058L27.0411 37.4059L27.066 37.6547L27.0908 37.9034L27.0923 37.9033L27.0675 37.6545ZM36.0146 14.9721L36.0227 14.7222C33.5327 14.6416 31.1362 15.8169 29.5276 17.6315L29.7147 17.7974L29.9018 17.9632C31.4237 16.2463 33.6823 15.1468 36.0065 15.222L36.0146 14.9721ZM29.7147 17.7974L29.5267 17.6326C28.0314 19.3382 27.4539 21.5292 27.6602 23.668L27.9091 23.644L28.1579 23.62C27.9632 21.6014 28.509 19.5518 29.9027 17.9622L29.7147 17.7974ZM27.9091 23.644L28.0838 23.4653C27.6843 23.0745 27.2747 22.6737 26.8214 22.3103L26.665 22.5053L26.5086 22.7004C26.9396 23.0459 27.3319 23.4293 27.7343 23.8227L27.9091 23.644ZM26.665 22.5053L26.8171 22.307C25.2923 21.1373 23.4872 20.4997 21.6264 20.0638L21.5693 20.3072L21.5123 20.5506C23.3424 20.9793 25.0689 21.596 26.5128 22.7037L26.665 22.5053ZM21.5693 20.3072L21.8113 20.2443C21.2003 17.8924 19.9738 15.5669 18.0393 13.9173L17.8771 14.1075L17.7149 14.2978C19.5535 15.8656 20.7355 18.092 21.3274 20.37L21.5693 20.3072ZM17.8771 14.1075L18.0457 13.9229C17.417 13.3488 16.6087 12.887 15.7048 12.7615L15.6704 13.0091L15.6361 13.2567C16.4158 13.365 17.1343 13.7678 17.7085 14.2921L17.8771 14.1075ZM15.6704 13.0091L15.6946 12.7603C15.4723 12.7387 15.2164 12.7479 14.9849 12.8192C14.7525 12.8908 14.5191 13.0344 14.3993 13.2977L14.6269 13.4012L14.8544 13.5047C14.8953 13.4149 14.9831 13.3429 15.1321 13.297C15.282 13.2509 15.4676 13.2406 15.6463 13.2579L15.6704 13.0091ZM14.6269 13.4012L14.3954 13.3067C14.1403 13.9311 14.0565 14.6333 13.9779 15.2537L14.2259 15.2852L14.4739 15.3166C14.5546 14.6802 14.6328 14.0477 14.8583 13.4958L14.6269 13.4012ZM14.2259 15.2852V15.0352H14.1462V15.2852V15.5352H14.2259V15.2852ZM14.1462 15.2852L14.1011 15.0393C11.4675 15.5227 9.01583 17.3485 8.76047 20.168L9.00945 20.1905L9.25844 20.2131C9.4864 17.6961 11.6894 15.9903 14.1914 15.5311L14.1462 15.2852ZM9.00945 20.1905L8.76011 20.1724C8.71829 20.749 8.79735 21.4095 9.17014 21.9097L9.37059 21.7603L9.57103 21.6109C9.30122 21.2489 9.22095 20.7305 9.2588 20.2086L9.00945 20.1905ZM9.37059 21.7603L9.18438 21.9271C9.49791 22.2771 9.93466 22.5297 10.2949 22.7252L10.4142 22.5055L10.5334 22.2858C10.1714 22.0892 9.80622 21.8719 9.5568 21.5934L9.37059 21.7603ZM10.4142 22.5055L10.293 22.7242C11.5263 23.4077 12.9286 23.8525 14.3797 23.8941L14.3868 23.6442L14.394 23.3943C13.0352 23.3554 11.7105 22.9381 10.5353 22.2869L10.4142 22.5055ZM14.3868 23.6442L14.1412 23.6907C14.3361 24.721 14.4642 25.8182 14.7051 26.841L14.9484 26.7837L15.1918 26.7264C14.952 25.7081 14.8385 24.6864 14.6325 23.5977L14.3868 23.6442ZM14.9484 26.7837L14.8116 26.5744C14.5799 26.7259 14.3067 26.8785 14.0242 27.037L14.1465 27.255L14.2688 27.473C14.5466 27.3173 14.8363 27.1557 15.0852 26.9929L14.9484 26.7837ZM14.1465 27.255L14.0044 27.0493C13.6226 27.313 13.3504 27.6816 13.2873 28.0955C13.2224 28.5209 13.3858 28.9465 13.7826 29.2892L13.946 29.1L14.1094 28.9108C13.8237 28.664 13.7462 28.4028 13.7815 28.1709C13.8187 27.9275 13.9879 27.6684 14.2885 27.4607L14.1465 27.255ZM13.946 29.1L13.7784 29.2855C14.3854 29.8338 15.2453 29.8602 15.9412 29.7794L15.9123 29.5311L15.8835 29.2827C15.2144 29.3604 14.5502 29.3088 14.1136 28.9145L13.946 29.1ZM15.9123 29.5311L15.6877 29.6408C16.1402 30.5672 16.7221 31.3816 17.4744 32.0348L17.6383 31.8461L17.8022 31.6573C17.11 31.0563 16.566 30.2997 16.137 29.4213L15.9123 29.5311ZM17.6383 31.8461L17.3902 31.8155C17.2627 32.8513 17.4746 33.8847 17.9816 34.7932L18.1999 34.6713L18.4182 34.5495C17.9614 33.7311 17.7723 32.804 17.8865 31.8766L17.6383 31.8461ZM18.1999 34.6713L18.1601 34.4245C17.6521 34.5066 17.145 34.6722 16.6774 34.9222L16.7952 35.1426L16.9131 35.3631C17.3297 35.1404 17.7838 34.9918 18.2398 34.9181L18.1999 34.6713ZM16.7952 35.1426L16.6854 34.9181C16.2403 35.1357 15.8417 35.5039 15.5906 35.9403C15.3389 36.3778 15.2259 36.9029 15.393 37.418L15.6308 37.3408L15.8686 37.2637C15.7556 36.9153 15.8239 36.5374 16.024 36.1897C16.2246 35.8409 16.5482 35.5417 16.9051 35.3672L16.7952 35.1426ZM15.6308 37.3408L15.3956 37.4254C15.6951 38.2587 16.3974 38.6695 17.1442 38.8768C17.8861 39.0828 18.7207 39.1022 19.3553 39.1215L19.3628 38.8716L19.3704 38.6217C18.7213 38.602 17.9507 38.5818 17.278 38.3951C16.6102 38.2096 16.0883 37.8745 15.8661 37.2562L15.6308 37.3408ZM19.3628 38.8716L19.351 39.1213C20.9945 39.1992 22.6484 39.2789 24.345 39.2397L24.3392 38.9898L24.3334 38.7398C22.6574 38.7785 21.0212 38.6999 19.3747 38.6219L19.3628 38.8716ZM24.3392 38.9898V39.2398C25.0696 39.2398 25.8506 39.2005 26.6374 39.0386L26.587 38.7937L26.5366 38.5488C25.7966 38.7011 25.0534 38.7398 24.3392 38.7398V38.9898ZM26.587 38.7937L26.6269 39.0405C27.114 38.9618 27.7305 38.7934 28.0745 38.3103L27.8709 38.1653L27.6672 38.0203C27.451 38.3239 27.0239 38.4698 26.5471 38.5469L26.587 38.7937ZM27.8709 38.1653L28.0837 38.2965C28.2333 38.0537 28.2815 37.8101 28.2815 37.5771H28.0315H27.7815C27.7815 37.7362 27.7501 37.8848 27.6581 38.0341L27.8709 38.1653ZM28.0315 37.5771L27.9489 37.8131C31.3015 38.9876 35.6348 37.6581 37.6674 34.7376L37.4622 34.5948L37.257 34.4519C35.357 37.182 31.262 38.444 28.1142 37.3412L28.0315 37.5771ZM37.4622 34.5948L37.6656 34.7401C39.509 32.1594 38.9051 28.7517 37.9806 25.9991L37.7436 26.0787L37.5066 26.1583C38.4277 28.9007 38.947 32.0859 37.2587 34.4494L37.4622 34.5948ZM37.7436 26.0787L37.6984 26.3246C38.3805 26.45 39.1385 26.4066 39.8088 26.2438L39.7498 26.0008L39.6908 25.7579C39.0785 25.9067 38.392 25.9438 37.7888 25.8329L37.7436 26.0787ZM39.7498 26.0008L39.8164 26.2418C42.0854 25.6144 43.25 23.3267 43.25 21.2138H43H42.75C42.75 23.1803 41.6681 25.211 39.6832 25.7599L39.7498 26.0008ZM43 21.2138L43.2499 21.2085C43.1666 17.3089 39.6868 14.8052 36.0231 14.724L36.0176 14.974L36.0121 15.2239C39.4915 15.301 42.6741 17.6634 42.7501 21.2192L43 21.2138ZM36.0176 14.974L36.1509 14.7625L36.1479 14.7606L36.0146 14.9721L35.8813 15.1836L35.8843 15.1855L36.0176 14.974Z" fill="var(--stroke-0, #0F75FF)" mask="url(#path-2-outside-1_0_35)"/>
</g>
</g>
</svg>
