<svg preserveAspectRatio="none" width="100%" height="100%" overflow="visible" style="display: block;" viewBox="0 0 50 50" fill="none" xmlns="http://www.w3.org/2000/svg">
<g id="Group 1707479585">
<circle id="Ellipse 8" cx="25" cy="25" r="24.5" stroke="var(--stroke-0, #0F75FF)"/>
<path id="Vector" fill-rule="evenodd" clip-rule="evenodd" d="M34 26.1778V26.4497C34 30.9536 30.3905 34.6325 25.8471 34.8688V40.3439H28.1005C28.5689 40.3439 28.9484 40.7152 28.9484 41.1719C28.9484 41.6287 28.5689 42 28.1005 42H21.7741C21.3056 42 20.9261 41.6287 20.9261 41.1719C20.9261 40.7152 21.3056 40.3439 21.7741 40.3439H24.1529V34.8688C19.6096 34.6326 16 30.9536 16 26.4497V26.1778V26.167C16 25.7087 16.3795 25.3389 16.8464 25.3389C17.3132 25.3389 17.6928 25.7087 17.6928 26.167V26.1778V26.4497C17.6928 30.1908 20.7941 33.2234 24.618 33.2234H25.3818C29.2057 33.2234 32.3054 30.1907 32.3054 26.4497V26.1778V26.167C32.3054 25.7087 32.6849 25.3389 33.1534 25.3389C33.6202 25.3389 33.9998 25.7087 33.9998 26.167L34 26.1778ZM25.9044 13C28.3087 13 30.2587 14.9063 30.2587 17.2584V26.6686C30.2587 29.0208 28.3087 30.9271 25.9044 30.9271H24.0941C21.6898 30.9271 19.7414 29.0208 19.7414 26.6686V17.2584C19.7414 14.9063 21.6899 13 24.0941 13H25.9044ZM25.9044 14.6562H24.0941C22.6268 14.6562 21.4358 15.8214 21.4358 17.2585V26.6687C21.4358 28.1058 22.6268 29.2694 24.0941 29.2694H25.9044C27.3733 29.2694 28.5643 28.1058 28.5643 26.6687V17.2585C28.5643 15.8214 27.3733 14.6562 25.9044 14.6562Z" fill="var(--fill-0, #0F75FF)"/>
</g>
</svg>
