<svg preserveAspectRatio="none" width="100%" height="100%" overflow="visible" style="display: block;" viewBox="0 0 50 50" fill="none" xmlns="http://www.w3.org/2000/svg">
<g id="Group 470081">
<circle id="Ellipse 6" cx="25" cy="25" r="24.5" stroke="var(--stroke-0, #0F75FF)"/>
<g id="Group 470080">
<path id="Vector" d="M35.9999 22.2986L33.857 9.62204C33.6097 8.15869 32.2169 7.1695 30.7535 7.4168C29.2902 7.6641 28.301 9.05591 28.5483 10.5203L29.5549 16.4728L21.3685 13.3427C20.1136 12.8624 18.7177 13.3877 18.0709 14.52C16.2867 14.6845 15.2341 15.9864 15.2341 18.0731V18.0935L15.9198 28.2541L15.3506 29.8391C14.6087 31.9043 14.903 34.224 16.1385 36.045C16.3582 36.369 16.6004 36.6684 16.863 36.9433V42.6914H18.0893V37.956C19.0836 38.5936 20.2383 38.9595 21.4635 39.0003C21.5443 39.0034 21.625 39.0044 21.7068 39.0044H23.2018V37.7782H21.7068C21.6393 37.7782 21.5719 37.7771 21.5054 37.7751C19.7417 37.7158 18.1557 36.8339 17.1532 35.3563C16.1221 33.8367 15.8861 31.9769 16.5053 30.254L17.1614 28.4279L16.4604 18.0526C16.4655 16.8366 16.8875 16.0947 17.7142 15.8351C17.7112 16.2163 17.7888 16.5975 17.9493 16.9561C18.2426 17.6122 18.7739 18.116 19.4453 18.3725L22.0614 19.3729L19.942 19.329C19.9236 19.329 19.9041 19.329 19.8858 19.329C18.4265 19.329 17.2248 20.5 17.1951 21.9654C17.1706 23.1529 17.9237 24.1788 18.9855 24.5569C18.6493 25.0045 18.4612 25.5431 18.45 26.1133C18.4357 26.8327 18.7014 27.5143 19.199 28.0324C19.6967 28.5505 20.3671 28.8448 21.0854 28.8601L22.5651 28.8908C22.4946 28.9531 22.4251 29.0165 22.3587 29.0829C21.4646 29.9699 20.972 31.1512 20.972 32.4112V34.7155H22.1983V32.4112C22.1983 31.4813 22.5621 30.6086 23.2222 29.9535C23.8793 29.3026 24.7499 28.947 25.6809 28.9552L27.2188 28.9868L27.2444 27.7606L21.111 27.6339C20.7196 27.6257 20.3548 27.4663 20.084 27.1832C19.8132 26.9012 19.6681 26.5292 19.6763 26.1378C19.6844 25.7464 19.8439 25.3816 20.1269 25.1108C20.3303 24.9156 20.5786 24.7869 20.8473 24.7327L25.5419 24.8298L27.3537 24.8819L30.9191 32.0362L28.5105 36.8564V42.6924H29.7368V37.1466L35.2938 26.0285L35.2774 25.9896L35.3071 25.9947L35.9999 22.3016V22.2986ZM31.6058 30.6617L28.1242 23.6751L25.9905 23.6137V23.6107L25.5736 23.6025L21.1979 23.4758C21.0487 23.4727 20.9015 23.4819 20.7564 23.5034L19.8571 23.485C19.0488 23.4686 18.405 22.7973 18.4214 21.9889C18.4377 21.1908 19.0917 20.5532 19.8868 20.5532C19.897 20.5532 19.9072 20.5532 19.9174 20.5532L28.7016 20.7341L30.0352 24.1717L31.1787 23.7282L29.5477 19.5241L25.6042 19.4434L25.6145 19.4158L19.8837 17.2249C19.5179 17.0849 19.2287 16.811 19.0693 16.4534C18.9098 16.0957 18.8986 15.6972 19.0386 15.3324C19.3278 14.5772 20.176 14.1981 20.9311 14.4862L30.7188 18.2284L33.9469 25.9784L31.6068 30.6607L31.6058 30.6617ZM31.6477 17.2719L30.8843 16.9796L29.7572 10.3149C29.6223 9.5178 30.1619 8.75956 30.9579 8.6257C31.755 8.49081 32.5122 9.03036 32.6471 9.82642L34.7532 22.2873L34.4375 23.9714L31.6467 17.2719H31.6477Z" fill="var(--fill-0, #0F75FF)"/>
<path id="Vector_2" d="M19.6755 7.33008H18.4492V10.3538H19.6755V7.33008Z" fill="var(--fill-0, #0F75FF)"/>
<path id="Vector_3" d="M23.1094 8.37712L20.9717 10.5156L21.8389 11.3826L23.9767 9.24407L23.1094 8.37712Z" fill="var(--fill-0, #0F75FF)"/>
<path id="Vector_4" d="M15.0147 8.37914L14.1475 9.24609L16.2852 11.3846L17.1525 10.5176L15.0147 8.37914Z" fill="var(--fill-0, #0F75FF)"/>
</g>
</g>
</svg>
