<svg preserveAspectRatio="none" width="100%" height="100%" overflow="visible" style="display: block;" viewBox="0 0 100 20" fill="none" xmlns="http://www.w3.org/2000/svg">
<g id="Frame 470110">
<path id="Star 1" d="M8.63521 3.06182C9.16172 1.88063 10.8383 1.88064 11.3648 3.06182L12.4117 5.41047C12.6289 5.89764 13.0892 6.23212 13.6197 6.2881L16.1769 6.558C17.463 6.69374 17.981 8.28825 17.0204 9.154L15.1102 10.8754C14.714 11.2325 14.5381 11.7737 14.6488 12.2955L15.1823 14.8109C15.4506 16.076 14.0943 17.0615 12.974 16.4154L10.7466 15.1306C10.2845 14.8641 9.71548 14.8641 9.25344 15.1306L7.02597 16.4154C5.90573 17.0615 4.54936 16.076 4.81768 14.8109L5.35122 12.2955C5.46188 11.7737 5.28604 11.2325 4.88982 10.8754L2.97963 9.154C2.01896 8.28825 2.53705 6.69374 3.82312 6.558L6.38034 6.2881C6.91077 6.23212 7.37114 5.89764 7.58829 5.41047L8.63521 3.06182Z" fill="var(--fill-0, #FFB800)"/>
<path id="Star 2" d="M28.6352 3.06179C29.1617 1.88061 30.8383 1.88061 31.3648 3.0618L32.4117 5.41045C32.6289 5.89762 33.0892 6.2321 33.6197 6.28808L36.1769 6.55798C37.463 6.69372 37.981 8.28823 37.0204 9.15397L35.1102 10.8754C34.714 11.2325 34.5381 11.7737 34.6488 12.2955L35.1823 14.8109C35.4506 16.076 34.0943 17.0615 32.974 16.4153L30.7466 15.1306C30.2845 14.8641 29.7155 14.8641 29.2534 15.1306L27.026 16.4153C25.9057 17.0615 24.5494 16.076 24.8177 14.8109L25.3512 12.2955C25.4619 11.7737 25.286 11.2325 24.8898 10.8754L22.9796 9.15397C22.019 8.28822 22.537 6.69372 23.8231 6.55798L26.3803 6.28808C26.9108 6.2321 27.3711 5.89762 27.5883 5.41045L28.6352 3.06179Z" fill="var(--fill-0, #FFB800)"/>
<path id="Star 3" d="M48.6352 3.06179C49.1617 1.88061 50.8383 1.88061 51.3648 3.0618L52.4117 5.41045C52.6289 5.89762 53.0892 6.2321 53.6197 6.28808L56.1769 6.55798C57.463 6.69372 57.981 8.28823 57.0204 9.15397L55.1102 10.8754C54.714 11.2325 54.5381 11.7737 54.6488 12.2955L55.1823 14.8109C55.4506 16.076 54.0943 17.0615 52.974 16.4153L50.7466 15.1306C50.2845 14.8641 49.7155 14.8641 49.2534 15.1306L47.026 16.4153C45.9057 17.0615 44.5494 16.076 44.8177 14.8109L45.3512 12.2955C45.4619 11.7737 45.286 11.2325 44.8898 10.8754L42.9796 9.15397C42.019 8.28822 42.537 6.69372 43.8231 6.55798L46.3803 6.28808C46.9108 6.2321 47.3711 5.89762 47.5883 5.41045L48.6352 3.06179Z" fill="var(--fill-0, #FFB800)"/>
<path id="Star 4" d="M68.6352 3.06179C69.1617 1.88061 70.8383 1.88061 71.3648 3.0618L72.4117 5.41045C72.6289 5.89762 73.0892 6.2321 73.6197 6.28808L76.1769 6.55798C77.463 6.69372 77.981 8.28823 77.0204 9.15397L75.1102 10.8754C74.714 11.2325 74.5381 11.7737 74.6488 12.2955L75.1823 14.8109C75.4506 16.076 74.0943 17.0615 72.974 16.4153L70.7466 15.1306C70.2845 14.8641 69.7155 14.8641 69.2534 15.1306L67.026 16.4153C65.9057 17.0615 64.5494 16.076 64.8177 14.8109L65.3512 12.2955C65.4619 11.7737 65.286 11.2325 64.8898 10.8754L62.9796 9.15397C62.019 8.28822 62.537 6.69372 63.8231 6.55798L66.3803 6.28808C66.9108 6.2321 67.3711 5.89762 67.5883 5.41045L68.6352 3.06179Z" fill="var(--fill-0, #FFB800)"/>
<path id="Star 5" d="M88.6352 3.06179C89.1617 1.88061 90.8383 1.88061 91.3648 3.0618L92.4117 5.41045C92.6289 5.89762 93.0892 6.2321 93.6197 6.28808L96.1769 6.55798C97.463 6.69372 97.981 8.28823 97.0204 9.15397L95.1102 10.8754C94.714 11.2325 94.5381 11.7737 94.6488 12.2955L95.1823 14.8109C95.4506 16.076 94.0943 17.0615 92.974 16.4153L90.7466 15.1306C90.2845 14.8641 89.7155 14.8641 89.2534 15.1306L87.026 16.4153C85.9057 17.0615 84.5494 16.076 84.8177 14.8109L85.3512 12.2955C85.4619 11.7737 85.286 11.2325 84.8898 10.8754L82.9796 9.15397C82.019 8.28822 82.537 6.69372 83.8231 6.55798L86.3803 6.28808C86.9108 6.2321 87.3711 5.89762 87.5883 5.41045L88.6352 3.06179Z" fill="var(--fill-0, #FFB800)"/>
</g>
</svg>
