<svg preserveAspectRatio="none" width="100%" height="100%" overflow="visible" style="display: block;" viewBox="0 0 50 50" fill="none" xmlns="http://www.w3.org/2000/svg">
<g id="Frame 1707479829">
<path id="Vector" d="M23.9448 45.8483C24.5557 46.177 25.3225 46.1748 25.9334 45.8461C42.582 36.8349 43.7644 19.229 43.7499 14.223C43.7481 13.8206 43.6301 13.4275 43.4102 13.0917C43.1903 12.7559 42.8779 12.492 42.5114 12.3324L25.7838 4.86627C25.5176 4.74804 25.2298 4.68715 24.9389 4.6875C24.648 4.68786 24.3604 4.74946 24.0944 4.86835L7.48326 12.3345C7.12209 12.4942 6.81412 12.7551 6.59603 13.0863C6.37794 13.4174 6.25889 13.8047 6.2531 14.202C6.18246 19.1829 7.17779 36.8265 23.9448 45.8483ZM18.0975 21.8524L22.8623 26.6533L31.7829 17.665L34.7211 20.6255L22.8623 32.5742L15.1592 24.8129L18.0975 21.8524Z" fill="var(--fill-0, #0F75FF)"/>
</g>
</svg>
