<svg preserveAspectRatio="none" width="100%" height="100%" overflow="visible" style="display: block;" viewBox="0 0 50 50" fill="none" xmlns="http://www.w3.org/2000/svg">
<g id="Frame 1707479829">
<path id="Vector" d="M41.875 14.0535C41.25 13.2274 40 12.8143 38.9583 12.8143H33.9584V10.9555C33.9584 8.89009 32.2917 7.03125 29.9999 7.03125H3.95833C1.875 7.03125 0 8.68355 0 10.9555V32.4354C0 34.5007 1.66666 36.3596 3.95833 36.3596H5.625C6.04165 40.0773 9.16666 42.9688 12.9166 42.9688C16.6666 42.9688 19.9999 40.0773 20.2084 36.3596H30.8333C31.25 40.0773 34.3749 42.9688 38.125 42.9688C41.875 42.9688 45.2083 40.0773 45.4166 36.3596H46.0416C48.1249 36.3596 50 34.7073 50 32.4354V24.5869C50 23.5542 49.5833 22.7281 48.9583 21.9019L41.875 14.0535ZM12.9166 38.8379C11.25 38.8379 9.79165 37.3923 9.79165 35.74C9.79165 34.0877 11.25 32.6419 12.9166 32.6419C14.5833 32.6419 16.0416 34.0877 16.0416 35.74C16.0416 37.3923 14.5833 38.8379 12.9166 38.8379ZM38.125 38.8379C36.4583 38.8379 34.9999 37.3923 34.9999 35.74C34.9999 34.0877 36.4583 32.6419 38.125 32.6419C39.7916 32.6419 41.25 34.0877 41.25 35.74C41.4583 37.3923 39.9999 38.8379 38.125 38.8379ZM44.3749 24.5869H34.7916C34.3749 24.5869 34.1666 24.3804 34.1666 23.9673V17.5646C34.1666 17.1516 34.3749 16.945 34.7916 16.945H38.5416C38.7499 16.945 38.9583 16.945 38.9583 17.1516L44.7916 23.5542C45.2083 23.9673 44.7916 24.5869 44.3749 24.5869Z" fill="var(--fill-0, #0F75FF)"/>
</g>
</svg>
