<svg preserveAspectRatio="none" width="100%" height="100%" overflow="visible" style="display: block;" viewBox="0 0 50 50" fill="none" xmlns="http://www.w3.org/2000/svg">
<g id="Frame 1707479829">
<path id="Vector" d="M36.2946 19.7265H35.0251V14.4531C35.0251 8.63653 30.47 3.90625 24.8688 3.90625C19.2676 3.90625 14.7125 8.63653 14.7125 14.4531V19.7265H13.443C11.344 19.7265 9.6344 21.5003 9.6344 23.6816V42.1387C9.6344 44.3202 11.344 46.0938 13.443 46.0938H36.2946C38.3935 46.0938 40.1031 44.3202 40.1031 42.1387V23.6816C40.1031 21.5003 38.3935 19.7265 36.2946 19.7265ZM18.0979 14.4531C18.0979 10.5754 21.1347 7.42187 24.8688 7.42187C28.6029 7.42187 31.6396 10.5754 31.6396 14.4531V19.7265H18.0979V14.4531ZM26.5614 33.3005V37.3047C26.5614 38.275 25.8049 39.0625 24.8688 39.0625C23.9327 39.0625 23.176 38.275 23.176 37.3047V33.3005C22.1689 32.6904 21.4834 31.569 21.4834 30.2735C21.4834 28.3345 23.0017 26.7578 24.8688 26.7578C26.7358 26.7578 28.2542 28.3345 28.2542 30.2735C28.2542 31.569 27.5687 32.6904 26.5614 33.3005Z" fill="var(--fill-0, #0F75FF)"/>
</g>
</svg>
