<svg preserveAspectRatio="xMidYMid meet" width="100%" height="100%" overflow="visible" style="display: block;" viewBox="0 0 44 44" fill="none" xmlns="http://www.w3.org/2000/svg">
<g id="ergoz-int-bogo-icon-shape.svg" clip-path="url(#clip0_0_6)">
<path id="Vector" d="M3.83753 10.9937C3.09392 10.9937 2.42071 11.2952 1.93347 11.7824C1.44623 12.2696 1.14484 12.9428 1.14484 13.6864C1.14484 14.43 1.44623 15.1032 1.93347 15.5905C2.42072 16.0778 3.09392 16.3791 3.83753 16.3791C4.58115 16.3791 5.25435 16.0778 5.74159 15.5905C6.22883 15.1032 6.53022 14.43 6.53022 13.6864C6.53022 12.9428 6.22885 12.2696 5.74159 11.7824C5.25435 11.2952 4.58115 10.9937 3.83753 10.9937ZM40.3493 32.5866C40.904 32.4618 41.3936 32.1663 41.7597 31.7585C42.1868 31.2827 42.4465 30.6517 42.4465 29.9584C42.4465 29.2414 42.1675 28.5905 41.7124 28.1085C41.3535 27.7284 40.8852 27.4529 40.358 27.3322C40.2274 28.1467 39.8405 28.8757 39.2825 29.4336C39.073 29.6431 38.8393 29.8284 38.5862 29.9852C38.8394 30.142 39.073 30.3273 39.2825 30.5368C39.8286 31.0829 40.2109 31.7929 40.3493 32.5866ZM41.767 26.6926C42.0532 26.8694 42.3144 27.0826 42.5441 27.3259C43.1934 28.0135 43.5914 28.9399 43.5914 29.9584C43.5914 30.9408 43.2199 31.8384 42.6093 32.5187C42.0375 33.1558 41.2565 33.6006 40.375 33.7445C40.2641 34.6065 39.8672 35.3791 39.2825 35.9638C38.6858 36.5605 37.8935 36.9617 37.01 37.0628C36.877 37.8711 36.4915 38.5943 35.9371 39.1486C35.3648 39.721 34.6125 40.1134 33.7725 40.2337C33.6742 41.123 33.272 41.9208 32.6719 42.5208C31.9775 43.2153 31.0181 43.6449 29.9584 43.6449C28.8988 43.6449 27.9394 43.2153 27.2449 42.5208C27.0354 42.3113 26.8501 42.0776 26.6933 41.8245C26.5366 42.0776 26.3512 42.3113 26.1417 42.5208C25.4473 43.2153 24.4879 43.6449 23.4282 43.6449C22.3685 43.6449 21.4091 43.2153 20.7147 42.5208C20.5052 42.3113 20.3198 42.0776 20.1631 41.8245C20.0063 42.0776 19.821 42.3113 19.6115 42.5208C18.917 43.2153 17.9577 43.6449 16.898 43.6449C15.8383 43.6449 14.8789 43.2153 14.1844 42.5208C13.9749 42.3113 13.7896 42.0776 13.6328 41.8245C13.4761 42.0776 13.2908 42.3113 13.0813 42.5208C12.3868 43.2153 11.4274 43.6449 10.3677 43.6449C9.30807 43.6449 8.34873 43.2153 7.65426 42.5208C7.44475 42.3113 7.25941 42.0776 7.10264 41.8245C6.94588 42.0776 6.76054 42.3113 6.55103 42.5208C5.85656 43.2153 4.89718 43.6449 3.83753 43.6449C2.77788 43.6449 1.8185 43.2153 1.12404 42.5208C0.42955 41.8263 0 40.8669 0 39.8073C0 38.7477 0.429559 37.7883 1.12404 37.0938C1.33353 36.8843 1.56717 36.699 1.82037 36.5422C1.56717 36.3855 1.33353 36.2001 1.12404 35.9906C0.42955 35.2961 0 34.3367 0 33.2771C0 32.2174 0.429559 31.258 1.12404 30.5636C1.33353 30.3541 1.56717 30.1687 1.82037 30.012C1.56717 29.8553 1.33353 29.6699 1.12404 29.4603C0.42955 28.7659 0 27.8065 0 26.7469C0 25.6872 0.429559 24.7278 1.12404 24.0333C1.33353 23.8238 1.56717 23.6385 1.82037 23.4818C1.56717 23.325 1.33353 23.1397 1.12404 22.9302C0.429559 22.2357 0 21.2763 0 20.2167C0 19.1571 0.42955 18.1976 1.12404 17.5032C1.33353 17.2936 1.56717 17.1083 1.82037 16.9516C1.56717 16.7948 1.33353 16.6095 1.12404 16.4C0.429559 15.7055 0 14.7461 0 13.6864C0 12.6268 0.42955 11.6675 1.12404 10.973C1.69636 10.4006 2.44864 10.0082 3.28866 9.88788C3.38697 8.99854 3.78918 8.20078 4.38922 7.60076C4.98615 7.00381 5.77881 6.6026 6.66263 6.50168C6.80855 5.61631 7.25685 4.8334 7.89778 4.26282C8.42963 3.78934 9.09363 3.46154 9.82718 3.342C9.93825 2.4805 10.3351 1.70846 10.9195 1.12404C11.6139 0.429559 12.5733 0 13.633 0C14.6926 0 15.652 0.429559 16.3464 1.12404C16.5559 1.33353 16.7414 1.56716 16.8981 1.82036C17.0548 1.56717 17.2402 1.33353 17.4497 1.12404C18.1442 0.429559 19.1035 0 20.1632 0C21.2228 0 22.1822 0.429559 22.8767 1.12404C23.0862 1.33354 23.2715 1.56715 23.4283 1.82036C23.5851 1.56716 23.7704 1.33353 23.9799 1.12404C24.6744 0.429567 25.6338 0 26.6935 0C27.753 0 28.7124 0.429559 29.4069 1.12404C29.6164 1.33353 29.8017 1.56716 29.9585 1.82036C30.1153 1.56717 30.3006 1.33353 30.5101 1.12404C31.2046 0.429559 32.164 0 33.2236 0C34.2833 0 35.2427 0.429559 35.9371 1.12404C36.1466 1.33353 36.332 1.56716 36.4888 1.82036C36.6455 1.56717 36.8309 1.33353 37.0404 1.12404C37.7348 0.429559 38.6942 0 39.7538 0C40.8135 0 41.7729 0.429559 42.4674 1.12404C43.1618 1.81851 43.5914 2.77788 43.5914 3.83754C43.5914 4.84045 43.2037 5.75531 42.5694 6.44103C42.3337 6.69583 42.064 6.91857 41.7677 7.10211C42.0612 7.28345 42.3284 7.50316 42.5622 7.75428C43.2007 8.44013 43.5914 9.35889 43.5914 10.3677C43.5914 11.3752 43.2017 12.293 42.5644 12.9787C42.3303 13.2308 42.0627 13.4512 41.7686 13.633C42.0598 13.813 42.325 14.0309 42.5576 14.2796C43.1988 14.9656 43.5914 15.8862 43.5914 16.898C43.5914 17.9265 43.1848 18.8617 42.5233 19.5523C42.2991 19.7863 42.0453 19.9919 41.7679 20.1631C42.0481 20.3363 42.3042 20.5442 42.5302 20.7811C43.1877 21.4702 43.5914 22.4026 43.5914 23.4282C43.5914 24.4467 43.1915 25.3743 42.5395 26.0633C42.3108 26.3049 42.0513 26.5168 41.767 26.6926ZM40.3493 26.0568C40.8801 25.9376 41.3515 25.6619 41.7122 25.2807C42.1674 24.7997 42.4465 24.1478 42.4465 23.4282C42.4465 22.7062 42.1637 22.0511 41.7029 21.5682C41.345 21.1931 40.8803 20.9212 40.358 20.8016C40.2275 21.6163 39.8406 22.3454 39.2825 22.9033C39.073 23.1128 38.8393 23.2982 38.5862 23.455C38.8393 23.6117 39.073 23.7971 39.2825 24.0066C39.8287 24.5528 40.211 25.2629 40.3493 26.0568ZM40.3493 19.5266C40.8735 19.4082 41.3404 19.1365 41.7004 18.7607C42.1626 18.2783 42.4465 17.6222 42.4465 16.898C42.4465 16.186 42.1712 15.5389 41.7213 15.0578C41.3613 14.6726 40.8895 14.3933 40.358 14.2718C40.2273 15.0863 39.8405 15.8152 39.2825 16.3731C39.073 16.5826 38.8393 16.768 38.5862 16.9247C38.8393 17.0815 39.073 17.2669 39.2825 17.4764C39.8287 18.0226 40.211 18.7327 40.3493 19.5266ZM40.3492 12.9954C40.8876 12.8741 41.3651 12.5915 41.7282 12.2007C42.1739 11.7209 42.4465 11.0768 42.4465 10.3677C42.4465 9.65773 42.173 9.01264 41.7259 8.53243C41.365 8.14478 40.8915 7.86377 40.3579 7.74178C40.2273 8.55619 39.8404 9.28508 39.2825 9.84289C39.073 10.0524 38.8393 10.2378 38.5862 10.3945C38.8394 10.5513 39.073 10.7366 39.2825 10.9461C39.8285 11.4922 40.2107 12.2019 40.3492 12.9954ZM40.3493 6.4653C40.8907 6.34381 41.3701 6.0598 41.7331 5.66737C42.1759 5.18869 42.4465 4.54595 42.4465 3.83754C42.4465 3.09392 42.1452 2.42072 41.6579 1.93348C41.1707 1.44624 40.4975 1.14484 39.7538 1.14484C39.0102 1.14484 38.337 1.44624 37.8498 1.93348C37.4763 2.30696 37.2121 2.78971 37.109 3.32967C37.9526 3.44849 38.7081 3.84157 39.2825 4.41592C39.8285 4.96196 40.2108 5.67175 40.3493 6.4653ZM35.8732 3.35505C35.7737 2.80484 35.507 2.3128 35.1277 1.93348C34.6405 1.44624 33.9673 1.14484 33.2236 1.14484C32.48 1.14484 31.8068 1.44624 31.3196 1.93348C30.9461 2.30696 30.6818 2.78973 30.5787 3.3297C31.3375 3.4367 32.0253 3.76578 32.5741 4.24922C32.8578 4.49913 33.1042 4.79043 33.3041 5.11372C33.4975 4.80097 33.7344 4.51819 34.0064 4.27398C34.5225 3.81079 35.164 3.48527 35.8732 3.35505ZM29.343 3.35503C29.2434 2.80482 28.9768 2.3128 28.5975 1.93348C28.1103 1.44624 27.4371 1.14484 26.6935 1.14484C25.9498 1.14484 25.2766 1.44624 24.7893 1.93348C24.4158 2.307 24.1515 2.78982 24.0485 3.32986C24.8236 3.43968 25.5255 3.78234 26.081 4.28517C26.3488 4.52742 26.5821 4.80688 26.773 5.11535C26.9581 4.81599 27.1831 4.54396 27.4406 4.30676C27.9624 3.82616 28.6172 3.48829 29.343 3.35503ZM22.8127 3.35502C22.7132 2.80481 22.4466 2.31279 22.0673 1.93348C21.58 1.44624 20.9068 1.14484 20.1632 1.14484C19.4195 1.14484 18.7463 1.44624 18.2591 1.93348C17.8856 2.30696 17.6214 2.78974 17.5183 3.32973C18.3067 3.44103 19.0186 3.79245 19.5777 4.30779C19.8344 4.5445 20.0588 4.81581 20.2434 5.11426C20.4281 4.81573 20.6526 4.54438 20.9094 4.30764C21.4314 3.82657 22.0865 3.48836 22.8127 3.35502ZM16.2825 3.35501C16.183 2.8048 15.9163 2.31279 15.537 1.93348C15.0498 1.44624 14.3766 1.14484 13.633 1.14484C12.8893 1.14484 12.2161 1.44624 11.7289 1.93348C11.3554 2.30696 11.0911 2.78973 10.9881 3.3297C11.7696 3.44 12.4759 3.78616 13.0325 4.29399C13.2956 4.53396 13.5252 4.81025 13.7133 5.11499C13.9012 4.81047 14.1306 4.53431 14.3934 4.29443C14.9129 3.82035 15.5627 3.48712 16.2825 3.35501ZM37.0247 35.9045C37.5858 35.8089 38.0877 35.5399 38.4731 35.1544C38.9603 34.6672 39.2617 33.994 39.2617 33.2504C39.2617 32.5067 38.9603 31.8335 38.4731 31.3462C38.0819 30.9551 37.5709 30.6837 36.9997 30.5919C36.858 31.3762 36.4779 32.0776 35.9371 32.6185C35.7276 32.828 35.494 33.0133 35.2408 33.17C35.494 33.3268 35.7276 33.5121 35.9371 33.7216C36.5136 34.2981 36.9075 35.0571 37.0247 35.9045ZM37.0247 29.3743C37.5858 29.2787 38.0877 29.0096 38.4731 28.6242C38.9603 28.1369 39.2617 27.4637 39.2617 26.7201C39.2617 25.9764 38.9603 25.3032 38.4731 24.816C38.0819 24.4248 37.5709 24.1535 36.9998 24.0617C36.858 24.846 36.4779 25.5474 35.9371 26.0882C35.7276 26.2977 35.494 26.4831 35.2408 26.6398C35.494 26.7965 35.7276 26.9819 35.9371 27.1915C36.5136 27.768 36.9075 28.5269 37.0247 29.3743ZM37.0247 22.8441C37.5858 22.7484 38.0877 22.4794 38.4731 22.0939C38.9603 21.6067 39.2617 20.9335 39.2617 20.1899C39.2617 19.4462 38.9603 18.7731 38.4731 18.2858C38.0819 17.8946 37.5709 17.6233 36.9998 17.5315C36.858 18.3158 36.4779 19.0172 35.9371 19.558C35.7276 19.7675 35.494 19.9528 35.2408 20.1096C35.494 20.2663 35.7276 20.4517 35.9371 20.6612C36.5136 21.2377 36.9075 21.9967 37.0247 22.8441ZM37.0247 16.3139C37.5858 16.2183 38.0877 15.9492 38.4731 15.5637C38.9603 15.0765 39.2617 14.4033 39.2617 13.6597C39.2617 12.9161 38.9603 12.2429 38.4731 11.7555C38.0819 11.3644 37.5709 11.093 36.9998 11.0013C36.858 11.7855 36.4779 12.487 35.9371 13.0278C35.7276 13.2373 35.494 13.4226 35.2408 13.5794C35.494 13.7362 35.7276 13.9215 35.9371 14.131C36.5136 14.7075 36.9075 15.4665 37.0247 16.3139ZM37.0247 9.78362C37.5858 9.68808 38.0877 9.41896 38.4731 9.03347C38.9603 8.54624 39.2617 7.87303 39.2617 7.12942C39.2617 6.3858 38.9603 5.71261 38.4731 5.22537C37.9858 4.73811 37.3126 4.43674 36.569 4.43674C35.8772 4.43674 35.247 4.69657 34.7711 5.12367C34.3598 5.4929 34.0626 5.98593 33.9389 6.54337C34.7118 6.6891 35.4028 7.0665 35.9371 7.60076C36.5136 8.17724 36.9075 8.93627 37.0247 9.78362ZM32.6622 6.51757C32.5336 5.96244 32.2325 5.47274 31.8183 5.10784C31.3441 4.69013 30.7212 4.43674 30.0388 4.43674C29.3342 4.43674 28.6934 4.70625 28.2142 5.14751C27.817 5.51342 27.5301 5.99732 27.4093 6.54347C28.1819 6.68928 28.8728 7.06662 29.4069 7.60076C29.6164 7.81026 29.8017 8.0439 29.9585 8.2971C30.1152 8.0439 30.3006 7.81026 30.5101 7.60076C31.0796 7.03126 31.8273 6.64 32.6622 6.51757ZM26.1333 6.51737C26.0072 5.97323 25.7164 5.49242 25.3163 5.13037C24.84 4.6993 24.2061 4.43674 23.5086 4.43674C22.8036 4.43674 22.1624 4.70659 21.6831 5.14839C21.2864 5.51407 20.9999 5.99763 20.8791 6.54349C21.6517 6.6893 22.3426 7.06663 22.8767 7.60076C23.0862 7.81026 23.2715 8.0439 23.4283 8.2971C23.5851 8.0439 23.7704 7.81026 23.9799 7.60076C24.5497 7.03096 25.2978 6.63956 26.1333 6.51737ZM19.6019 6.51754C19.4779 5.98236 19.1943 5.50838 18.804 5.14854C18.3247 4.70665 17.6834 4.43674 16.9783 4.43674C16.2783 4.43674 15.641 4.70302 15.1626 5.13963C14.7602 5.50684 14.4696 5.99367 14.3475 6.54322C15.1206 6.68884 15.812 7.06632 16.3464 7.60076C16.5559 7.81026 16.7413 8.04389 16.8981 8.2971C17.0548 8.0439 17.2402 7.81026 17.4497 7.60076C18.0192 7.03122 18.7669 6.63993 19.6019 6.51754ZM13.0731 6.51733C12.9477 5.97823 12.6597 5.50074 12.2634 5.13918C11.7851 4.70285 11.148 4.43674 10.4481 4.43674C9.76037 4.43674 9.13332 4.69384 8.65802 5.11698C8.24286 5.48656 7.94287 5.98221 7.81847 6.54342C8.59115 6.68921 9.28202 7.06659 9.81622 7.60076C10.0257 7.81026 10.2111 8.04389 10.3678 8.29709C10.5246 8.04389 10.71 7.81026 10.9195 7.60076C11.4893 7.0309 12.2376 6.63949 13.0731 6.51733ZM33.7273 39.0808C34.2689 38.9783 34.7532 38.7136 35.1277 38.3392C35.6149 37.8519 35.9163 37.1787 35.9163 36.4351C35.9163 35.6915 35.6149 35.0183 35.1277 34.5311C34.761 34.1644 34.2891 33.9031 33.761 33.7961C33.6458 34.6481 33.2511 35.4115 32.6719 35.9906C32.4624 36.2001 32.2287 36.3855 31.9756 36.5422C32.2287 36.699 32.4624 36.8843 32.6719 37.0938C33.2036 37.6255 33.58 38.3124 33.7273 39.0808ZM33.7273 32.5506C34.2689 32.4481 34.7532 32.1834 35.1277 31.8089C35.6149 31.3217 35.9163 30.6485 35.9163 29.9049C35.9163 29.1613 35.6149 28.4881 35.1277 28.0009C34.761 27.6342 34.289 27.3728 33.761 27.2659C33.6458 28.118 33.2511 28.8812 32.6719 29.4603C32.4624 29.6698 32.2287 29.8553 31.9756 30.012C32.2287 30.1687 32.4624 30.3541 32.6719 30.5636C33.2036 31.0952 33.58 31.7822 33.7273 32.5506ZM33.7273 26.0203C34.2689 25.9179 34.7532 25.6532 35.1277 25.2787C35.6149 24.7915 35.9163 24.1183 35.9163 23.3747C35.9163 22.6311 35.6149 21.9579 35.1277 21.4707C34.761 21.104 34.2891 20.8426 33.761 20.7357C33.6458 21.5877 33.251 22.3511 32.6719 22.9302C32.4624 23.1397 32.2287 23.325 31.9756 23.4818C32.2287 23.6385 32.4624 23.8238 32.6719 24.0333C33.2036 24.565 33.58 25.252 33.7273 26.0203ZM33.7273 19.4901C34.2689 19.3877 34.7532 19.123 35.1277 18.7486C35.6149 18.2613 35.9163 17.5881 35.9163 16.8445C35.9163 16.1009 35.6149 15.4277 35.1277 14.9404C34.761 14.5738 34.2891 14.3124 33.761 14.2054C33.6458 15.0575 33.251 15.8209 32.6719 16.4C32.4624 16.6095 32.2287 16.7948 31.9756 16.9516C32.2287 17.1083 32.4624 17.2936 32.6719 17.5032C33.2036 18.0348 33.58 18.7218 33.7273 19.4901ZM33.7273 12.9599C34.2689 12.8574 34.7532 12.5928 35.1277 12.2184C35.6149 11.731 35.9163 11.0578 35.9163 10.3142C35.9163 9.57063 35.6149 8.89744 35.1277 8.4102C34.6404 7.92295 33.9672 7.62156 33.2236 7.62156C32.48 7.62156 31.8068 7.92295 31.3196 8.4102C30.9254 8.8043 30.6529 9.3201 30.5632 9.89641C31.3807 10.0258 32.1123 10.4134 32.6719 10.973C33.2036 11.5047 33.58 12.1916 33.7273 12.9599ZM29.3538 9.89632C29.264 9.3201 28.9915 8.80429 28.5975 8.4102C28.1102 7.92295 27.437 7.62156 26.6934 7.62156C25.9498 7.62156 25.2766 7.92295 24.7893 8.4102C24.3952 8.8043 24.1227 9.3201 24.033 9.89641C24.8505 10.0258 25.5821 10.4134 26.1417 10.973C26.3512 11.1825 26.5366 11.4161 26.6933 11.6692C26.8501 11.4161 27.0354 11.1825 27.2449 10.973C27.8046 10.4133 28.5362 10.0257 29.3538 9.89632ZM22.8236 9.89632C22.7338 9.3201 22.4614 8.80429 22.0673 8.4102C21.58 7.92295 20.9068 7.62156 20.1631 7.62156C19.4195 7.62156 18.7463 7.92295 18.2591 8.4102C17.865 8.8043 17.5925 9.3201 17.5028 9.89641C18.3203 10.0258 19.0519 10.4134 19.6115 10.973C19.821 11.1825 20.0063 11.4161 20.1631 11.6692C20.3198 11.4161 20.5052 11.1825 20.7147 10.973C21.2744 10.4133 22.006 10.0257 22.8236 9.89632ZM16.2934 9.89632C16.2036 9.3201 15.9311 8.80429 15.537 8.4102C15.0498 7.92295 14.3766 7.62156 13.6329 7.62156C12.8893 7.62156 12.2161 7.92295 11.7289 8.4102C11.3348 8.8043 11.0623 9.3201 10.9725 9.89641C11.79 10.0258 12.5217 10.4134 13.0813 10.973C13.2908 11.1825 13.4761 11.4161 13.6328 11.6692C13.7896 11.4161 13.9749 11.1825 14.1844 10.973C14.7441 10.4133 15.4758 10.0257 16.2934 9.89632ZM9.76315 9.89632C9.67335 9.3201 9.40091 8.80429 9.0068 8.4102C8.51953 7.92295 7.84633 7.62156 7.10272 7.62156C6.3591 7.62156 5.6859 7.92295 5.19865 8.4102C4.80455 8.80429 4.53208 9.3201 4.44229 9.89641C5.25979 10.0258 5.99142 10.4134 6.55103 10.973C6.76054 11.1825 6.94588 11.4161 7.10264 11.6692C7.25941 11.4161 7.44475 11.1825 7.65426 10.973C8.21389 10.4133 8.9456 10.0257 9.76315 9.89632ZM29.9584 37.1146C29.2148 37.1146 28.5416 37.416 28.0544 37.9032C27.5671 38.3905 27.2657 39.0637 27.2657 39.8073C27.2657 40.5509 27.5671 41.2241 28.0544 41.7114C28.5416 42.1986 29.2148 42.5 29.9584 42.5C30.702 42.5 31.3752 42.1986 31.8625 41.7114C32.3497 41.2241 32.6511 40.5509 32.6511 39.8073C32.6511 39.0637 32.3497 38.3905 31.8625 37.9032C31.3752 37.416 30.702 37.1146 29.9584 37.1146ZM27.2449 37.0938C27.4544 36.8843 27.688 36.699 27.9413 36.5422C27.688 36.3855 27.4544 36.2001 27.2449 35.9906C27.0354 35.7811 26.8501 35.5474 26.6933 35.2943C26.5366 35.5474 26.3512 35.7811 26.1417 35.9906C25.9322 36.2001 25.6985 36.3855 25.4454 36.5422C25.6985 36.699 25.9322 36.8843 26.1417 37.0938C26.3512 37.3033 26.5366 37.5369 26.6933 37.7902C26.8501 37.5369 27.0354 37.3033 27.2449 37.0938ZM20.163 37.7902C20.3198 37.5369 20.5052 37.3033 20.7147 37.0938C20.9242 36.8843 21.1579 36.699 21.411 36.5422C21.1579 36.3855 20.9242 36.2001 20.7147 35.9906C20.5052 35.7811 20.3198 35.5474 20.1631 35.2943C20.0063 35.5474 19.821 35.7811 19.6115 35.9906C19.4019 36.2001 19.1683 36.3855 18.9152 36.5422C19.1683 36.699 19.402 36.8843 19.6115 37.0938C19.821 37.3033 20.0064 37.5369 20.163 37.7902ZM25.3322 37.9032C24.845 37.416 24.1718 37.1146 23.4282 37.1146C22.6846 37.1146 22.0114 37.416 21.5242 37.9032C21.0369 38.3905 20.7355 39.0637 20.7355 39.8073C20.7355 40.5509 21.0369 41.2241 21.5242 41.7114C22.0114 42.1986 22.6846 42.5 23.4282 42.5C24.1718 42.5 24.845 42.1986 25.3322 41.7114C25.8195 41.2241 26.1209 40.5509 26.1209 39.8073C26.1209 39.0637 25.8195 38.3905 25.3322 37.9032ZM16.898 37.1146C16.1544 37.1146 15.4812 37.416 14.9939 37.9032C14.5067 38.3905 14.2053 39.0637 14.2053 39.8073C14.2053 40.5509 14.5067 41.2241 14.9939 41.7114C15.4812 42.1986 16.1544 42.5 16.898 42.5C17.6416 42.5 18.3148 42.1986 18.802 41.7114C19.2892 41.2241 19.5907 40.5509 19.5907 39.8073C19.5907 39.0637 19.2892 38.3905 18.802 37.9032C18.3148 37.416 17.6416 37.1146 16.898 37.1146ZM14.1844 37.0938C14.394 36.8843 14.6276 36.699 14.8808 36.5422C14.6276 36.3855 14.394 36.2001 14.1844 35.9906C13.9749 35.7811 13.7896 35.5474 13.6328 35.2943C13.4761 35.5474 13.2908 35.7811 13.0813 35.9906C12.8717 36.2001 12.6381 36.3855 12.3849 36.5422C12.6381 36.699 12.8717 36.8843 13.0813 37.0938C13.2908 37.3033 13.4761 37.5369 13.6328 37.7902C13.7896 37.5369 13.9749 37.3033 14.1844 37.0938ZM7.10264 37.7902C7.25941 37.5369 7.44475 37.3033 7.65426 37.0938C7.86376 36.8843 8.09739 36.699 8.35059 36.5422C8.09739 36.3855 7.86376 36.2001 7.65426 35.9906C7.44475 35.7811 7.25941 35.5474 7.10264 35.2943C6.94588 35.5474 6.76054 35.7811 6.55103 35.9906C6.34153 36.2001 6.10788 36.3855 5.85469 36.5422C6.10788 36.699 6.34153 36.8843 6.55103 37.0938C6.76053 37.3033 6.94587 37.5369 7.10264 37.7902ZM12.2718 37.9032C11.7845 37.416 11.1113 37.1146 10.3677 37.1146C9.62415 37.1146 8.95094 37.416 8.4637 37.9032C7.97645 38.3905 7.67506 39.0637 7.67506 39.8073C7.67506 40.5509 7.97645 41.2241 8.4637 41.7114C8.95093 42.1986 9.62415 42.5 10.3677 42.5C11.1113 42.5 11.7845 42.1986 12.2718 41.7114C12.7591 41.2241 13.0605 40.5509 13.0605 39.8073C13.0605 39.0637 12.759 38.3905 12.2718 37.9032ZM3.83753 37.1146C3.09392 37.1146 2.42072 37.416 1.93347 37.9032C1.44623 38.3905 1.14484 39.0637 1.14484 39.8073C1.14484 40.5509 1.44623 41.2241 1.93347 41.7114C2.42071 42.1986 3.09392 42.5 3.83753 42.5C4.58115 42.5 5.25435 42.1986 5.74159 41.7114C6.22885 41.2241 6.53022 40.5509 6.53022 39.8073C6.53022 39.0637 6.22883 38.3905 5.74159 37.9032C5.25435 37.416 4.58115 37.1146 3.83753 37.1146ZM26.6933 31.2599C26.8501 31.0067 27.0354 30.7731 27.2449 30.5636C27.4544 30.3541 27.688 30.1687 27.9413 30.012C27.688 29.8553 27.4544 29.6699 27.2449 29.4603C27.0354 29.2508 26.8501 29.0172 26.6933 28.7641C26.5366 29.0172 26.3512 29.2508 26.1417 29.4603C25.9322 29.6698 25.6985 29.8553 25.4454 30.012C25.6985 30.1687 25.9322 30.3541 26.1417 30.5636C26.3512 30.7731 26.5366 31.0067 26.6933 31.2599ZM28.0544 35.1811C28.5416 35.6684 29.2148 35.9698 29.9584 35.9698C30.702 35.9698 31.3752 35.6684 31.8625 35.1811C32.3497 34.6939 32.6511 34.0207 32.6511 33.2771C32.6511 32.5335 32.3497 31.8603 31.8625 31.373C31.3752 30.8858 30.702 30.5844 29.9584 30.5844C29.2148 30.5844 28.5416 30.8858 28.0544 31.373C27.5671 31.8603 27.2657 32.5335 27.2657 33.2771C27.2657 34.0207 27.5671 34.6939 28.0544 35.1811ZM23.4282 35.9698C24.1718 35.9698 24.845 35.6684 25.3322 35.1811C25.8195 34.6939 26.1209 34.0207 26.1209 33.2771C26.1209 32.5335 25.8195 31.8603 25.3322 31.373C24.845 30.8858 24.1718 30.5844 23.4282 30.5844C22.6846 30.5844 22.0114 30.8858 21.5242 31.373C21.0369 31.8603 20.7355 32.5335 20.7355 33.2771C20.7355 34.0207 21.0369 34.6939 21.5242 35.1811C22.0114 35.6684 22.6846 35.9698 23.4282 35.9698ZM20.1631 31.2599C20.3198 31.0067 20.5052 30.7731 20.7147 30.5636C20.9242 30.3541 21.1579 30.1687 21.411 30.012C21.1579 29.8553 20.9242 29.6699 20.7147 29.4603C20.5052 29.2508 20.3198 29.0172 20.1631 28.7641C20.0063 29.0172 19.821 29.2508 19.6115 29.4603C19.4019 29.6699 19.1683 29.8553 18.9152 30.012C19.1683 30.1687 19.402 30.3541 19.6115 30.5636C19.821 30.7731 20.0063 31.0067 20.1631 31.2599ZM13.6328 31.2599C13.7896 31.0067 13.9749 30.7731 14.1844 30.5636C14.394 30.3541 14.6276 30.1687 14.8808 30.012C14.6276 29.8553 14.394 29.6699 14.1844 29.4603C13.9749 29.2508 13.7896 29.0172 13.6328 28.7641C13.4761 29.0172 13.2908 29.2508 13.0813 29.4603C12.8717 29.6699 12.6381 29.8553 12.3849 30.012C12.6381 30.1687 12.8717 30.3541 13.0813 30.5636C13.2908 30.7731 13.4761 31.0067 13.6328 31.2599ZM14.9939 35.1811C15.4812 35.6684 16.1544 35.9698 16.898 35.9698C17.6416 35.9698 18.3148 35.6684 18.802 35.1811C19.2892 34.6939 19.5907 34.0207 19.5907 33.2771C19.5907 32.5335 19.2892 31.8603 18.802 31.373C18.3148 30.8858 17.6416 30.5844 16.898 30.5844C16.1544 30.5844 15.4812 30.8858 14.9939 31.373C14.5067 31.8603 14.2053 32.5335 14.2053 33.2771C14.2053 34.0207 14.5067 34.6939 14.9939 35.1811ZM10.3677 35.9698C11.1113 35.9698 11.7845 35.6684 12.2718 35.1811C12.7591 34.6939 13.0605 34.0207 13.0605 33.2771C13.0605 32.5335 12.759 31.8603 12.2718 31.373C11.7845 30.8858 11.1113 30.5844 10.3677 30.5844C9.62415 30.5844 8.95094 30.8858 8.4637 31.373C7.97645 31.8603 7.67506 32.5335 7.67506 33.2771C7.67506 34.0207 7.97645 34.6939 8.4637 35.1811C8.95093 35.6684 9.62415 35.9698 10.3677 35.9698ZM7.10264 31.2599C7.25941 31.0067 7.44475 30.7731 7.65426 30.5636C7.86376 30.3541 8.09739 30.1687 8.35059 30.012C8.09739 29.8553 7.86376 29.6699 7.65426 29.4603C7.44475 29.2508 7.25941 29.0172 7.10264 28.7641C6.94588 29.0172 6.76054 29.2508 6.55103 29.4603C6.34153 29.6699 6.10788 29.8553 5.85469 30.012C6.10788 30.1687 6.34153 30.3541 6.55103 30.5636C6.76054 30.7731 6.94588 31.0067 7.10264 31.2599ZM1.93347 35.1811C2.42071 35.6684 3.09392 35.9698 3.83753 35.9698C4.58115 35.9698 5.25435 35.6684 5.74159 35.1811C6.22885 34.6939 6.53022 34.0207 6.53022 33.2771C6.53022 32.5335 6.22883 31.8603 5.74159 31.373C5.25435 30.8858 4.58115 30.5844 3.83753 30.5844C3.09392 30.5844 2.42072 30.8858 1.93347 31.373C1.44623 31.8603 1.14484 32.5335 1.14484 33.2771C1.14484 34.0207 1.44623 34.6939 1.93347 35.1811ZM29.9584 24.0542C29.2148 24.0542 28.5416 24.3556 28.0544 24.8428C27.5671 25.3301 27.2657 26.0033 27.2657 26.7469C27.2657 27.4905 27.5671 28.1637 28.0544 28.6509C28.5416 29.1381 29.2148 29.4396 29.9584 29.4396C30.702 29.4396 31.3752 29.1381 31.8625 28.6509C32.3497 28.1637 32.6511 27.4905 32.6511 26.7469C32.6511 26.0033 32.3497 25.3301 31.8625 24.8428C31.3752 24.3556 30.702 24.0542 29.9584 24.0542ZM27.2449 24.0333C27.4544 23.8238 27.688 23.6385 27.9413 23.4818C27.688 23.325 27.4544 23.1397 27.2449 22.9302C27.0354 22.7207 26.8501 22.4871 26.6933 22.2338C26.5366 22.4871 26.3512 22.7207 26.1417 22.9302C25.9322 23.1397 25.6985 23.325 25.4454 23.4818C25.6985 23.6385 25.9322 23.8238 26.1417 24.0333C26.3512 24.2429 26.5366 24.4765 26.6933 24.7297C26.8501 24.4765 27.0354 24.2429 27.2449 24.0333ZM20.1631 24.7297C20.3198 24.4765 20.5052 24.2429 20.7147 24.0333C20.9242 23.8238 21.1579 23.6385 21.411 23.4818C21.1579 23.325 20.9242 23.1397 20.7147 22.9302C20.5052 22.7207 20.3198 22.4871 20.1631 22.2338C20.0063 22.4871 19.821 22.7207 19.6115 22.9302C19.402 23.1397 19.1683 23.325 18.9152 23.4818C19.1683 23.6385 19.4019 23.8238 19.6115 24.0333C19.821 24.2429 20.0063 24.4765 20.1631 24.7297ZM25.3322 24.8428C24.845 24.3556 24.1718 24.0542 23.4282 24.0542C22.6846 24.0542 22.0114 24.3556 21.5242 24.8428C21.0369 25.3301 20.7355 26.0033 20.7355 26.7469C20.7355 27.4905 21.0369 28.1637 21.5242 28.6509C22.0114 29.1381 22.6846 29.4396 23.4282 29.4396C24.1718 29.4396 24.845 29.1381 25.3322 28.6509C25.8195 28.1637 26.1209 27.4905 26.1209 26.7469C26.1209 26.0033 25.8195 25.3301 25.3322 24.8428ZM16.898 24.0542C16.1544 24.0542 15.4812 24.3556 14.9939 24.8428C14.5067 25.3301 14.2053 26.0033 14.2053 26.7469C14.2053 27.4905 14.5067 28.1637 14.9939 28.6509C15.4812 29.1381 16.1544 29.4396 16.898 29.4396C17.6416 29.4396 18.3148 29.1381 18.802 28.6509C19.2892 28.1637 19.5907 27.4905 19.5907 26.7469C19.5907 26.0033 19.2892 25.3301 18.802 24.8428C18.3148 24.3556 17.6416 24.0542 16.898 24.0542ZM14.1844 24.0333C14.394 23.8238 14.6276 23.6385 14.8808 23.4818C14.6276 23.325 14.394 23.1397 14.1844 22.9302C13.9749 22.7207 13.7896 22.4871 13.6328 22.2338C13.4761 22.4871 13.2908 22.7207 13.0813 22.9302C12.8717 23.1397 12.6381 23.325 12.3849 23.4818C12.6381 23.6385 12.8717 23.8238 13.0813 24.0333C13.2908 24.2429 13.4761 24.4765 13.6328 24.7297C13.7896 24.4765 13.9749 24.2429 14.1844 24.0333ZM7.10264 24.7297C7.25941 24.4765 7.44475 24.2429 7.65426 24.0333C7.86376 23.8238 8.09739 23.6385 8.35059 23.4818C8.09739 23.325 7.86376 23.1397 7.65426 22.9302C7.44475 22.7207 7.25941 22.4871 7.10264 22.2338C6.94588 22.4871 6.76054 22.7207 6.55103 22.9302C6.34153 23.1397 6.10788 23.325 5.85469 23.4818C6.10788 23.6385 6.34153 23.8238 6.55103 24.0333C6.76054 24.2429 6.94588 24.4765 7.10264 24.7297ZM12.2718 24.8428C11.7845 24.3556 11.1113 24.0542 10.3677 24.0542C9.62415 24.0542 8.95093 24.3556 8.4637 24.8428C7.97645 25.3301 7.67506 26.0033 7.67506 26.7469C7.67506 27.4905 7.97645 28.1637 8.4637 28.6509C8.95093 29.1381 9.62415 29.4396 10.3677 29.4396C11.1113 29.4396 11.7845 29.1381 12.2718 28.6509C12.7591 28.1637 13.0605 27.4905 13.0605 26.7469C13.0605 26.0033 12.7591 25.3301 12.2718 24.8428ZM3.83753 24.0542C3.09392 24.0542 2.42071 24.3556 1.93347 24.8428C1.44623 25.3301 1.14484 26.0033 1.14484 26.7469C1.14484 27.4905 1.44623 28.1637 1.93347 28.6509C2.42071 29.1381 3.09392 29.4396 3.83753 29.4396C4.58115 29.4396 5.25435 29.1381 5.74159 28.6509C6.22885 28.1637 6.53022 27.4905 6.53022 26.7469C6.53022 26.0033 6.22885 25.3301 5.74159 24.8428C5.25435 24.3556 4.58115 24.0542 3.83753 24.0542ZM26.6933 18.1995C26.8501 17.9463 27.0354 17.7127 27.2449 17.5032C27.4544 17.2936 27.688 17.1083 27.9413 16.9516C27.688 16.7948 27.4544 16.6095 27.2449 16.4C27.0354 16.1905 26.8501 15.9568 26.6933 15.7036C26.5366 15.9568 26.3512 16.1905 26.1417 16.4C25.9322 16.6095 25.6985 16.7948 25.4454 16.9516C25.6985 17.1083 25.9322 17.2936 26.1417 17.5032C26.3512 17.7127 26.5366 17.9463 26.6933 18.1995ZM28.0544 22.1207C28.5416 22.608 29.2148 22.9094 29.9584 22.9094C30.702 22.9094 31.3752 22.608 31.8625 22.1207C32.3497 21.6335 32.6511 20.9603 32.6511 20.2167C32.6511 19.4731 32.3497 18.7999 31.8625 18.3126C31.3752 17.8254 30.702 17.5239 29.9584 17.5239C29.2148 17.5239 28.5416 17.8254 28.0544 18.3126C27.5671 18.7999 27.2657 19.4731 27.2657 20.2167C27.2657 20.9603 27.5671 21.6335 28.0544 22.1207ZM23.4282 22.9094C24.1718 22.9094 24.845 22.608 25.3322 22.1207C25.8195 21.6335 26.1209 20.9603 26.1209 20.2167C26.1209 19.4731 25.8195 18.7999 25.3322 18.3126C24.845 17.8254 24.1718 17.5239 23.4282 17.5239C22.6846 17.5239 22.0114 17.8254 21.5242 18.3126C21.0369 18.7999 20.7355 19.4731 20.7355 20.2167C20.7355 20.9603 21.0369 21.6335 21.5242 22.1207C22.0114 22.608 22.6846 22.9094 23.4282 22.9094ZM20.1631 18.1995C20.3198 17.9463 20.5052 17.7127 20.7147 17.5032C20.9242 17.2936 21.1579 17.1083 21.411 16.9516C21.1579 16.7948 20.9242 16.6095 20.7147 16.4C20.5052 16.1905 20.3198 15.9568 20.163 15.7036C20.0064 15.9568 19.821 16.1905 19.6115 16.4C19.402 16.6095 19.1683 16.7948 18.9152 16.9516C19.1683 17.1083 19.4019 17.2936 19.6115 17.5032C19.821 17.7127 20.0063 17.9463 20.1631 18.1995ZM13.6328 18.1995C13.7896 17.9463 13.9749 17.7127 14.1844 17.5032C14.394 17.2936 14.6276 17.1083 14.8808 16.9516C14.6276 16.7948 14.394 16.6095 14.1844 16.4C13.9749 16.1905 13.7896 15.9568 13.6328 15.7036C13.4761 15.9568 13.2908 16.1905 13.0813 16.4C12.8717 16.6095 12.6381 16.7948 12.3849 16.9516C12.6381 17.1083 12.8717 17.2936 13.0813 17.5032C13.2908 17.7127 13.4761 17.9463 13.6328 18.1995ZM14.9939 22.1207C15.4812 22.608 16.1544 22.9094 16.898 22.9094C17.6416 22.9094 18.3148 22.6079 18.802 22.1207C19.2892 21.6335 19.5907 20.9603 19.5907 20.2167C19.5907 19.4731 19.2892 18.7999 18.802 18.3126C18.3148 17.8254 17.6416 17.5239 16.898 17.5239C16.1544 17.5239 15.4812 17.8254 14.9939 18.3126C14.5067 18.7999 14.2053 19.4731 14.2053 20.2167C14.2053 20.9603 14.5067 21.6335 14.9939 22.1207ZM10.3677 22.9094C11.1113 22.9094 11.7845 22.6079 12.2718 22.1207C12.759 21.6335 13.0605 20.9603 13.0605 20.2167C13.0605 19.4731 12.7591 18.7999 12.2718 18.3126C11.7845 17.8254 11.1113 17.5239 10.3677 17.5239C9.62415 17.5239 8.95093 17.8254 8.4637 18.3126C7.97645 18.7999 7.67506 19.4731 7.67506 20.2167C7.67506 20.9603 7.97645 21.6335 8.4637 22.1207C8.95094 22.608 9.62415 22.9094 10.3677 22.9094ZM7.10264 18.1995C7.25941 17.9463 7.44475 17.7127 7.65426 17.5032C7.86376 17.2936 8.09739 17.1083 8.35059 16.9516C8.09739 16.7948 7.86376 16.6095 7.65426 16.4C7.44475 16.1905 7.25941 15.9568 7.10264 15.7036C6.94588 15.9568 6.76053 16.1905 6.55103 16.4C6.34153 16.6095 6.10788 16.7948 5.85469 16.9516C6.10788 17.1083 6.34153 17.2936 6.55103 17.5032C6.76054 17.7127 6.94588 17.9463 7.10264 18.1995ZM1.93347 22.1207C2.42072 22.608 3.09392 22.9094 3.83753 22.9094C4.58115 22.9094 5.25435 22.6079 5.74159 22.1207C6.22883 21.6335 6.53022 20.9603 6.53022 20.2167C6.53022 19.4731 6.22885 18.7999 5.74159 18.3126C5.25435 17.8254 4.58115 17.5239 3.83753 17.5239C3.09392 17.5239 2.42071 17.8254 1.93347 18.3126C1.44623 18.7999 1.14484 19.4731 1.14484 20.2167C1.14484 20.9603 1.44623 21.6335 1.93347 22.1207ZM29.9584 10.9937C29.2148 10.9937 28.5416 11.2952 28.0544 11.7824C27.5671 12.2696 27.2657 12.9428 27.2657 13.6864C27.2657 14.43 27.5671 15.1032 28.0544 15.5905C28.5416 16.0778 29.2148 16.3791 29.9584 16.3791C30.702 16.3791 31.3752 16.0778 31.8625 15.5905C32.3497 15.1032 32.6511 14.43 32.6511 13.6864C32.6511 12.9428 32.3497 12.2696 31.8625 11.7824C31.3752 11.2952 30.702 10.9937 29.9584 10.9937ZM25.3322 11.7824C24.845 11.2952 24.1718 10.9937 23.4282 10.9937C22.6846 10.9937 22.0114 11.2952 21.5242 11.7824C21.0369 12.2696 20.7355 12.9428 20.7355 13.6864C20.7355 14.43 21.0369 15.1032 21.5242 15.5905C22.0114 16.0778 22.6846 16.3791 23.4282 16.3791C24.1718 16.3791 24.845 16.0778 25.3322 15.5905C25.8195 15.1032 26.1209 14.43 26.1209 13.6864C26.1209 12.9428 25.8195 12.2696 25.3322 11.7824ZM16.898 10.9937C16.1544 10.9937 15.4812 11.2952 14.9939 11.7824C14.5067 12.2696 14.2053 12.9428 14.2053 13.6864C14.2053 14.43 14.5067 15.1032 14.9939 15.5905C15.4812 16.0778 16.1544 16.3791 16.898 16.3791C17.6416 16.3791 18.3148 16.0778 18.802 15.5905C19.2892 15.1032 19.5907 14.43 19.5907 13.6864C19.5907 12.9428 19.2892 12.2696 18.802 11.7824C18.3148 11.2952 17.6416 10.9937 16.898 10.9937ZM12.2718 11.7824C11.7845 11.2952 11.1113 10.9937 10.3677 10.9937C9.62415 10.9937 8.95093 11.2952 8.4637 11.7824C7.97645 12.2696 7.67506 12.9428 7.67506 13.6864C7.67506 14.43 7.97645 15.1032 8.4637 15.5905C8.95094 16.0778 9.62415 16.3791 10.3677 16.3791C11.1113 16.3791 11.7845 16.0778 12.2718 15.5905C12.759 15.1032 13.0605 14.43 13.0605 13.6864C13.0605 12.9428 12.7591 12.2696 12.2718 11.7824Z" fill="var(--fill-0, #0F75FF)"/>
</g>
<defs>
<clipPath id="clip0_0_6">
<rect width="44" height="44" fill="white"/>
</clipPath>
</defs>
</svg>
