<svg preserveAspectRatio="xMidYMid meet" width="100%" height="100%" overflow="visible" style="display: block;" viewBox="0 0 57 44" fill="none" xmlns="http://www.w3.org/2000/svg">
<g id="ergoz-int-bogo-icon-pillow.svg" clip-path="url(#clip0_0_24)">
<path id="Vector" d="M52.0061 12.9944C51.5863 12.9039 51.1717 12.7967 50.7532 12.6786C50.1755 12.5227 49.6248 12.3417 48.732 12.0098L45.0093 10.6157C42.6234 9.73215 40.3902 8.48107 38.3906 6.90781C37.2257 5.98034 36.2392 5.07406 35.2854 4.1973C32.7989 1.91169 30.6429 -0.0754604 27.4677 0.00220273C24.944 0.0529085 23.5647 1.13057 21.5236 2.88537C21.5236 2.88537 21.5152 2.88922 21.512 2.89307L3.37094 21.1972C3.36324 21.2036 3.35875 21.2132 3.35105 21.2197C2.48569 21.7965 1.74582 22.5423 1.17583 23.4122C1.08153 23.5079 1.00829 23.6222 0.960817 23.7479C0.35917 24.7729 0.0291131 25.9345 0.00190114 27.1227C-0.0377096 28.8587 0.542766 30.552 1.63912 31.8985C2.73548 33.2451 4.27591 34.1568 5.98389 34.4699C7.53062 34.8834 9.05417 35.3792 10.548 35.9551L17.152 38.5963C17.8985 38.8595 19.2964 39.5052 20.9145 40.2529C25.5114 42.3761 29.1712 44 30.9825 44C32.3852 44.0002 33.7368 43.4733 34.7693 42.5238C34.7732 42.5199 34.779 42.5186 34.7828 42.5148L34.8175 42.4801C34.9144 42.3896 35.01 42.2953 35.0973 42.1983L54.1325 23.0489C54.1325 23.0457 54.1363 23.0412 54.1396 23.038L54.1473 23.0316C55.6826 21.4045 56.4842 20.4642 56.4842 18.4976C56.4833 17.2055 56.0377 15.9531 55.2222 14.9509C54.4067 13.9488 53.271 13.2579 52.0061 12.9944ZM21.7219 38.5045C20.0595 37.7343 18.6237 37.0732 17.8298 36.7947L11.2592 34.1663C9.64977 33.5428 8.00587 33.0122 6.33562 32.5771C5.07674 32.3457 3.94151 31.6733 3.13363 30.6805C2.32575 29.6878 1.89811 28.4396 1.92743 27.1599C1.98328 24.2716 4.53525 21.8769 7.61674 21.8159H7.72393C10.0769 21.8159 11.7676 23.3641 14.0859 25.4943C15.0223 26.3538 16.084 27.3268 17.308 28.2992C19.4615 29.999 21.8687 31.3501 24.4414 32.303L28.1737 33.7003C29.2007 34.0854 29.7918 34.2684 30.3611 34.4256C30.7289 34.527 31.2161 34.6567 31.7276 34.7613C32.3613 34.8911 32.9497 35.1851 33.4338 35.6141C33.9179 36.043 34.2807 36.5917 34.4858 37.2051C34.691 37.8185 34.7312 38.475 34.6025 39.1089C34.4738 39.7427 34.1808 40.3316 33.7527 40.8165L33.4381 41.1322C32.7638 41.7389 31.8889 42.0748 30.9818 42.0751C29.4504 42.0745 24.7996 39.9262 21.7219 38.5045ZM52.7468 21.71L36.587 37.9679C36.495 36.7491 36.0093 35.5931 35.2031 34.6744C34.3969 33.7556 33.3138 33.1238 32.1172 32.8743C31.6641 32.7812 31.2353 32.6676 30.8759 32.5688C30.3419 32.4211 29.8169 32.2575 28.8515 31.8961L25.1173 30.4994C22.7331 29.6165 20.5023 28.3648 18.5063 26.7902C17.3362 25.8615 16.3465 24.9533 15.3895 24.0752C12.9441 21.832 10.8279 19.8898 7.72843 19.8898C7.679 19.8898 7.62958 19.8898 7.57952 19.8898C7.50635 19.8898 7.4351 19.9013 7.36193 19.9045L22.8073 4.32117C24.797 2.61387 25.7245 1.96304 27.5069 1.92709C29.924 1.88537 31.623 3.4457 33.9824 5.61513C34.9157 6.47264 35.9722 7.44439 37.1917 8.4155C39.348 10.1134 41.7564 11.4641 44.3296 12.4187L48.0587 13.8141C49.0151 14.169 49.6101 14.3654 50.241 14.5355C50.6903 14.6639 51.1396 14.7781 51.6094 14.8795C52.4421 15.0514 53.1902 15.5051 53.7274 16.1641C54.2646 16.8232 54.5582 17.6473 54.5587 18.4976C54.5587 19.7312 54.1235 20.2511 52.7468 21.71Z" fill="var(--fill-0, #0F75FF)"/>
</g>
<defs>
<clipPath id="clip0_0_24">
<rect width="57" height="44" fill="white"/>
</clipPath>
</defs>
</svg>
