<svg preserveAspectRatio="xMidYMid meet" width="100%" height="100%" overflow="visible" style="display: block;" viewBox="0 0 57 44" fill="none" xmlns="http://www.w3.org/2000/svg">
<g id="ergoz-int-bogo-icon-foam.svg" clip-path="url(#clip0_0_11)">
<path id="Vector" d="M30.6579 7.50532H31.2933C31.5491 7.50532 31.7944 7.40369 31.9753 7.2228C32.1562 7.04191 32.2578 6.79657 32.2578 6.54075C32.2578 6.28492 32.1562 6.03958 31.9753 5.85869C31.7944 5.6778 31.5491 5.57617 31.2933 5.57617H30.6579C30.4021 5.57617 30.1568 5.6778 29.9759 5.85869C29.795 6.03958 29.6934 6.28492 29.6934 6.54075C29.6934 6.79657 29.795 7.04191 29.9759 7.2228C30.1568 7.40369 30.4021 7.50532 30.6579 7.50532Z" fill="var(--fill-0, #0F75FF)"/>
<path id="Vector_2" d="M55.3318 14.0835L32.5531 1.12088C31.2539 0.386136 29.7868 0 28.2942 0C26.8016 0 25.3345 0.386136 24.0353 1.12088L1.25657 14.0835C0.873122 14.2984 0.554309 14.6122 0.33332 14.9922C0.112331 15.3722 -0.00275251 15.8045 4.99879e-05 16.2441V26.9251C0.001079 27.5538 0.167007 28.1711 0.481264 28.7156C0.795521 29.26 1.24711 29.7125 1.79094 30.0278L23.9858 42.849C25.2957 43.6031 26.7807 44 28.2923 44C29.8038 44 31.2888 43.6031 32.5988 42.849L54.7974 30.0278C55.3413 29.7125 55.7929 29.26 56.1071 28.7156C56.4214 28.1711 56.5873 27.5538 56.5883 26.9251V16.2441C56.5911 15.8045 56.4761 15.3722 56.2551 14.9922C56.0341 14.6122 55.7153 14.2984 55.3318 14.0835ZM2.21085 15.7612L24.9896 2.7973C25.9977 2.22729 27.1361 1.92773 28.2942 1.92773C29.4523 1.92773 30.5907 2.22729 31.5988 2.7973L54.3775 15.7612C54.4631 15.8098 54.5343 15.8802 54.5838 15.9653C54.6333 16.0503 54.6594 16.147 54.6594 16.2454C54.6594 16.3438 54.6333 16.4405 54.5838 16.5255C54.5343 16.6106 54.4631 16.681 54.3775 16.7296L31.5988 29.6909C30.5908 30.2612 29.4524 30.5609 28.2942 30.5609C27.136 30.5609 25.9976 30.2612 24.9896 29.6909L2.21085 16.7257C2.12528 16.6771 2.05411 16.6067 2.00461 16.5217C1.9551 16.4366 1.92902 16.3399 1.92902 16.2415C1.92902 16.1431 1.9551 16.0465 2.00461 15.9614C2.05411 15.8763 2.12528 15.8059 2.21085 15.7573V15.7612ZM53.8329 28.3585L31.638 41.1783C30.6215 41.7635 29.4691 42.0715 28.2961 42.0715C27.1232 42.0715 25.9708 41.7635 24.9542 41.1783L2.75551 28.3572C2.50451 28.2117 2.29609 28.0028 2.15108 27.7515C2.00608 27.5002 1.92957 27.2153 1.9292 26.9251V18.788L24.0353 31.368C25.3345 32.1027 26.8016 32.4888 28.2942 32.4888C29.7868 32.4888 31.2539 32.1027 32.5531 31.368L54.6592 18.788V26.9251C54.6588 27.2153 54.5823 27.5002 54.4373 27.7515C54.2923 28.0028 54.0839 28.2117 53.8329 28.3572V28.3585Z" fill="var(--fill-0, #0F75FF)"/>
<path id="Vector_3" d="M11.5916 16.9594H12.2276C12.4834 16.9594 12.7287 16.8578 12.9096 16.6769C13.0905 16.496 13.1922 16.2507 13.1922 15.9948C13.1922 15.739 13.0905 15.4937 12.9096 15.3128C12.7287 15.1319 12.4834 15.0303 12.2276 15.0303H11.5916C11.3358 15.0303 11.0904 15.1319 10.9095 15.3128C10.7287 15.4937 10.627 15.739 10.627 15.9948C10.627 16.2507 10.7287 16.496 10.9095 16.6769C11.0904 16.8578 11.3358 16.9594 11.5916 16.9594Z" fill="var(--fill-0, #0F75FF)"/>
<path id="Vector_4" d="M27.6579 16.9594H28.2933C28.5491 16.9594 28.7944 16.8578 28.9753 16.6769C29.1562 16.496 29.2578 16.2507 29.2578 15.9948C29.2578 15.739 29.1562 15.4937 28.9753 15.3128C28.7944 15.1319 28.5491 15.0303 28.2933 15.0303H27.6579C27.4021 15.0303 27.1568 15.1319 26.9759 15.3128C26.795 15.4937 26.6934 15.739 26.6934 15.9948C26.6934 16.2507 26.795 16.496 26.9759 16.6769C27.1568 16.8578 27.4021 16.9594 27.6579 16.9594Z" fill="var(--fill-0, #0F75FF)"/>
<path id="Vector_5" d="M27.6579 26.4135H28.2933C28.5491 26.4135 28.7944 26.3119 28.9753 26.131C29.1562 25.9501 29.2578 25.7048 29.2578 25.4489C29.2578 25.1931 29.1562 24.9478 28.9753 24.7669C28.7944 24.586 28.5491 24.4844 28.2933 24.4844H27.6579C27.4021 24.4844 27.1568 24.586 26.9759 24.7669C26.795 24.9478 26.6934 25.1931 26.6934 25.4489C26.6934 25.7048 26.795 25.9501 26.9759 26.131C27.1568 26.3119 27.4021 26.4135 27.6579 26.4135Z" fill="var(--fill-0, #0F75FF)"/>
<path id="Vector_6" d="M43.7283 16.9594H44.3636C44.6194 16.9594 44.8648 16.8578 45.0457 16.6769C45.2265 16.496 45.3282 16.2507 45.3282 15.9948C45.3282 15.739 45.2265 15.4937 45.0457 15.3128C44.8648 15.1319 44.6194 15.0303 44.3636 15.0303H43.7283C43.4724 15.0303 43.2271 15.1319 43.0462 15.3128C42.8653 15.4937 42.7637 15.739 42.7637 15.9948C42.7637 16.2507 42.8653 16.496 43.0462 16.6769C43.2271 16.8578 43.4724 16.9594 43.7283 16.9594Z" fill="var(--fill-0, #0F75FF)"/>
<path id="Vector_7" d="M19.4509 12.0766H20.0862C20.342 12.0766 20.5874 11.975 20.7683 11.7941C20.9492 11.6132 21.0508 11.3679 21.0508 11.112C21.0508 10.8562 20.9492 10.6109 20.7683 10.43C20.5874 10.2491 20.342 10.1475 20.0862 10.1475H19.4509C19.1951 10.1475 18.9497 10.2491 18.7688 10.43C18.5879 10.6109 18.4863 10.8562 18.4863 11.112C18.4863 11.3679 18.5879 11.6132 18.7688 11.7941C18.9497 11.975 19.1951 12.0766 19.4509 12.0766Z" fill="var(--fill-0, #0F75FF)"/>
<path id="Vector_8" d="M19.4509 21.6772H20.0862C20.342 21.6772 20.5874 21.5756 20.7683 21.3947C20.9492 21.2138 21.0508 20.9684 21.0508 20.7126C21.0508 20.4568 20.9492 20.2115 20.7683 20.0306C20.5874 19.8497 20.342 19.748 20.0862 19.748H19.4509C19.1951 19.748 18.9497 19.8497 18.7688 20.0306C18.5879 20.2115 18.4863 20.4568 18.4863 20.7126C18.4863 20.9684 18.5879 21.2138 18.7688 21.3947C18.9497 21.5756 19.1951 21.6772 19.4509 21.6772Z" fill="var(--fill-0, #0F75FF)"/>
<path id="Vector_9" d="M35.4625 12.0766H36.0985C36.3543 12.0766 36.5997 11.975 36.7806 11.7941C36.9615 11.6132 37.0631 11.3679 37.0631 11.112C37.0631 10.8562 36.9615 10.6109 36.7806 10.43C36.5997 10.2491 36.3543 10.1475 36.0985 10.1475H35.4625C35.2067 10.1475 34.9614 10.2491 34.7805 10.43C34.5996 10.6109 34.498 10.8562 34.498 11.112C34.498 11.3679 34.5996 11.6132 34.7805 11.7941C34.9614 11.975 35.2067 12.0766 35.4625 12.0766Z" fill="var(--fill-0, #0F75FF)"/>
<path id="Vector_10" d="M35.4625 21.6772H36.0985C36.3543 21.6772 36.5997 21.5756 36.7806 21.3947C36.9615 21.2138 37.0631 20.9684 37.0631 20.7126C37.0631 20.4568 36.9615 20.2115 36.7806 20.0306C36.5997 19.8497 36.3543 19.748 36.0985 19.748H35.4625C35.2067 19.748 34.9614 19.8497 34.7805 20.0306C34.5996 20.2115 34.498 20.4568 34.498 20.7126C34.498 20.9684 34.5996 21.2138 34.7805 21.3947C34.9614 21.5756 35.2067 21.6772 35.4625 21.6772Z" fill="var(--fill-0, #0F75FF)"/>
</g>
<defs>
<clipPath id="clip0_0_11">
<rect width="57" height="44" fill="white"/>
</clipPath>
</defs>
</svg>
