<svg preserveAspectRatio="xMidYMid meet" width="100%" height="100%" overflow="visible" style="display: block;" viewBox="0 0 34.39 43.9872" fill="none" xmlns="http://www.w3.org/2000/svg">
<g id="ergoz-int-bogo-icon-washable.svg" clip-path="url(#clip0_0_4)">
<path id="Vector" d="M31.5102 0H2.49874C1.14102 0 0 1.14102 0 2.49874V41.016C0 42.3738 1.14102 43.5148 2.49874 43.5148H31.508C32.8657 43.5148 34.0068 42.3738 34.0068 41.016L34.0088 2.49874C34.0088 1.14102 32.8679 0 31.5102 0ZM2.49874 1.24937H31.508C32.2134 1.24937 32.7574 1.7933 32.7574 2.49874V7.33467H1.24926V2.49874C1.24926 1.7933 1.79331 1.24937 2.49874 1.24937ZM31.5102 42.2105H2.49874C1.79331 42.2105 1.24937 41.6666 1.24937 40.9612V8.58222H32.7575V40.9612C32.7596 41.6688 32.2156 42.2105 31.5102 42.2105ZM29.8252 35.964H28.1956C27.2182 35.964 26.4575 36.7246 26.4575 37.702V39.3317C26.4575 40.3092 27.2182 41.0697 28.1956 41.0697H29.8252C30.8026 41.0697 31.5633 40.3092 31.5633 39.3317V37.702C31.5633 36.7246 30.8026 35.964 29.8252 35.964ZM30.3139 39.3317C30.3139 39.6037 30.0972 39.8204 29.8252 39.8204H28.1956C27.9236 39.8204 27.7068 39.6037 27.7068 39.3317V37.702C27.7068 37.4301 27.9236 37.2133 28.1956 37.2133H29.8252C30.0972 37.2133 30.3139 37.4301 30.3139 37.702V39.3317ZM17.0043 12.7658C10.8105 12.7658 5.59632 17.2746 4.61723 23.3601H3.36786C3.04277 23.3601 2.71558 23.6321 2.71558 24.0124V27.2186C2.71558 27.5437 2.98754 27.8709 3.36786 27.8709H4.72559C5.81133 33.6845 10.9722 38.0295 17.0023 38.0295C23.9565 38.0295 29.6597 32.3796 29.6597 25.3721C29.6087 18.4178 23.9591 12.7658 17.0043 12.7658ZM3.96669 24.609H9.07248V26.5638H3.96669V24.609ZM25.3162 26.619C24.2836 27.0545 22.9259 27.1629 21.5681 26.891C19.7218 26.5106 18.1452 25.5332 17.6565 24.3922C17.0042 22.9261 15.1026 21.6767 12.8758 21.2412C11.79 21.0244 10.649 21.0244 9.66951 21.1859C11.1356 18.632 13.9064 16.894 17.004 16.894C21.6763 16.894 25.4796 20.6973 25.4796 25.3696C25.4244 25.8051 25.3693 26.2387 25.3162 26.619ZM9.01714 22.6541C9.99453 22.2738 11.2991 22.1655 12.6016 22.4375C14.3949 22.8178 16.0245 23.7952 16.5133 24.883C17.2187 26.3491 19.0672 27.5985 21.3492 28.0893C21.9463 28.1976 22.5433 28.2529 23.1425 28.2529C23.7948 28.2529 24.3919 28.1445 24.9889 28.0362C23.8499 31.3997 20.7521 33.7899 17.0039 33.7899C13.2557 33.7899 9.99637 31.2912 8.90845 27.7598H9.66911C9.99421 27.7598 10.3214 27.4878 10.3214 27.1076V23.9013C10.3214 23.5762 10.0494 23.249 9.66911 23.249H8.85319C8.90845 23.0875 8.90877 22.871 9.01714 22.6541ZM17.0043 36.7797C11.6796 36.7797 7.06278 32.9763 5.97708 27.8156H7.66203C8.74778 32.0524 12.6063 35.0951 17.0069 35.0951C21.7323 35.0951 25.6441 31.7273 26.5132 27.2717V27.2164C26.6216 26.6193 26.6769 26.0223 26.6769 25.37C26.6769 19.9923 22.3317 15.645 16.9518 15.645C12.9318 15.645 9.34536 18.1989 7.93442 21.8916C7.93442 21.9468 7.87918 21.9468 7.87918 21.9468C7.71557 22.3824 7.60721 22.8158 7.49885 23.3045L5.81389 23.3067C6.7913 17.982 11.4638 14.0173 16.95 14.0173C23.252 14.0173 28.3579 19.123 28.3579 25.372C28.3601 31.6718 23.2521 36.7799 17.0054 36.7799L17.0043 36.7797ZM15.4829 6.73585C16.08 6.73585 16.7323 6.51912 17.221 6.03041C17.6566 5.59484 17.9265 4.94466 17.9265 4.29237C17.9265 3.64009 17.6545 3.043 17.221 2.55433C16.7854 2.11875 16.1352 1.84889 15.4829 1.84889C14.8306 1.84889 14.2336 2.12086 13.745 2.55433C13.3093 2.98991 13.0395 3.64009 13.0395 4.29237C13.0395 4.94466 13.3115 5.54174 13.745 6.03041C14.2336 6.46599 14.886 6.73585 15.4829 6.73585ZM14.6692 3.47647C14.8859 3.25974 15.2131 3.15138 15.4851 3.15138C15.8102 3.15138 16.0822 3.25974 16.301 3.47647C16.5178 3.69319 16.6261 4.02041 16.6261 4.29237C16.6261 4.61746 16.5178 4.88945 16.301 5.10827C15.8123 5.54385 15.1069 5.59697 14.6161 5.10827C14.3993 4.89155 14.291 4.56434 14.291 4.29237C14.2888 3.96516 14.4504 3.69529 14.6692 3.47647ZM5.37766 6.73585H9.01738C9.99477 6.73585 10.8107 5.91994 10.8107 4.94254V3.64009C10.8107 2.66268 9.99477 1.84678 9.01738 1.84678H5.37766C4.40026 1.84678 3.58435 2.66268 3.58435 3.64009V4.94466C3.58648 5.92206 4.40026 6.73585 5.37766 6.73585ZM4.83585 3.64009C4.83585 3.36812 5.05257 3.09615 5.37979 3.09615H9.01946C9.29146 3.09615 9.56346 3.31287 9.56346 3.64009V4.94466C9.56346 5.21663 9.34672 5.4886 9.01946 5.4886H5.37979C5.10782 5.4886 4.83585 5.27188 4.83585 4.94466V3.64009ZM20.8075 4.94466H22.3819C22.707 4.94466 23.0342 4.67269 23.0342 4.29237C23.0342 3.96729 22.7623 3.64009 22.3819 3.64009H20.8075C20.4824 3.64009 20.1552 3.91205 20.1552 4.29237C20.2104 4.61746 20.4803 4.94466 20.8075 4.94466ZM24.5003 4.94466H26.0747C26.3998 4.94466 26.727 4.67269 26.727 4.29237C26.727 3.96729 26.455 3.64009 26.0747 3.64009H24.5003C24.1752 3.64009 23.848 3.91205 23.848 4.29237C23.9033 4.61746 24.1752 4.94466 24.5003 4.94466ZM28.1953 4.94466H29.7697C30.0948 4.94466 30.422 4.67269 30.422 4.29237C30.422 3.96729 30.15 3.64009 29.7697 3.64009H28.1953C27.8702 3.64009 27.543 3.91205 27.543 4.29237C27.5982 4.61746 27.8702 4.94466 28.1953 4.94466Z" fill="var(--fill-0, #0F75FF)"/>
</g>
<defs>
<clipPath id="clip0_0_4">
<rect width="34.39" height="43.9872" fill="white"/>
</clipPath>
</defs>
</svg>
