<svg preserveAspectRatio="xMidYMid meet" width="100%" height="100%" overflow="visible" style="display: block;" viewBox="0 0 41.59 43.9894" fill="none" xmlns="http://www.w3.org/2000/svg">
<g id="ergoz-int-bogo-icon-breathe.svg" clip-path="url(#clip0_0_22)">
<path id="Vector" d="M41.0004 20.5041L30.6092 14.8431V14.2098C30.6092 14.1414 30.6614 7.56369 33.5724 4.37908L33.2065 7.08698H33.2045C33.1442 7.53729 33.4618 7.95343 33.9122 8.01375C33.9503 8.01975 33.9865 8.02175 34.0247 8.02175C34.4368 8.02175 34.7867 7.71622 34.8409 7.30612L35.5968 1.70115C35.637 1.40362 35.5143 1.11013 35.2751 0.931192C35.0359 0.750268 34.7183 0.71609 34.4448 0.836711L29.2825 3.13047C28.8663 3.31543 28.6773 3.80393 28.8623 4.22007C29.0473 4.63621 29.5358 4.82519 29.9519 4.64024L31.9382 3.75773C29.2966 7.14711 28.995 12.6672 28.9609 13.9461L21.5891 9.92945L21.5911 3.78413L23.0465 5.97537H23.0445C23.1651 6.15831 23.3541 6.28698 23.5692 6.3312C23.7844 6.37543 24.0095 6.3312 24.1924 6.21058C24.3753 6.08795 24.502 5.89898 24.5463 5.6839C24.5885 5.46677 24.5422 5.24364 24.4196 5.06071L21.3016 0.368614C21.1448 0.127375 20.8734 -0.0113362 20.5859 0.000726988C20.2984 0.0107784 20.0371 0.167585 19.8964 0.418875L17.1141 5.33613C17.0076 5.5251 16.9794 5.75026 17.0377 5.96132C17.096 6.1724 17.2367 6.35132 17.4277 6.45988C17.8238 6.68503 18.3284 6.54431 18.5515 6.14827L19.9386 3.6957V9.998L12.4037 14.0569C12.3857 13.0356 12.1544 7.30833 9.46268 3.80413L11.4669 4.69472C11.8831 4.87968 12.3716 4.69271 12.5566 4.27657C12.7415 3.86043 12.5545 3.37193 12.1384 3.18697L6.97602 0.893209C6.70261 0.77058 6.38501 0.806766 6.14575 0.985683C5.90652 1.16662 5.78188 1.46012 5.82208 1.75765L6.57799 7.36262C6.63227 7.77272 6.98206 8.0763 7.39416 8.0783C7.43236 8.0783 7.46854 8.0743 7.50674 8.07022C7.95906 8.00991 8.27465 7.5938 8.21434 7.14147L7.8505 4.4416C10.7032 7.64808 10.7554 14.1396 10.7554 14.2059V14.9437L0.434248 20.5024C0.168888 20.6451 0.00403799 20.9225 1.86262e-05 21.222C-0.00199157 21.5236 0.158832 21.803 0.422185 21.9498L10.2606 27.46V37.4416C10.2606 37.8979 10.6285 38.2678 11.0849 38.2678C11.5412 38.2678 11.9111 37.8979 11.9111 37.4416V28.3829L19.9704 32.898V42.5815C19.9704 43.0358 20.3403 43.4057 20.7967 43.4057C21.253 43.4057 21.621 43.0359 21.621 42.5815V32.9361L29.4533 28.4973V37.4412C29.4533 37.8976 29.8231 38.2675 30.2775 38.2675C30.7339 38.2675 31.1038 37.8976 31.1038 37.4412V27.5627L41.0127 21.9479C41.2741 21.7992 41.4328 21.5218 41.4308 21.2222C41.4288 20.9226 41.2637 20.6489 41.0004 20.5041ZM20.8289 31.4866L2.53905 21.2442L10.7553 16.8195V20.3496C10.7553 20.806 11.1252 21.1759 11.5795 21.1759C12.0359 21.1759 12.4058 20.806 12.4058 20.3496V15.9309L19.9386 11.8741V22.8442C19.9386 23.3006 20.3086 23.6705 20.7649 23.6705C21.2212 23.6705 21.5891 23.3006 21.5891 22.8442V11.8077L28.9588 15.8223V20.3496C28.9588 20.806 29.3267 21.1759 29.7831 21.1759C30.2394 21.1759 30.6094 20.806 30.6094 20.3496V16.7229L38.9079 21.2442L20.8289 31.4866Z" fill="var(--fill-0, #0F75FF)"/>
</g>
<defs>
<clipPath id="clip0_0_22">
<rect width="41.59" height="43.9894" fill="white"/>
</clipPath>
</defs>
</svg>
