<svg preserveAspectRatio="xMidYMid meet" width="100%" height="100%" overflow="visible" style="display: block;" viewBox="0 0 44 44" fill="none" xmlns="http://www.w3.org/2000/svg">
<g id="ergoz-int-bogo-icon-hypoallergenic.svg" clip-path="url(#clip0_0_8)">
<path id="Vector" d="M21.7893 0C16.011 0 10.4688 2.29567 6.3809 6.3809C2.29542 10.4684 0 16.011 0 21.7893C0 27.5675 2.29567 33.1097 6.3809 37.1977C10.4684 41.2832 16.011 43.5785 21.7893 43.5785C27.5675 43.5785 33.1097 41.2829 37.1977 37.1977C41.2832 33.1103 43.5785 27.5675 43.5785 21.7893C43.5728 16.013 41.2751 10.4743 37.1897 6.38887C33.1042 2.30344 27.5656 0.00597649 21.7893 0ZM21.7893 42.0222C16.4239 42.0222 11.2762 39.89 7.48206 36.0965C3.68839 32.3029 1.55638 27.1552 1.55638 21.7893C1.55638 16.4234 3.68859 11.2762 7.48206 7.48206C11.2758 3.68839 16.4234 1.55638 21.7893 1.55638C27.1552 1.55638 32.3024 3.68859 36.0965 7.48206C39.8901 11.2758 42.0222 16.4234 42.0222 21.7893C42.0164 27.1532 39.8822 32.2969 36.0905 36.0905C32.2968 39.8823 27.1532 42.0162 21.7893 42.0222Z" fill="var(--fill-0, #0F75FF)"/>
<path id="Vector_2" d="M35.3007 22.6435C35.252 22.6221 35.2014 22.6026 35.1508 22.591C34.431 22.3419 28.8845 20.5501 25.1392 23.1007C24.0322 23.8885 23.1413 24.943 22.5479 26.1648V22.5462C23.6976 21.6318 27.4953 18.3051 27.4953 14.1886C27.4953 9.62255 22.5888 5.42605 21.7792 5.42605L21.7812 5.42799C21.606 5.42799 21.4349 5.4883 21.2968 5.5953C20.9154 5.8735 16.0419 9.5271 16.0419 14.1885C16.0419 18.3051 19.8394 21.6318 20.9893 22.5461L20.9912 26.1783C20.3978 24.9585 19.5088 23.906 18.4056 23.1201C14.6392 20.554 9.05393 22.2446 8.33975 22.5889V22.587C8.04405 22.7037 7.83783 22.9761 7.81058 23.2933C7.80669 23.3477 7.80864 23.4002 7.81642 23.4528C7.84755 24.2135 8.2133 30.0303 11.9545 32.5808V32.5828C13.4486 33.5244 15.1897 33.9971 16.9543 33.9388C18.318 33.9252 19.674 33.7404 20.9911 33.3882V37.3726C20.9911 37.8025 21.3394 38.1507 21.7693 38.1507C22.1993 38.1507 22.5475 37.8025 22.5475 37.3726V33.3688C23.8665 33.7209 25.2265 33.9057 26.5922 33.9193C28.3528 33.9797 30.092 33.5089 31.584 32.5673C35.3485 30.0032 35.8232 24.1843 35.7629 23.3963C35.7629 23.0772 35.5839 22.7873 35.2998 22.6434L35.3007 22.6435ZM17.5988 14.1882C17.5988 10.9432 20.694 8.09124 21.8204 7.16339C22.9002 8.0272 25.9371 10.9493 25.9371 14.1882C25.9371 16.8107 23.9158 19.1746 22.5461 20.476V15.7252H22.5481C22.5481 15.2952 22.1999 14.947 21.7699 14.947C21.3399 14.947 20.9917 15.2952 20.9917 15.7252V20.4799C19.6201 19.1823 17.5988 16.8205 17.5988 14.1882ZM12.8324 31.2969C10.1496 29.4682 9.53869 25.305 9.40644 23.8498C10.7274 23.4451 14.854 22.5813 17.5304 24.4043C19.7697 25.9314 20.5634 29.0831 20.8436 30.9295L16.8067 28.665H16.8048C16.6239 28.5639 16.4117 28.5386 16.2133 28.595C16.0149 28.6514 15.8457 28.7837 15.7445 28.9627C15.5344 29.3382 15.6686 29.8128 16.0421 30.023L19.7133 32.0832C17.8475 32.4586 14.9139 32.7152 12.8324 31.2969ZM30.7095 31.2814C28.5987 32.7171 25.6181 32.4331 23.7584 32.0479L27.1221 30.009C27.4898 29.7853 27.6065 29.3067 27.3828 28.941C27.161 28.5733 26.6824 28.4546 26.3148 28.6784L22.704 30.867C22.9881 29.0169 23.7856 25.9061 26.0171 24.3865C28.6999 22.5596 32.799 23.515 34.2019 23.9235C34.093 25.3028 33.3865 29.4586 30.7095 31.2814Z" fill="var(--fill-0, #0F75FF)"/>
</g>
<defs>
<clipPath id="clip0_0_8">
<rect width="44" height="44" fill="white"/>
</clipPath>
</defs>
</svg>
