<svg preserveAspectRatio="none" width="100%" height="100%" overflow="visible" style="display: block;" viewBox="0 0 95.3333 16.511" fill="none" xmlns="http://www.w3.org/2000/svg">
<g id="Group">
<path id="Vector" d="M0 0.0574658V4.47494H2.95731V16.1233H7.95487V0.0574658M16.3935 6.16293H14.0541V4.46729H15.2315V0.0574658H9.06464V16.1233H14.0541V10.0482H16.3935V16.1233H21.3983V0.0574658H16.3935M22.4928 16.1233H31.751V11.6981H27.2669V9.82771H30.1197V6.16293H27.2669V4.47494H31.751V0.0574658H22.4928M71.1129 5.49374C71.1129 2.02668 68.6033 0.0574658 65.0434 0.0574658H59.4792V16.1157H64.4768V12.0023L67.3368 16.1157H72.9757L68.9231 9.95697C70.3833 9.14338 71.1129 7.66077 71.1129 5.49374ZM64.4624 7.27298V4.28487C65.1551 4.28487 66.0036 4.49782 66.2567 5.27331C66.2792 5.34177 66.2946 5.4178 66.3171 5.49374C66.3171 5.50139 66.3171 5.51662 66.3243 5.52427C66.3315 5.6003 66.3468 5.69146 66.3468 5.78271C66.3468 6.97644 65.2812 7.27298 64.4624 7.27298ZM41.649 9.84293H41.6048L41.2472 8.51994L40.1293 4.4826H42.0957L43.392 0.0574658H33.4121L39.1321 16.1157H44.2558L44.8738 14.3973C44.8738 14.3973 47.6149 6.80925 49.112 2.67291V16.1157H58.3694V11.6905H53.8862V9.82014H56.7309V6.16293H53.8862V4.47494H58.3694V0.049809H44.5387L41.649 9.84293ZM95.3333 4.4826V0.0650324H86.0759V16.1233H95.3333V11.6981H90.8429V9.82771H93.6948V6.17816H90.8429V4.4826" fill="var(--fill-0, white)"/>
<path id="Vector_2" d="M85.1191 12.7549V6.20845H78.0579V9.8581H80.6863V11.1582C80.4864 11.3407 80.054 11.4395 79.6072 11.4395C77.775 11.4395 76.4193 9.96448 76.4193 8.16245C76.4193 6.36051 77.7372 4.76377 79.5694 4.76377C80.6791 4.76377 83.3085 4.77133 83.3085 4.77133V0.0116478H82.1087C79.8747 0.0116478 77.648 -0.170852 75.5996 0.908925C73.9836 1.76044 72.7027 3.20513 72.0244 4.92348C71.6298 5.9347 71.4298 7.02961 71.4298 8.11687C71.4298 12.6713 74.9294 16.511 79.4648 16.511C81.715 16.511 83.912 15.6518 85.111 14.5797C85.1182 13.4696 85.1191 13.3024 85.1191 12.7549Z" fill="var(--fill-0, white)"/>
</g>
</svg>
