<svg preserveAspectRatio="none" width="100%" height="100%" overflow="visible" style="display: block;" viewBox="0 0 55 23.0988" fill="none" xmlns="http://www.w3.org/2000/svg">
<g id="Group 1000002301">
<path id="Vector" d="M0 0V23.0988H7.03125V15.6438H13.4236V9.32346H7.03125V6.30029H14.8703L14.444 0H0Z" fill="var(--fill-0, white)"/>
<path id="Vector_2" d="M26.1499 0C19.7152 0 14.5345 5.15103 14.5345 11.5494C14.5345 17.9478 19.7152 23.0988 26.1499 23.0988C32.5845 23.0988 37.7652 17.9478 37.7652 11.5494C37.7652 5.15103 32.5845 0 26.1499 0ZM26.1499 4.75703C27.2362 4.75703 28.1113 5.6266 28.1113 6.70696V16.3917C28.1113 17.472 27.2362 18.3418 26.1499 18.3418C25.0636 18.3418 24.1885 17.472 24.1885 16.3917V6.70696C24.1885 5.6266 25.0636 4.75703 26.1499 4.75703Z" fill="var(--fill-0, white)"/>
<path id="Vector_3" d="M34.2837 0L40.8741 11.5494L34.2837 23.0988H41.8179L44.6412 18.1514L47.4646 23.0988H55L48.4096 11.5494L55 0H47.4646L44.6412 4.94723L41.8192 0H34.2837Z" fill="var(--fill-0, white)"/>
</g>
</svg>
