<svg preserveAspectRatio="none" width="100%" height="100%" overflow="visible" style="display: block;" viewBox="0 0 95.3333 40" fill="none" xmlns="http://www.w3.org/2000/svg">
<g id="Frame 2087326651">
<path id="Vector" d="M80.2918 13.1886V26.8606H86.7762C88.5871 26.8606 89.6365 26.5634 90.3991 25.87C91.3522 24.9783 91.8292 23.3931 91.8292 20.0246C91.8292 16.6562 91.3522 15.0711 90.3991 14.1794C89.6365 13.4858 88.5871 13.1886 86.7762 13.1886H80.2918ZM89.1594 20.0246C89.1594 22.9968 88.969 23.6904 88.3967 24.0866C88.0148 24.3838 87.5388 24.4829 86.5847 24.4829H82.9617V15.4673H86.5847C87.5388 15.4673 88.0148 15.4673 88.3967 15.8636C88.969 16.359 89.1594 17.0525 89.1594 20.0246ZM95.1667 29.8827H76.1425V10.1173H95.1667V29.8827ZM60.6002 15.4673V13.1886H71.8521V17.5478H69.4677V15.4673H64.8906V18.7366H68.5147V20.9163H64.8906V24.5821H69.5641V22.2042H71.9472V26.8606H60.6013V24.5821H62.4122V15.4673H60.6002ZM50.3977 23.294C50.3977 24.7802 50.4918 25.87 50.6822 26.7615H53.258C53.1617 26.0681 53.0676 24.7802 53.0676 23.0959C52.9713 21.1144 52.399 20.8172 51.0641 20.5201C52.5894 20.2227 53.258 19.5293 53.258 17.0525C53.258 15.0711 52.9712 14.2784 52.399 13.7831C52.0171 13.3867 51.3507 13.1886 50.3014 13.1886H42.2905V26.8606H44.9616V21.5107H48.6809C49.4435 21.5107 49.7291 21.6098 50.0158 21.808C50.3025 22.0061 50.3977 22.3033 50.3977 23.294ZM44.9616 19.3312V15.5663H49.2531C49.8254 15.5663 50.0158 15.6654 50.1099 15.7646C50.3014 15.9627 50.4917 16.2599 50.4917 17.4487C50.4917 18.6376 50.3014 19.0339 50.1099 19.2321C50.0158 19.3312 49.8254 19.4302 49.2531 19.4302L44.9616 19.3312ZM57.0724 29.8827H38.0013V10.1173H57.0242V29.8827H57.0724ZM33.0422 24.5821V26.8606H23.9821V24.5821H27.2242V15.4673H23.9821V13.1886H33.0411V15.4673H29.7989V24.5821H33.0422ZM17.7374 13.1886H15.2578L13.4458 23.9875L11.3482 13.9812C11.253 13.2876 10.9663 13.1886 10.394 13.1886H9.05905C8.48677 13.1886 8.20118 13.3867 8.10598 13.9812L6.00838 23.9875L4.19636 13.1886H1.52643L4.10115 26.1672C4.19634 26.7615 4.38674 26.8606 5.05422 26.8606H6.86623C7.43851 26.8606 7.62892 26.7615 7.8193 26.1672L9.82285 16.7552L11.8252 26.1672C11.9204 26.7615 12.1108 26.8606 12.7783 26.8606H14.4952C15.0674 26.8606 15.353 26.7615 15.4482 26.1672L17.7374 13.1886ZM19.0723 29.8827H0V10.1173H19.0241V29.8827H19.0723Z" fill="var(--fill-0, white)"/>
</g>
</svg>
