<svg preserveAspectRatio="none" width="100%" height="100%" overflow="visible" style="display: block;" viewBox="0 0 24 32" fill="none" xmlns="http://www.w3.org/2000/svg">
<g id="Frame 2087326509">
<path id="Vector" d="M24 18C24 21.1826 22.7357 24.2348 20.4853 26.4853C18.2348 28.7357 15.1826 30 12 30C8.8174 30 5.76516 28.7357 3.51472 26.4853C1.26428 24.2348 0 21.1826 0 18C0 14.8174 1.26428 11.7652 3.51472 9.51472C5.76516 7.26428 8.8174 6 12 6C15.1826 6 18.2348 7.26428 20.4853 9.51472C22.7357 11.7652 24 14.8174 24 18ZM18.045 13.455C17.9379 13.3482 17.8103 13.2642 17.6699 13.2078C17.5295 13.1515 17.3792 13.124 17.228 13.1271C17.0768 13.1302 16.9277 13.1637 16.7897 13.2258C16.6518 13.2878 16.5277 13.377 16.425 13.488L11.2155 20.1255L8.076 16.9845C7.86274 16.7858 7.58067 16.6776 7.28922 16.6827C6.99776 16.6879 6.71969 16.8059 6.51357 17.0121C6.30745 17.2182 6.18938 17.4963 6.18424 17.7877C6.1791 18.0792 6.28728 18.3612 6.486 18.5745L10.455 22.545C10.5619 22.6517 10.6892 22.7358 10.8294 22.7923C10.9695 22.8487 11.1196 22.8764 11.2706 22.8736C11.4217 22.8708 11.5706 22.8376 11.7085 22.776C11.8465 22.7144 11.9706 22.6256 12.0735 22.515L18.0615 15.03C18.2656 14.8177 18.3784 14.5339 18.3756 14.2394C18.3728 13.945 18.2546 13.6633 18.0465 13.455H18.045Z" fill="var(--fill-0, #0F75FF)"/>
</g>
</svg>
