<svg preserveAspectRatio="none" width="100%" height="100%" overflow="visible" style="display: block;" viewBox="0 0 40 41" fill="none" xmlns="http://www.w3.org/2000/svg">
<g id="5bfacfcb-d1ba-47e4-9950-9be63611659d">
<path id="Vector" d="M13.1668 27.1327L4.55898 23.9608C4.32163 23.8732 4.11684 23.715 3.97219 23.5074C3.82754 23.2998 3.75 23.0529 3.75 22.7999C3.75 22.5469 3.82754 22.3 3.97219 22.0924C4.11684 21.8848 4.32163 21.7266 4.55898 21.639L13.1668 18.4671L16.3387 9.85929C16.4263 9.62194 16.5845 9.41715 16.7921 9.2725C16.9997 9.12786 17.2466 9.05031 17.4996 9.05031C17.7526 9.05031 17.9995 9.12786 18.2071 9.2725C18.4147 9.41715 18.5729 9.62194 18.6605 9.85929L21.8324 18.4671L30.4402 21.639C30.6776 21.7266 30.8824 21.8848 31.027 22.0924C31.1717 22.3 31.2492 22.5469 31.2492 22.7999C31.2492 23.0529 31.1717 23.2998 31.027 23.5074C30.8824 23.715 30.6776 23.8732 30.4402 23.9608L21.8324 27.1327L18.6605 35.7405C18.5729 35.9779 18.4147 36.1827 18.2071 36.3273C17.9995 36.472 17.7526 36.5495 17.4996 36.5495C17.2466 36.5495 16.9997 36.472 16.7921 36.3273C16.5845 36.1827 16.4263 35.9779 16.3387 35.7405L13.1668 27.1327Z" stroke="var(--stroke-0, white)" stroke-width="2.5" stroke-linecap="round" stroke-linejoin="round"/>
<path id="Vector_2" d="M27.5 2.79991V10.2999" stroke="var(--stroke-0, white)" stroke-width="2" stroke-linecap="round" stroke-linejoin="round"/>
<path id="Vector_3" d="M35 11.5499V16.5499" stroke="var(--stroke-0, white)" stroke-width="2" stroke-linecap="round" stroke-linejoin="round"/>
<path id="Vector_4" d="M23.75 6.54991H31.25" stroke="var(--stroke-0, white)" stroke-width="2" stroke-linecap="round" stroke-linejoin="round"/>
<path id="Vector_5" d="M32.5 14.0499H37.5" stroke="var(--stroke-0, white)" stroke-width="2" stroke-linecap="round" stroke-linejoin="round"/>
</g>
</svg>
