<svg preserveAspectRatio="none" width="100%" height="100%" overflow="visible" style="display: block;" viewBox="0 0 40 40" fill="none" xmlns="http://www.w3.org/2000/svg">
<g id="Icon">
<path id="Vector" d="M20 17.8222L24.5111 13.3111C24.7963 13.0259 25.1593 12.8833 25.6 12.8833C26.0407 12.8833 26.4037 13.0259 26.6889 13.3111C26.9741 13.5963 27.1167 13.9593 27.1167 14.4C27.1167 14.8407 26.9741 15.2037 26.6889 15.4889L22.1778 20L26.6889 24.5111C26.9741 24.7963 27.1167 25.1593 27.1167 25.6C27.1167 26.0407 26.9741 26.4037 26.6889 26.6889C26.4037 26.9741 26.0407 27.1167 25.6 27.1167C25.1593 27.1167 24.7963 26.9741 24.5111 26.6889L20 22.1778L15.4889 26.6889C15.2037 26.9741 14.8407 27.1167 14.4 27.1167C13.9593 27.1167 13.5963 26.9741 13.3111 26.6889C13.0259 26.4037 12.8833 26.0407 12.8833 25.6C12.8833 25.1593 13.0259 24.7963 13.3111 24.5111L17.8222 20L13.3111 15.4889C13.0259 15.2037 12.8833 14.8407 12.8833 14.4C12.8833 13.9593 13.0259 13.5963 13.3111 13.3111C13.5963 13.0259 13.9593 12.8833 14.4 12.8833C14.8407 12.8833 15.2037 13.0259 15.4889 13.3111L20 17.8222ZM20 4.44444C17.8481 4.44444 15.8259 4.85278 13.9333 5.66944C12.0407 6.48611 10.3944 7.59444 8.99444 8.99444C7.59444 10.3944 6.48611 12.0407 5.66944 13.9333C4.85278 15.8259 4.44444 17.8481 4.44444 20C4.44444 22.1519 4.85278 24.1741 5.66944 26.0667C6.48611 27.9593 7.59444 29.6056 8.99444 31.0056C10.3944 32.4056 12.0407 33.5139 13.9333 34.3306C15.8259 35.1472 17.8481 35.5556 20 35.5556C22.1519 35.5556 24.1741 35.1472 26.0667 34.3306C27.9593 33.5139 29.6056 32.4056 31.0056 31.0056C32.4056 29.6056 33.5139 27.9593 34.3306 26.0667C35.1472 24.1741 35.5556 22.1519 35.5556 20C35.5556 17.8481 35.1472 15.8259 34.3306 13.9333C33.5139 12.0407 32.4056 10.3944 31.0056 8.99444C29.6056 7.59444 27.9593 6.48611 26.0667 5.66944C24.1741 4.85278 22.1519 4.44444 20 4.44444Z" fill="var(--fill-0, #B70101)"/>
</g>
</svg>
