<svg preserveAspectRatio="none" width="100%" height="100%" overflow="visible" style="display: block;" viewBox="0 0 30.1176 30.1114" fill="none" xmlns="http://www.w3.org/2000/svg">
<g id="Group">
<path id="Vector" d="M28.9881 23.5298C28.1849 22.7367 25.1526 20.3872 22.261 18.5899L22.2309 18.6201C25.1727 14.0416 24.8213 7.71609 20.6344 3.53928C15.9154 -1.17976 8.25454 -1.17976 3.53551 3.53928C-1.17348 8.25831 -1.18353 15.9192 3.53551 20.6382C7.64203 24.7548 13.9575 25.2367 18.5962 22.2647C20.3934 25.1664 22.7329 28.1786 23.5361 28.9818C25.0422 30.4879 27.482 30.4879 28.9881 28.9818C30.4942 27.4757 30.4942 25.0359 28.9881 23.5298ZM17.562 17.5658C14.5599 20.5679 9.64014 20.6181 6.59784 17.5758C3.57565 14.5536 3.57565 9.63385 6.59784 6.60161C9.62004 3.56937 14.5399 3.55938 17.5721 6.60161C20.6947 9.70414 20.4738 14.6641 17.562 17.5658ZM27.0202 27.0139C26.6085 27.4255 25.986 27.4055 25.5944 27.0139C25.1928 26.6123 25.2229 25.9697 25.5944 25.5982C25.976 25.2267 26.6487 25.2267 27.0202 25.5982C27.4017 25.9597 27.4117 26.6424 27.0202 27.0139Z" fill="var(--fill-0, #0F75FF)"/>
<path id="Vector_2" d="M12.0801 7.57918C11.5256 7.57918 11.076 8.02875 11.076 8.58323V12.4371C11.076 12.9916 11.5256 13.4412 12.0801 13.4412C12.6346 13.4412 13.0841 12.9916 13.0841 12.4371V8.58323C13.0841 8.02875 12.6346 7.57918 12.0801 7.57918Z" fill="var(--fill-0, #0F75FF)"/>
<path id="Vector_3" d="M11.3668 14.8747C10.9899 15.2525 10.9693 15.8921 11.3668 16.2906C11.7539 16.6777 12.4037 16.6793 12.7924 16.2906C13.1894 15.8936 13.1698 15.252 12.7924 14.8747C12.411 14.5031 11.7487 14.5031 11.3668 14.8747Z" fill="var(--fill-0, #0F75FF)"/>
</g>
</svg>
