<svg preserveAspectRatio="none" width="100%" height="100%" overflow="visible" style="display: block;" viewBox="0 0 32 32" fill="none" xmlns="http://www.w3.org/2000/svg">
<g id="Group">
<path id="Vector" d="M31.0625 14.4375C31.5803 14.4375 32 14.0178 32 13.5C32 12.9822 31.5803 12.5625 31.0625 12.5625H26.9375V9.4375H31.0625C31.5803 9.4375 32 9.01775 32 8.5C32 7.98225 31.5803 7.5625 31.0625 7.5625H26.9375V6.9375C26.9375 5.90363 26.0964 5.0625 25.0625 5.0625H24.4375V0.9375C24.4375 0.41975 24.0178 0 23.5 0C22.9822 0 22.5625 0.41975 22.5625 0.9375V5.0625H19.4375V0.9375C19.4375 0.41975 19.0178 0 18.5 0C17.9822 0 17.5625 0.41975 17.5625 0.9375V5.0625H14.4375V0.9375C14.4375 0.41975 14.0178 0 13.5 0C12.9822 0 12.5625 0.41975 12.5625 0.9375V5.0625H9.4375V0.9375C9.4375 0.41975 9.01775 0 8.5 0C7.98225 0 7.5625 0.41975 7.5625 0.9375V5.0625H6.9375C5.90363 5.0625 5.0625 5.90363 5.0625 6.9375V7.5625H0.9375C0.41975 7.5625 0 7.98225 0 8.5C0 9.01775 0.41975 9.4375 0.9375 9.4375H5.0625V12.5625H0.9375C0.41975 12.5625 0 12.9822 0 13.5C0 14.0178 0.41975 14.4375 0.9375 14.4375H5.0625V17.5625H0.9375C0.41975 17.5625 0 17.9822 0 18.5C0 19.0178 0.41975 19.4375 0.9375 19.4375H5.0625V22.5625H0.9375C0.41975 22.5625 0 22.9822 0 23.5C0 24.0178 0.41975 24.4375 0.9375 24.4375H5.0625V25.0625C5.0625 26.0964 5.90363 26.9375 6.9375 26.9375H7.5625V31.0625C7.5625 31.5803 7.98225 32 8.5 32C9.01775 32 9.4375 31.5803 9.4375 31.0625V26.9375H12.5625V31.0625C12.5625 31.5803 12.9822 32 13.5 32C14.0178 32 14.4375 31.5803 14.4375 31.0625V26.9375H17.5625V31.0625C17.5625 31.5803 17.9822 32 18.5 32C19.0178 32 19.4375 31.5803 19.4375 31.0625V26.9375H22.5625V31.0625C22.5625 31.5803 22.9822 32 23.5 32C24.0178 32 24.4375 31.5803 24.4375 31.0625V26.9375H25.0625C26.0964 26.9375 26.9375 26.0964 26.9375 25.0625V24.4375H31.0625C31.5803 24.4375 32 24.0178 32 23.5C32 22.9822 31.5803 22.5625 31.0625 22.5625H26.9375V19.4375H31.0625C31.5803 19.4375 32 19.0178 32 18.5C32 17.9822 31.5803 17.5625 31.0625 17.5625H26.9375V14.4375H31.0625ZM21.9375 19.125C21.9375 19.3736 21.8387 19.6121 21.6629 19.7879L19.7879 21.6629C19.6121 21.8387 19.3736 21.9375 19.125 21.9375H12.875C12.6264 21.9375 12.3879 21.8387 12.2121 21.6629L10.3371 19.7879C10.1613 19.6121 10.0625 19.3736 10.0625 19.125V12.875C10.0625 12.6264 10.1613 12.3879 10.3371 12.2121L12.2121 10.3371C12.3879 10.1613 12.6264 10.0625 12.875 10.0625H19.125C19.3736 10.0625 19.6121 10.1613 19.7879 10.3371L21.6629 12.2121C21.8387 12.3879 21.9375 12.6264 21.9375 12.875V19.125Z" fill="var(--fill-0, #0F75FF)"/>
<path id="Vector_2" d="M13.2633 11.9375L11.9375 13.2633V18.7367L13.2633 20.0625H18.7367L20.0625 18.7367V13.2633L18.7367 11.9375H13.2633Z" fill="var(--fill-0, #0F75FF)"/>
</g>
</svg>
