<svg preserveAspectRatio="none" width="100%" height="100%" overflow="visible" style="display: block;" viewBox="0 0 32 32" fill="none" xmlns="http://www.w3.org/2000/svg">
<g id="fi_5345140" clip-path="url(#clip0_0_16)">
<path id="Vector" fill-rule="evenodd" clip-rule="evenodd" d="M6.25 0H25.75C27.4066 0.00318806 28.9945 0.662692 30.1659 1.8341C31.3373 3.00552 31.9968 4.59338 32 6.25V25.75C31.9968 27.4066 31.3373 28.9945 30.1659 30.1659C28.9945 31.3373 27.4066 31.9968 25.75 32H6.25C4.59338 31.9968 3.00552 31.3373 1.8341 30.1659C0.662692 28.9945 0.00318806 27.4066 0 25.75L0 6.25C0.00318806 4.59338 0.662692 3.00552 1.8341 1.8341C3.00552 0.662692 4.59338 0.00318806 6.25 0ZM6.625 24.2032C6.62508 24.514 6.74858 24.812 6.96833 25.0317C7.18808 25.2515 7.48611 25.3749 7.79688 25.375H13.9302C14.0851 25.3766 14.2388 25.3475 14.3824 25.2893C14.526 25.2311 14.6566 25.1451 14.7667 25.0361C14.8768 24.9271 14.9642 24.7974 15.0239 24.6544C15.0835 24.5114 15.1142 24.358 15.1142 24.2031C15.1142 24.0482 15.0835 23.8948 15.0239 23.7519C14.9642 23.6089 14.8768 23.4791 14.7667 23.3702C14.6566 23.2612 14.526 23.1751 14.3824 23.117C14.2388 23.0588 14.0851 23.0297 13.9302 23.0312H10.6261L14.9886 18.6688C15.2084 18.449 15.332 18.1509 15.332 17.84C15.332 17.5292 15.2086 17.231 14.9888 17.0112C14.88 16.9024 14.7508 16.816 14.6086 16.7571C14.4664 16.6982 14.314 16.6679 14.16 16.6679C13.8492 16.6678 13.5511 16.7913 13.3313 17.0111L8.96875 21.3742V18.0698C8.96556 17.7611 8.84069 17.4661 8.62127 17.249C8.40185 17.0318 8.1056 16.91 7.79688 16.91C7.48815 16.91 7.1919 17.0318 6.97248 17.249C6.75306 17.4661 6.62819 17.7611 6.625 18.0698V24.2032ZM25.375 7.79694C25.3749 7.48615 25.2514 7.18811 25.0317 6.96835C24.8119 6.74858 24.5139 6.62508 24.2031 6.625H18.0698C17.9149 6.6234 17.7612 6.65253 17.6176 6.7107C17.474 6.76888 17.3434 6.85494 17.2333 6.96392C17.1232 7.0729 17.0358 7.20263 16.9761 7.3456C16.9165 7.48857 16.8858 7.64196 16.8858 7.79688C16.8858 7.95179 16.9165 8.10518 16.9761 8.24815C17.0358 8.39112 17.1232 8.52085 17.2333 8.62983C17.3434 8.73881 17.474 8.82487 17.6176 8.88305C17.7612 8.94122 17.9149 8.97035 18.0698 8.96875H21.3742L17.0111 13.3313C16.7912 13.5511 16.6677 13.8492 16.6677 14.1601C16.6677 14.471 16.7912 14.7691 17.0111 14.9889C17.2309 15.2088 17.529 15.3323 17.8399 15.3323C18.1508 15.3323 18.4489 15.2088 18.6688 14.9889L23.0312 10.6258V13.9303C23.0344 14.239 23.1593 14.5339 23.3787 14.7511C23.5982 14.9683 23.8944 15.0901 24.2031 15.0901C24.5118 15.0901 24.8081 14.9683 25.0275 14.7511C25.2469 14.5339 25.3718 14.239 25.375 13.9303V7.79694Z" fill="var(--fill-0, #0F75FF)"/>
</g>
<defs>
<clipPath id="clip0_0_16">
<rect width="32" height="32" fill="white"/>
</clipPath>
</defs>
</svg>
