<svg preserveAspectRatio="none" width="100%" height="100%" overflow="visible" style="display: block;" viewBox="0 0 32 32" fill="none" xmlns="http://www.w3.org/2000/svg">
<g id="fi_5733786">
<path id="Vector" fill-rule="evenodd" clip-rule="evenodd" d="M17.6311 1.15988L19.2709 2.38731C19.7194 2.723 20.1914 2.89481 20.7507 2.92594L22.7959 3.03969C24.0205 3.10781 25.0151 3.94237 25.2948 5.13656L25.762 7.13087C25.8897 7.67631 26.1409 8.11137 26.5494 8.49469L28.0429 9.8965C28.9373 10.7358 29.1627 12.0144 28.6094 13.1091L27.6853 14.9371C27.4326 15.4371 27.3454 15.9318 27.4119 16.488L27.655 18.5219C27.8006 19.7397 27.1514 20.8641 26.0239 21.3469L24.141 22.1533C23.626 22.3739 23.2412 22.6967 22.9346 23.1656L21.8135 24.8799C21.1422 25.9063 19.9222 26.3504 18.7481 25.9956L16.7874 25.403C16.2511 25.2409 15.7488 25.2409 15.2126 25.403L13.2518 25.9956C12.0778 26.3504 10.8578 25.9063 10.1864 24.8799L9.06531 23.1656C8.75869 22.6967 8.37388 22.3739 7.85888 22.1534L5.97606 21.3469C4.84862 20.8641 4.19944 19.7396 4.345 18.5218L4.58813 16.4879C4.65456 15.9317 4.56737 15.437 4.31462 14.9371L3.39056 13.109C2.83725 12.0144 3.06275 10.7358 3.957 9.89644L5.45056 8.49462C5.859 8.11125 6.11019 7.67625 6.23794 7.13081L6.70512 5.1365C6.98487 3.94231 7.97944 3.10775 9.20406 3.03963L11.2492 2.92588C11.8086 2.89475 12.2806 2.72294 12.7291 2.38725L14.3689 1.15981C15.3508 0.424875 16.6492 0.424875 17.6311 1.15988ZM14.954 14.0649L13.1744 12.2854C12.7132 11.8242 11.9651 11.8242 11.5038 12.2854C11.0426 12.7466 11.0426 13.4948 11.5038 13.9559L14.1213 16.5733C14.5824 17.0345 15.3306 17.0345 15.7918 16.5733C17.3695 14.9956 18.9293 13.4003 20.4996 11.8153C20.9574 11.3532 20.956 10.6074 20.4944 10.1484C20.0328 9.68931 19.2849 9.69062 18.8266 10.1536L14.954 14.0649ZM16 4.49575C13.5516 4.49575 11.3349 5.48819 9.73031 7.09275C8.12575 8.69731 7.13331 10.914 7.13331 13.3624C7.13331 15.8108 8.12581 18.0275 9.73031 19.632C11.3349 21.2366 13.5516 22.229 16 22.229C18.4484 22.229 20.6651 21.2365 22.2696 19.632C23.8742 18.0275 24.8666 15.8108 24.8666 13.3624C24.8666 10.9139 23.8742 8.69731 22.2696 7.09275C20.6651 5.48825 18.4484 4.49575 16 4.49575ZM21.5626 7.79981C20.1391 6.37625 18.1724 5.49575 16 5.49575C13.8276 5.49575 11.8609 6.37625 10.4374 7.79981C9.01381 9.22337 8.13331 11.1901 8.13331 13.3624C8.13331 15.5348 9.01381 17.5015 10.4374 18.9251C11.8609 20.3486 13.8276 21.2291 16 21.2291C18.1724 21.2291 20.1391 20.3486 21.5626 18.9251C22.9862 17.5015 23.8667 15.5348 23.8667 13.3624C23.8667 11.1901 22.9862 9.22337 21.5626 7.79981ZM19.3318 27.1087L21.2751 31.2829C21.3054 31.3479 21.3651 31.3879 21.4366 31.3911C21.5082 31.3944 21.5713 31.36 21.6073 31.298L23.0567 28.8036L25.8986 29.3002C25.9692 29.3125 26.0361 29.2864 26.0797 29.2296C26.1232 29.1727 26.1311 29.1013 26.1009 29.0364L23.6844 23.8461L22.6504 25.4271C21.9041 26.5683 20.6403 27.1861 19.3318 27.1087ZM12.7433 27.1035C11.4082 27.2094 10.1102 26.5901 9.34962 25.4271L8.358 23.9109L5.97175 29.0364C5.9415 29.1013 5.94931 29.1727 5.99294 29.2296C6.0365 29.2864 6.10344 29.3125 6.174 29.3002L9.01594 28.8036L10.4654 31.298C10.5014 31.3599 10.5645 31.3943 10.6361 31.3911C10.7076 31.3878 10.7673 31.3479 10.7976 31.2829L12.7433 27.1035Z" fill="var(--fill-0, #0F75FF)"/>
</g>
</svg>
