<svg preserveAspectRatio="none" width="100%" height="100%" overflow="visible" style="display: block;" viewBox="0 0 49.2275 50.0001" fill="none" xmlns="http://www.w3.org/2000/svg">
<g id="Group">
<path id="Vector" d="M34.2896 15.1803C33.7567 12.6827 32.3699 10.4224 30.3846 8.81611C28.4003 7.21054 25.9017 6.32588 23.3491 6.325C23.3374 6.325 23.3261 6.3249 23.3142 6.3249C21.7063 6.3249 20.1055 6.72773 18.6785 7.45097C18.2533 5.93681 17.9461 3.97451 17.9461 1.46484C17.9461 0.655859 17.2902 0 16.4812 0H10.6219C9.81287 0 9.15698 0.655859 9.15698 1.46484C9.15698 7.22793 10.3951 12.0072 12.837 15.67C13.0406 15.9755 13.2455 16.2611 13.4498 16.5299C13.4986 17.1647 13.6081 17.8088 13.7801 18.4566L15.6165 25.3758L15.6179 25.3809L16.8937 30.1881C17.2205 31.4192 16.9625 32.7045 16.1859 33.7139C15.4094 34.7236 14.2334 35.3027 12.9596 35.3027C7.61851 35.3027 3.27319 39.6479 3.27319 44.989V48.5352C3.27319 49.3442 3.92905 50.0001 4.73804 50.0001H10.6219C11.4308 50.0001 12.0867 49.3442 12.0867 48.5352V45.1414C12.0867 44.5761 12.5466 44.1163 13.1119 44.1163C13.2319 44.1163 13.3487 44.1369 13.4592 44.1774C17.8836 45.8015 21.8365 45.8085 25.2088 44.1973C28.9336 42.4178 31.8672 38.6378 33.6924 33.2659C34.5886 30.6284 35.1155 27.8735 35.2688 25.0791C35.2691 25.0739 35.2693 25.0687 35.2696 25.0636C35.4209 22.282 35.2023 19.4614 34.6092 16.6785L34.2896 15.1803ZM15.3038 10.2095C14.8453 10.8032 14.4696 11.4383 14.1771 12.1052C12.9551 9.5582 12.2629 6.48711 12.1162 2.92978H15.0498C15.1728 5.56553 15.6211 7.63769 16.1719 9.2372C15.8602 9.5417 15.5691 9.86582 15.3038 10.2095ZM9.15689 45.1414V47.0704H6.20278V44.9891C6.20278 42.3395 7.73667 40.0425 9.96237 38.9359C9.87667 39.954 10.1149 41.0559 10.6996 42.0105C9.76227 42.7344 9.15689 43.8682 9.15689 45.1414ZM30.9184 32.3233C29.8267 35.5361 27.7308 39.7455 23.9458 41.5539C21.3127 42.8121 18.1244 42.7694 14.4688 41.4272C14.4545 41.422 14.4398 41.4175 14.4254 41.4124L14.4207 41.4106C13.0952 40.9757 12.7828 39.7627 12.8962 39.0535C12.9699 38.5922 13.1743 38.3106 13.504 38.2113C15.4827 38.0606 17.2839 37.0919 18.5081 35.5005C19.8436 33.7641 20.2874 31.554 19.7254 29.4367L19.3558 28.0446C20.0208 28.2516 20.6584 28.3391 21.2699 28.3391C23.0703 28.3391 24.6463 27.5845 26.039 26.9174C28.0517 25.9534 29.8198 25.1085 32.2679 25.9479C32.0685 28.1232 31.6183 30.2636 30.9184 32.3233ZM24.7735 24.2751C22.3298 25.4453 20.8132 26.1694 18.3284 24.1739L16.6115 17.7053C15.8937 15.0013 16.7651 13.1102 17.6225 12.0001C18.9316 10.305 21.11 9.25469 23.3134 9.25469C23.324 9.25469 23.3349 9.25478 23.3455 9.25478C27.2185 9.25478 30.6162 12.0039 31.4244 15.7915L31.7437 17.2894C32.1427 19.1611 32.3548 21.0507 32.3827 22.9299C29.2189 22.1485 26.7915 23.3087 24.7735 24.2751Z" fill="var(--fill-0, #0F75FF)"/>
<path id="Vector_2" d="M43.0845 43.2129L43.8691 43.0544C44.3981 42.9474 44.8256 42.5584 44.9814 42.0417C45.1374 41.525 44.9965 40.9644 44.6148 40.5828L39.7638 35.7318C39.1919 35.1598 38.2643 35.1598 37.6923 35.7318C37.1202 36.3038 37.1202 37.2313 37.6923 37.8034L40.6123 40.7234L39.8276 40.8819C39.2986 40.9888 38.8712 41.3779 38.7153 41.8946C38.5594 42.4113 38.7003 42.9719 39.0819 43.3535L43.9329 48.2045C44.2189 48.4905 44.5938 48.6336 44.9686 48.6336C45.3434 48.6336 45.7184 48.4905 46.0044 48.2045C46.5764 47.6325 46.5764 46.705 46.0044 46.1329L43.0845 43.2129Z" fill="var(--fill-0, #0F75FF)"/>
<path id="Vector_3" d="M48.7985 1.86867C48.2265 1.2967 47.299 1.2967 46.7269 1.86867L43.8069 4.78869L43.6484 4.00403C43.5414 3.47502 43.1524 3.04758 42.6357 2.89172C42.1189 2.73567 41.5584 2.87668 41.1768 3.25832L36.3258 8.1093C35.7537 8.68127 35.7537 9.60881 36.3258 10.1809C36.6118 10.4669 36.9867 10.61 37.3616 10.61C37.7364 10.61 38.1114 10.4669 38.3973 10.1809L41.3173 7.26086L41.4758 8.04553C41.5827 8.57453 41.9718 9.00198 42.4885 9.15783C43.0053 9.31389 43.5658 9.17297 43.9474 8.79123L48.7984 3.94026C49.3706 3.36819 49.3706 2.44065 48.7985 1.86867Z" fill="var(--fill-0, #0F75FF)"/>
<path id="Vector_4" d="M7.70552 25.0985C8.08042 25.0985 8.45532 24.9555 8.74126 24.6694C9.31333 24.0975 9.31333 23.1699 8.74126 22.5979L5.82124 19.6778L6.60591 19.5193C7.13491 19.4124 7.56235 19.0233 7.71821 18.5066C7.87417 17.9899 7.73325 17.4294 7.35161 17.0478L2.50064 12.1968C1.92866 11.6248 1.00112 11.6248 0.429053 12.1968C-0.143018 12.7688 -0.143018 13.6963 0.429053 14.2684L3.34907 17.1884L2.5644 17.3469C2.0354 17.4538 1.60796 17.8429 1.4521 18.3596C1.29614 18.8763 1.43706 19.4368 1.8187 19.8185L6.66968 24.6694C6.95581 24.9555 7.33071 25.0985 7.70552 25.0985Z" fill="var(--fill-0, #0F75FF)"/>
<path id="Vector_5" d="M22.2376 18.6849C21.4714 18.6849 20.7373 19.3586 20.7727 20.1498C20.8083 20.9434 21.4164 21.6146 22.2376 21.6146C23.0038 21.6146 23.7379 20.9409 23.7024 20.1498C23.6669 19.3561 23.0588 18.6849 22.2376 18.6849Z" fill="var(--fill-0, #0F75FF)"/>
<path id="Vector_6" d="M28.2923 16.2761C27.5261 16.2761 26.792 16.9498 26.8274 17.7409C26.863 18.5346 27.4711 19.2058 28.2923 19.2058C29.0585 19.2058 29.7926 18.5321 29.7571 17.7409C29.7216 16.9473 29.1135 16.2761 28.2923 16.2761Z" fill="var(--fill-0, #0F75FF)"/>
<path id="Vector_7" d="M23.1165 13.379C23.081 12.5854 22.4728 11.9142 21.6517 11.9142C20.8854 11.9142 20.1514 12.5879 20.1868 13.379C20.2224 14.1727 20.8305 14.8439 21.6517 14.8439C22.4179 14.8439 23.1519 14.1701 23.1165 13.379Z" fill="var(--fill-0, #0F75FF)"/>
<path id="Vector_8" d="M25.3626 29.9481C24.5964 29.9481 23.8623 30.6218 23.8977 31.4129C23.9333 32.2066 24.5414 32.8778 25.3626 32.8778C26.1288 32.8778 26.8629 32.2041 26.8274 31.4129C26.7919 30.6193 26.1838 29.9481 25.3626 29.9481Z" fill="var(--fill-0, #0F75FF)"/>
<path id="Vector_9" d="M21.7818 36.5235C21.0156 36.5235 20.2815 37.1973 20.3169 37.9884C20.3525 38.782 20.9606 39.4532 21.7818 39.4532C22.548 39.4532 23.2821 38.7795 23.2466 37.9884C23.2111 37.1947 22.603 36.5235 21.7818 36.5235Z" fill="var(--fill-0, #0F75FF)"/>
</g>
</svg>
